G04*
G04 #@! TF.GenerationSoftware,Altium Limited,Altium Designer,21.3.2 (30)*
G04*
G04 Layer_Physical_Order=1*
G04 Layer_Color=255*
%FSTAX24Y24*%
%MOIN*%
G70*
G04*
G04 #@! TF.SameCoordinates,FA99FE0D-6524-457D-92B3-06535D0E1D10*
G04*
G04*
G04 #@! TF.FilePolarity,Positive*
G04*
G01*
G75*
%ADD13C,0.0100*%
%ADD14C,0.0080*%
%ADD15R,0.0433X0.0571*%
%ADD16R,0.1191X0.0600*%
%ADD17R,0.0543X0.0382*%
%ADD18R,0.0354X0.0157*%
%ADD19R,0.0382X0.0543*%
G04:AMPARAMS|DCode=20|XSize=52mil|YSize=23.2mil|CornerRadius=2.9mil|HoleSize=0mil|Usage=FLASHONLY|Rotation=0.000|XOffset=0mil|YOffset=0mil|HoleType=Round|Shape=RoundedRectangle|*
%AMROUNDEDRECTD20*
21,1,0.0520,0.0174,0,0,0.0*
21,1,0.0462,0.0232,0,0,0.0*
1,1,0.0058,0.0231,-0.0087*
1,1,0.0058,-0.0231,-0.0087*
1,1,0.0058,-0.0231,0.0087*
1,1,0.0058,0.0231,0.0087*
%
%ADD20ROUNDEDRECTD20*%
G04:AMPARAMS|DCode=21|XSize=52mil|YSize=23.2mil|CornerRadius=2.9mil|HoleSize=0mil|Usage=FLASHONLY|Rotation=90.000|XOffset=0mil|YOffset=0mil|HoleType=Round|Shape=RoundedRectangle|*
%AMROUNDEDRECTD21*
21,1,0.0520,0.0174,0,0,90.0*
21,1,0.0462,0.0232,0,0,90.0*
1,1,0.0058,0.0087,0.0231*
1,1,0.0058,0.0087,-0.0231*
1,1,0.0058,-0.0087,-0.0231*
1,1,0.0058,-0.0087,0.0231*
%
%ADD21ROUNDEDRECTD21*%
G04:AMPARAMS|DCode=22|XSize=42.5mil|YSize=55.9mil|CornerRadius=5.3mil|HoleSize=0mil|Usage=FLASHONLY|Rotation=270.000|XOffset=0mil|YOffset=0mil|HoleType=Round|Shape=RoundedRectangle|*
%AMROUNDEDRECTD22*
21,1,0.0425,0.0453,0,0,270.0*
21,1,0.0319,0.0559,0,0,270.0*
1,1,0.0106,-0.0226,-0.0159*
1,1,0.0106,-0.0226,0.0159*
1,1,0.0106,0.0226,0.0159*
1,1,0.0106,0.0226,-0.0159*
%
%ADD22ROUNDEDRECTD22*%
%ADD23R,0.0307X0.0307*%
%ADD24R,0.0974X0.1181*%
%ADD25R,0.0197X0.0197*%
%ADD26R,0.0236X0.0236*%
%ADD27R,0.0228X0.0622*%
%ADD29R,0.0591X0.0610*%
%ADD30R,0.0157X0.0531*%
%ADD31R,0.0591X0.0835*%
G04:AMPARAMS|DCode=32|XSize=42.5mil|YSize=55.9mil|CornerRadius=5.3mil|HoleSize=0mil|Usage=FLASHONLY|Rotation=0.000|XOffset=0mil|YOffset=0mil|HoleType=Round|Shape=RoundedRectangle|*
%AMROUNDEDRECTD32*
21,1,0.0425,0.0453,0,0,0.0*
21,1,0.0319,0.0559,0,0,0.0*
1,1,0.0106,0.0159,-0.0226*
1,1,0.0106,-0.0159,-0.0226*
1,1,0.0106,-0.0159,0.0226*
1,1,0.0106,0.0159,0.0226*
%
%ADD32ROUNDEDRECTD32*%
%ADD33R,0.0354X0.0382*%
%ADD34R,0.0276X0.0256*%
%ADD66O,0.0305X0.0610*%
%ADD67R,0.0236X0.0394*%
%ADD68R,0.0394X0.0236*%
%ADD69R,0.0276X0.0394*%
%ADD70R,0.0394X0.0276*%
%ADD71R,0.0512X0.0512*%
%ADD72C,0.0200*%
%ADD73C,0.0150*%
%ADD74C,0.0650*%
%ADD75C,0.0600*%
%ADD76R,0.0591X0.0591*%
%ADD77C,0.0591*%
%ADD78R,0.0591X0.0591*%
%ADD79O,0.0512X0.0374*%
G36*
X049381Y041647D02*
X04933Y041596D01*
X049277Y041504D01*
X04925Y041403D01*
Y0414D01*
X04965D01*
Y04135D01*
X0497D01*
Y04095D01*
X049703D01*
X049804Y040977D01*
X049896Y04103D01*
X049901Y041035D01*
X049947Y041016D01*
Y040323D01*
X049897Y040296D01*
X049886Y040304D01*
X049826Y040316D01*
X04965D01*
Y04D01*
X04955D01*
Y040316D01*
X049374D01*
X049314Y040304D01*
X049263Y04027D01*
X049229Y040219D01*
X049225Y0402D01*
X049175D01*
X049171Y040219D01*
X049137Y04027D01*
X049086Y040304D01*
X049026Y040316D01*
X04885D01*
Y04D01*
X04875D01*
Y040316D01*
X048574D01*
X048553Y040311D01*
X048503Y040352D01*
Y040622D01*
X048867D01*
Y04085D01*
Y041078D01*
X04845D01*
Y041697D01*
X049361D01*
X049381Y041647D01*
D02*
G37*
G36*
X044204D02*
X044196Y041636D01*
X044184Y041576D01*
Y0414D01*
X0445D01*
Y04135D01*
X04455D01*
Y040967D01*
X044659D01*
X044719Y040979D01*
X04477Y041013D01*
X044773Y041018D01*
X044841Y041029D01*
X04485Y041022D01*
Y040868D01*
X044841Y040822D01*
X044259D01*
Y040078D01*
X044841D01*
X04485Y040032D01*
Y037922D01*
X044784D01*
Y03755D01*
X044734D01*
D01*
X044784D01*
Y037178D01*
X04485D01*
Y036025D01*
X04422D01*
Y035728D01*
Y035431D01*
X048018D01*
Y035728D01*
X048118D01*
Y035431D01*
X048286D01*
Y0357D01*
X04845D01*
Y036597D01*
X049541D01*
X0496Y036609D01*
X04965Y036642D01*
X049708Y0367D01*
X049741Y03675D01*
X049753Y036809D01*
Y03898D01*
X049826D01*
X049886Y038992D01*
X049897Y038999D01*
X049947Y038972D01*
Y026889D01*
X049897Y026869D01*
X049846Y02692D01*
X049754Y026973D01*
X049653Y027D01*
X04965D01*
Y0266D01*
X0496D01*
Y02655D01*
X0492D01*
Y026547D01*
X049227Y026446D01*
X04928Y026354D01*
X049285Y026349D01*
X049266Y026303D01*
X0489D01*
Y028817D01*
X048959D01*
X049019Y028829D01*
X04907Y028863D01*
X049104Y028914D01*
X049116Y028974D01*
Y029426D01*
X049104Y029486D01*
X04907Y029537D01*
X049019Y029571D01*
X048959Y029583D01*
X048641D01*
X048581Y029571D01*
X04853Y029537D01*
X048506Y0295D01*
X048341D01*
Y029572D01*
X048221D01*
Y029841D01*
X048286D01*
Y030435D01*
X047685D01*
Y030138D01*
Y029841D01*
X047915D01*
Y029572D01*
X047759D01*
Y0295D01*
X047609D01*
Y029572D01*
X047027D01*
Y029344D01*
X046959D01*
X0469Y029333D01*
X04685Y0293D01*
X046792Y029241D01*
X046759Y029191D01*
X046747Y029133D01*
Y027795D01*
X046713Y027772D01*
X046679Y027722D01*
X046667Y027662D01*
Y027343D01*
X046679Y027283D01*
X046713Y027232D01*
X046764Y027199D01*
X046824Y027187D01*
X047276D01*
X047288Y027177D01*
Y027158D01*
X047242Y027113D01*
X0471D01*
Y026798D01*
Y026482D01*
X047276D01*
X0473Y026463D01*
Y026303D01*
X021439D01*
X021419Y026353D01*
X02147Y026404D01*
X021523Y026496D01*
X02155Y026597D01*
Y0266D01*
X02115D01*
Y02665D01*
X0211D01*
Y02705D01*
X021097D01*
X020996Y027023D01*
X020904Y02697D01*
X020853Y026919D01*
X020803Y026939D01*
Y041011D01*
X020853Y041031D01*
X020904Y04098D01*
X020996Y040927D01*
X021097Y0409D01*
X0211D01*
Y0413D01*
X02115D01*
Y04135D01*
X02155D01*
Y041353D01*
X021523Y041454D01*
X02147Y041546D01*
X021396Y04162D01*
X021349Y041647D01*
X021362Y041697D01*
X031819D01*
X031855Y041647D01*
X031846Y0416D01*
X031862Y041522D01*
X031906Y041456D01*
X031972Y041412D01*
X03205Y041396D01*
X03354D01*
Y040948D01*
X033048D01*
Y040701D01*
X032709D01*
X03265Y040689D01*
X0326Y040656D01*
X032542Y040597D01*
X032509Y040548D01*
X032497Y040489D01*
X032509Y040431D01*
X032542Y040381D01*
X032591Y040348D01*
X03265Y040336D01*
X032709Y040348D01*
X032758Y040381D01*
X032772Y040395D01*
X033048D01*
Y040148D01*
X034439D01*
Y040246D01*
X034955D01*
Y039865D01*
X035745D01*
Y040246D01*
X036327D01*
X036329Y040233D01*
X036363Y040182D01*
X036414Y040149D01*
X036474Y040137D01*
X036926D01*
X036986Y040149D01*
X037037Y040182D01*
X037071Y040233D01*
X037073Y040246D01*
X037227D01*
X037229Y040233D01*
X037263Y040182D01*
X037314Y040149D01*
X037374Y040137D01*
X037826D01*
X037886Y040149D01*
X037937Y040182D01*
X037971Y040233D01*
X037973Y040246D01*
X038126D01*
X038129Y040231D01*
X038163Y04018D01*
X038214Y040146D01*
X038274Y040134D01*
X038726D01*
X038786Y040146D01*
X038837Y04018D01*
X038871Y040231D01*
X038874Y040246D01*
X039026D01*
X039029Y040231D01*
X039063Y04018D01*
X039114Y040146D01*
X039174Y040134D01*
X039626D01*
X039686Y040146D01*
X039737Y04018D01*
X039771Y040231D01*
X039774Y040246D01*
X039926D01*
X039929Y040231D01*
X039963Y04018D01*
X040014Y040146D01*
X040074Y040134D01*
X040526D01*
X040586Y040146D01*
X040637Y04018D01*
X040671Y040231D01*
X040674Y040246D01*
X043527D01*
Y040078D01*
X044109D01*
Y040822D01*
X043948D01*
Y040967D01*
X043955D01*
X044014Y040979D01*
X044065Y041013D01*
X044099Y041064D01*
X044111Y041124D01*
Y041576D01*
X044099Y041636D01*
X044092Y041647D01*
X044118Y041697D01*
X044177D01*
X044204Y041647D01*
D02*
G37*
%LPC*%
G36*
X0496Y0413D02*
X04925D01*
Y041297D01*
X049277Y041196D01*
X04933Y041104D01*
X049404Y04103D01*
X049496Y040977D01*
X049597Y04095D01*
X0496D01*
Y0413D01*
D02*
G37*
G36*
X049154Y041078D02*
X048967D01*
Y0409D01*
X049154D01*
Y041078D01*
D02*
G37*
G36*
Y0408D02*
X048967D01*
Y040622D01*
X049154D01*
Y0408D01*
D02*
G37*
G36*
X04445Y0413D02*
X044184D01*
Y041124D01*
X044196Y041064D01*
X04423Y041013D01*
X044281Y040979D01*
X044341Y040967D01*
X04445D01*
Y0413D01*
D02*
G37*
G36*
X02155Y04125D02*
X0212D01*
Y0409D01*
X021203D01*
X021304Y040927D01*
X021396Y04098D01*
X02147Y041054D01*
X021523Y041146D01*
X02155Y041247D01*
Y04125D01*
D02*
G37*
G36*
X028152Y040948D02*
X026761D01*
Y040148D01*
X028152D01*
Y040948D01*
D02*
G37*
G36*
X037826Y040063D02*
X03765D01*
Y039798D01*
X037983D01*
Y039907D01*
X037971Y039967D01*
X037937Y040017D01*
X037886Y040051D01*
X037826Y040063D01*
D02*
G37*
G36*
X03755D02*
X037374D01*
X037314Y040051D01*
X037263Y040017D01*
X037229Y039967D01*
X037217Y039907D01*
Y039798D01*
X03755D01*
Y040063D01*
D02*
G37*
G36*
X036926Y040063D02*
X03675D01*
Y039798D01*
X037083D01*
Y039907D01*
X037071Y039967D01*
X037037Y040017D01*
X036986Y040051D01*
X036926Y040063D01*
D02*
G37*
G36*
X03665D02*
X036474D01*
X036414Y040051D01*
X036363Y040017D01*
X036329Y039967D01*
X036317Y039907D01*
Y039798D01*
X03665D01*
Y040063D01*
D02*
G37*
G36*
X040526Y040061D02*
X04035D01*
Y039795D01*
X040683D01*
Y039905D01*
X040671Y039964D01*
X040637Y040015D01*
X040586Y040049D01*
X040526Y040061D01*
D02*
G37*
G36*
X039626D02*
X03945D01*
Y039795D01*
X039783D01*
Y039905D01*
X039771Y039964D01*
X039737Y040015D01*
X039686Y040049D01*
X039626Y040061D01*
D02*
G37*
G36*
X038726D02*
X03855D01*
Y039795D01*
X038883D01*
Y039905D01*
X038871Y039964D01*
X038837Y040015D01*
X038786Y040049D01*
X038726Y040061D01*
D02*
G37*
G36*
X04025D02*
X040074D01*
X040014Y040049D01*
X039963Y040015D01*
X039929Y039964D01*
X039917Y039905D01*
Y039795D01*
X04025D01*
Y040061D01*
D02*
G37*
G36*
X03935D02*
X039174D01*
X039114Y040049D01*
X039063Y040015D01*
X039029Y039964D01*
X039017Y039905D01*
Y039795D01*
X03935D01*
Y040061D01*
D02*
G37*
G36*
X03845D02*
X038274D01*
X038214Y040049D01*
X038163Y040015D01*
X038129Y039964D01*
X038117Y039905D01*
Y039795D01*
X03845D01*
Y040061D01*
D02*
G37*
G36*
X034439Y039948D02*
X033794D01*
Y039598D01*
X034439D01*
Y039948D01*
D02*
G37*
G36*
X033694D02*
X033048D01*
Y039598D01*
X033694D01*
Y039948D01*
D02*
G37*
G36*
X037083Y039698D02*
X03675D01*
Y039432D01*
X036926D01*
X036986Y039444D01*
X037037Y039478D01*
X037071Y039528D01*
X037083Y039588D01*
Y039698D01*
D02*
G37*
G36*
X03665D02*
X036317D01*
Y039588D01*
X036329Y039528D01*
X036363Y039478D01*
X036414Y039444D01*
X036474Y039432D01*
X03665D01*
Y039698D01*
D02*
G37*
G36*
X037983Y039698D02*
X03765D01*
Y039432D01*
X037826D01*
X037886Y039444D01*
X037937Y039478D01*
X037971Y039528D01*
X037983Y039588D01*
Y039698D01*
D02*
G37*
G36*
X03755D02*
X037217D01*
Y039588D01*
X037229Y039528D01*
X037263Y039478D01*
X037314Y039444D01*
X037374Y039432D01*
X03755D01*
Y039698D01*
D02*
G37*
G36*
X040683Y039695D02*
X04035D01*
Y03943D01*
X040526D01*
X040586Y039442D01*
X040637Y039475D01*
X040671Y039526D01*
X040683Y039586D01*
Y039695D01*
D02*
G37*
G36*
X04025D02*
X039917D01*
Y039586D01*
X039929Y039526D01*
X039963Y039475D01*
X040014Y039442D01*
X040074Y03943D01*
X04025D01*
Y039695D01*
D02*
G37*
G36*
X039783D02*
X03945D01*
Y03943D01*
X039626D01*
X039686Y039442D01*
X039737Y039475D01*
X039771Y039526D01*
X039783Y039586D01*
Y039695D01*
D02*
G37*
G36*
X03935D02*
X039017D01*
Y039586D01*
X039029Y039526D01*
X039063Y039475D01*
X039114Y039442D01*
X039174Y03943D01*
X03935D01*
Y039695D01*
D02*
G37*
G36*
X038883D02*
X03855D01*
Y03943D01*
X038726D01*
X038786Y039442D01*
X038837Y039475D01*
X038871Y039526D01*
X038883Y039586D01*
Y039695D01*
D02*
G37*
G36*
X03845D02*
X038117D01*
Y039586D01*
X038129Y039526D01*
X038163Y039475D01*
X038214Y039442D01*
X038274Y03943D01*
X03845D01*
Y039695D01*
D02*
G37*
G36*
X034439Y039498D02*
X033794D01*
Y039148D01*
X034439D01*
Y039498D01*
D02*
G37*
G36*
X033694D02*
X033048D01*
Y039148D01*
X033694D01*
Y039498D01*
D02*
G37*
G36*
X028152Y039948D02*
X026761D01*
Y039148D01*
X028152D01*
Y039948D01*
D02*
G37*
G36*
X035745Y039235D02*
X0354D01*
Y038767D01*
X035745D01*
Y039235D01*
D02*
G37*
G36*
X0353D02*
X034955D01*
Y038767D01*
X0353D01*
Y039235D01*
D02*
G37*
G36*
X035745Y038667D02*
X0354D01*
Y0382D01*
X035745D01*
Y038667D01*
D02*
G37*
G36*
X0353D02*
X034955D01*
Y0382D01*
X0353D01*
Y038667D01*
D02*
G37*
G36*
X034439Y038948D02*
X033048D01*
Y038148D01*
X034439D01*
Y038948D01*
D02*
G37*
G36*
X028152D02*
X026761D01*
Y038148D01*
X028152D01*
Y038948D01*
D02*
G37*
G36*
X044684Y037922D02*
X044443D01*
Y0376D01*
X044684D01*
Y037922D01*
D02*
G37*
G36*
X028152Y037948D02*
X026761D01*
Y037251D01*
X025816D01*
X02572Y037346D01*
X025698Y037399D01*
X025649Y037448D01*
X025585Y037475D01*
X025515D01*
X025451Y037448D01*
X025402Y037399D01*
X025375Y037335D01*
Y037265D01*
X025402Y037201D01*
X025451Y037152D01*
X025504Y03713D01*
X025644Y036989D01*
X025694Y036956D01*
X025752Y036945D01*
X026761D01*
Y036451D01*
X026698D01*
X026639Y036439D01*
X026589Y036406D01*
X025192Y035008D01*
X025159Y034959D01*
X025147Y0349D01*
Y032045D01*
X024968D01*
X024918Y032035D01*
X024875Y032006D01*
X024847Y031963D01*
X024837Y031913D01*
Y031739D01*
X024847Y031689D01*
X024875Y031646D01*
X024918Y031617D01*
X024968Y031607D01*
X025046D01*
Y031127D01*
X024991Y031072D01*
X024625D01*
Y030328D01*
X024586Y030303D01*
X024514D01*
X024475Y030328D01*
Y031072D01*
X023893D01*
Y030853D01*
X023122D01*
Y030991D01*
X022378D01*
Y030409D01*
X023122D01*
Y030547D01*
X023893D01*
Y030328D01*
X024031D01*
Y030209D01*
X024043Y03015D01*
X024076Y0301D01*
X024134Y030042D01*
X024184Y030009D01*
X024232Y029999D01*
X024242Y029997D01*
X024278Y029968D01*
X024278Y029947D01*
Y02975D01*
X02465D01*
Y0297D01*
X0247D01*
Y029409D01*
X024985D01*
X025022Y029409D01*
X025065Y029425D01*
X025772D01*
Y029563D01*
X025816D01*
X025875Y029575D01*
X025924Y029608D01*
X025951Y029635D01*
X025997Y029615D01*
Y029113D01*
X025818Y028934D01*
X025772Y028953D01*
Y029275D01*
X025028D01*
X025022Y029259D01*
X024278D01*
Y029121D01*
X024061D01*
X024003Y029109D01*
X023953Y029076D01*
X023896Y029019D01*
X023519D01*
X023469Y029009D01*
X023426Y02898D01*
X023398Y028937D01*
X023388Y028887D01*
Y028713D01*
X023398Y028663D01*
X023426Y02862D01*
X023451Y028603D01*
X023436Y028553D01*
X022813D01*
X022203Y029163D01*
X022154Y029196D01*
X022095Y029208D01*
X02203D01*
X022018Y029253D01*
X021966Y029343D01*
X021893Y029416D01*
X021803Y029468D01*
X021702Y029495D01*
X021598D01*
X021497Y029468D01*
X021407Y029416D01*
X021334Y029343D01*
X021282Y029253D01*
X021255Y029152D01*
Y029048D01*
X021282Y028947D01*
X021334Y028857D01*
X021407Y028784D01*
X021497Y028732D01*
X021598Y028705D01*
X021702D01*
X021803Y028732D01*
X021893Y028784D01*
X021966Y028857D01*
X021986Y028892D01*
X022038Y028896D01*
X022631Y028303D01*
X022617Y028259D01*
X022612Y028253D01*
X022045D01*
Y028495D01*
X021255D01*
Y027705D01*
X021881D01*
X021895Y027702D01*
X02191Y027705D01*
X022045D01*
Y02784D01*
X022048Y027855D01*
X022045Y02787D01*
Y027947D01*
X028088D01*
X028147Y027959D01*
X028196Y027992D01*
X028255Y02805D01*
X028288Y0281D01*
X0283Y028159D01*
Y029103D01*
X028288Y029162D01*
X028255Y029211D01*
X028058Y029408D01*
X028009Y029441D01*
X02795Y029453D01*
X027872D01*
Y029691D01*
X027653D01*
Y029939D01*
X027703Y029954D01*
X027722Y029926D01*
X027765Y029898D01*
X027788Y029893D01*
X027795Y029855D01*
X027828Y029805D01*
X02828Y029353D01*
X02833Y02932D01*
X028367Y029313D01*
Y029191D01*
X028379Y029131D01*
X028413Y02908D01*
X028464Y029046D01*
X028524Y029034D01*
X028976D01*
X029036Y029046D01*
X029087Y02908D01*
X029121Y029131D01*
X029128Y02917D01*
X029178Y029165D01*
Y029091D01*
X029922D01*
Y029673D01*
X029178D01*
Y029535D01*
X029128Y02953D01*
X029121Y029569D01*
X029087Y02962D01*
X029036Y029654D01*
X028976Y029666D01*
X028524D01*
X028464Y029654D01*
X028433Y029633D01*
X028105Y029961D01*
X028111Y029969D01*
X028121Y030019D01*
Y030481D01*
X028111Y030531D01*
X028082Y030574D01*
X028039Y030602D01*
X027989Y030612D01*
X027815D01*
X027765Y030602D01*
X027722Y030574D01*
X027703Y030546D01*
X027653Y030561D01*
Y030896D01*
X028057D01*
Y030818D01*
X028067Y030768D01*
X028096Y030725D01*
X028139Y030697D01*
X028189Y030687D01*
X028363D01*
X028413Y030697D01*
X028456Y030725D01*
X028485Y030768D01*
X028495Y030818D01*
Y03128D01*
X028485Y03133D01*
X028456Y031373D01*
X028413Y031402D01*
X028363Y031412D01*
X028189D01*
X028139Y031402D01*
X028096Y031373D01*
X028067Y03133D01*
X028057Y03128D01*
Y031202D01*
X027664D01*
X027653Y031213D01*
Y033148D01*
X028152D01*
Y033948D01*
X026761D01*
Y033148D01*
X027347D01*
Y03115D01*
Y029691D01*
X027128D01*
Y02924D01*
X027082Y029221D01*
X026603Y0297D01*
Y033412D01*
X026625Y033465D01*
Y033535D01*
X026598Y033599D01*
X026549Y033648D01*
X026485Y033675D01*
X026415D01*
X026351Y033648D01*
X026349Y033647D01*
X026303Y033666D01*
Y034237D01*
X026463Y034397D01*
X026761D01*
Y034148D01*
X028152D01*
Y034217D01*
X028198Y034236D01*
X028297Y034137D01*
Y032675D01*
X028309Y032617D01*
X028342Y032567D01*
X029757Y031152D01*
Y03097D01*
X029757Y030968D01*
X029757Y030966D01*
Y030918D01*
X029767Y030868D01*
X029796Y030825D01*
X029839Y030797D01*
X029889Y030787D01*
X030063D01*
X030113Y030797D01*
X030156Y030825D01*
X030185Y030868D01*
X030195Y030918D01*
Y03138D01*
X030185Y03143D01*
X030156Y031473D01*
X030113Y031502D01*
X030063Y031512D01*
X029889D01*
X02984Y031502D01*
X028603Y032739D01*
Y0342D01*
X028591Y034259D01*
X028558Y034308D01*
X028251Y034615D01*
X028202Y034648D01*
X028152Y034658D01*
Y034948D01*
X026761D01*
Y034703D01*
X0264D01*
X026341Y034691D01*
X026292Y034658D01*
X026149Y034515D01*
X026103Y034535D01*
Y034637D01*
X026715Y035248D01*
X026761Y035229D01*
Y035148D01*
X028152D01*
Y035948D01*
X026761D01*
Y035671D01*
X026711Y035661D01*
X026661Y035628D01*
X025842Y034808D01*
X025809Y034759D01*
X025797Y0347D01*
Y033666D01*
X025751Y033647D01*
X025749Y033648D01*
X025685Y033675D01*
X025615D01*
X025551Y033648D01*
X025503Y0336D01*
X025496Y033601D01*
X025453Y033612D01*
Y034837D01*
X026761Y036145D01*
X027206D01*
X027221Y036148D01*
X028152D01*
Y036947D01*
X028962D01*
X029015Y036925D01*
X029085D01*
X029149Y036952D01*
X029198Y037001D01*
X029225Y037065D01*
Y037135D01*
X029198Y037199D01*
X029149Y037248D01*
X029085Y037275D01*
X029015D01*
X028962Y037253D01*
X028152D01*
Y037948D01*
D02*
G37*
G36*
X044684Y0375D02*
X044443D01*
Y037178D01*
X044684D01*
Y0375D01*
D02*
G37*
G36*
X034439Y037948D02*
X033048D01*
Y037148D01*
X034439D01*
Y037948D01*
D02*
G37*
G36*
X039025Y037128D02*
X038329D01*
X03827Y037116D01*
X038221Y037083D01*
X038106Y036968D01*
X038053Y036946D01*
X038004Y036897D01*
X037977Y036833D01*
Y036763D01*
X038004Y036699D01*
X038005Y036697D01*
X037986Y036651D01*
X03724D01*
X037187Y036673D01*
X037117D01*
X037053Y036646D01*
X037004Y036597D01*
X036977Y036533D01*
Y036463D01*
X037004Y036399D01*
X037053Y03635D01*
X037117Y036323D01*
X037187D01*
X03724Y036345D01*
X038424D01*
X038439Y036295D01*
X038408Y036274D01*
X035975Y033841D01*
X035965D01*
X035901Y033815D01*
X035852Y033766D01*
X035825Y033701D01*
Y033632D01*
X035852Y033567D01*
X035901Y033518D01*
X035965Y033491D01*
X036035D01*
X036099Y033518D01*
X036148Y033567D01*
X036159Y033593D01*
X038579Y036013D01*
X042653D01*
Y035881D01*
X039812D01*
X039753Y03587D01*
X039704Y035836D01*
X037704Y033837D01*
X037651Y033815D01*
X037602Y033766D01*
X037575Y033701D01*
Y033632D01*
X037602Y033567D01*
X037651Y033518D01*
X037715Y033491D01*
X037785D01*
X037849Y033518D01*
X037898Y033567D01*
X03792Y033621D01*
X039875Y035575D01*
X042653D01*
Y035519D01*
X041317D01*
X041258Y035508D01*
X041208Y035475D01*
X039454Y03372D01*
X039401Y033698D01*
X039352Y033649D01*
X039325Y033585D01*
Y033515D01*
X039352Y033451D01*
X039401Y033402D01*
X03941Y033358D01*
X037255Y031203D01*
X034433D01*
X034374Y031191D01*
X034324Y031158D01*
X034266Y0311D01*
X034233Y03105D01*
X034221Y030991D01*
Y030842D01*
X034194Y030823D01*
X034165Y030781D01*
X034155Y03073D01*
Y030269D01*
X034165Y030218D01*
X034194Y030176D01*
X034237Y030147D01*
X034287Y030137D01*
X034461D01*
X034511Y030147D01*
X034554Y030176D01*
X034583Y030218D01*
X034593Y030269D01*
Y03073D01*
X034583Y030781D01*
X034554Y030823D01*
X034527Y030842D01*
Y030897D01*
X034901D01*
X034928Y030847D01*
X034917Y030831D01*
X034907Y03078D01*
Y0306D01*
X035126D01*
X035345D01*
Y03078D01*
X035335Y030831D01*
X035324Y030847D01*
X03535Y030897D01*
X03565D01*
X035676Y030847D01*
X035665Y030831D01*
X035655Y03078D01*
Y030319D01*
X035665Y030268D01*
X035694Y030226D01*
X035737Y030197D01*
X035787Y030187D01*
X035961D01*
X036011Y030197D01*
X036054Y030226D01*
X036083Y030268D01*
X036093Y030319D01*
Y030397D01*
X037101D01*
X037159Y030408D01*
X037209Y030441D01*
X0385Y031733D01*
X038546Y031714D01*
Y031447D01*
X03875D01*
Y031701D01*
X0388D01*
Y031751D01*
X039054D01*
Y031947D01*
X039437D01*
X039679Y031705D01*
X039669Y031656D01*
X039651Y031648D01*
X039602Y031599D01*
X039575Y031535D01*
Y031465D01*
X039597Y031412D01*
Y030953D01*
X039428D01*
Y031053D01*
X03892D01*
Y030546D01*
X039428D01*
Y030647D01*
X039597D01*
Y029763D01*
X039427Y029593D01*
X039377Y029601D01*
Y029929D01*
X039353D01*
Y030162D01*
X039375Y030215D01*
Y030285D01*
X039348Y030349D01*
X039299Y030398D01*
X039235Y030425D01*
X039165D01*
X039101Y030398D01*
X039052Y030349D01*
X039025Y030285D01*
Y030215D01*
X039047Y030162D01*
Y029929D01*
X038823D01*
Y029571D01*
Y029325D01*
X038783Y029285D01*
X038768Y029285D01*
X038724Y029297D01*
X038708Y029321D01*
Y029571D01*
Y029929D01*
X038584D01*
Y030143D01*
X038606Y030196D01*
Y030266D01*
X038579Y03033D01*
X03853Y030379D01*
X038466Y030406D01*
X038396D01*
X038332Y030379D01*
X038282Y03033D01*
X038256Y030266D01*
Y030196D01*
X038278Y030143D01*
Y029929D01*
X038154D01*
Y029577D01*
X038135Y029568D01*
X038104Y029563D01*
X037953Y029713D01*
Y030362D01*
X03797Y030404D01*
X038116Y03055D01*
X038172D01*
Y030546D01*
X03868D01*
Y031053D01*
X038172D01*
Y030856D01*
X038053D01*
X037994Y030844D01*
X037945Y030811D01*
X037754Y03062D01*
X037701Y030598D01*
X037652Y030549D01*
X037625Y030485D01*
Y030415D01*
X037647Y030362D01*
Y029762D01*
X037604Y029751D01*
X037597Y02975D01*
X037549Y029798D01*
X037485Y029825D01*
X037415D01*
X037351Y029798D01*
X037302Y029749D01*
X037275Y029685D01*
Y029615D01*
X037302Y029551D01*
X037351Y029502D01*
X037404Y02948D01*
X038192Y028692D01*
Y028519D01*
X038166D01*
Y028415D01*
X038116Y028391D01*
X038086Y028414D01*
X038016Y028443D01*
X037941Y028452D01*
X037922D01*
Y028163D01*
Y027874D01*
X037941D01*
X038016Y027883D01*
X038086Y027912D01*
X038116Y027935D01*
X038166Y027911D01*
Y027787D01*
X039318D01*
Y028153D01*
Y028519D01*
X039004D01*
Y029102D01*
X039158Y029256D01*
X039377D01*
Y029282D01*
X039485D01*
X039544Y029294D01*
X039593Y029327D01*
X039858Y029592D01*
X039891Y029641D01*
X039903Y0297D01*
Y03141D01*
X039914Y031421D01*
X039955Y031429D01*
X04118Y030204D01*
X041202Y030151D01*
X041251Y030102D01*
X041315Y030075D01*
X041385D01*
X041422Y03005D01*
Y029591D01*
X041434Y029533D01*
X041467Y029483D01*
X041925Y029024D01*
Y029007D01*
X041928Y028992D01*
Y028575D01*
X042672D01*
Y029157D01*
X042212D01*
X042186Y029196D01*
X041728Y029654D01*
Y032347D01*
X042003D01*
Y031849D01*
Y031416D01*
Y030983D01*
Y03055D01*
X042597D01*
Y030983D01*
Y031416D01*
Y031849D01*
Y032282D01*
Y032715D01*
Y033148D01*
Y033581D01*
Y034014D01*
Y034447D01*
Y03488D01*
Y035048D01*
X0423D01*
X042003D01*
Y034818D01*
X041801D01*
X041785Y034825D01*
X041715D01*
X041651Y034798D01*
X041602Y034749D01*
X041575Y034685D01*
Y034615D01*
X041602Y034551D01*
X041651Y034502D01*
X041715Y034475D01*
X041785D01*
X041849Y034502D01*
X04186Y034512D01*
X042003D01*
Y033952D01*
X040184D01*
X040165Y033998D01*
X040625Y034459D01*
X040675Y034438D01*
Y034415D01*
X040702Y034351D01*
X040751Y034302D01*
X0408Y034281D01*
Y03445D01*
X04085D01*
Y0345D01*
X041019D01*
X040998Y034549D01*
X040949Y034598D01*
X040885Y034625D01*
X040862D01*
X040841Y034675D01*
X04138Y035214D01*
X042003D01*
Y035148D01*
X0423D01*
X042597D01*
Y035214D01*
X042826D01*
X042869Y035198D01*
X042869Y035164D01*
X042869Y034614D01*
X04283Y034588D01*
X04283Y034579D01*
Y034113D01*
Y03364D01*
Y033168D01*
Y032695D01*
Y032223D01*
Y03175D01*
X04283Y031278D01*
X042869Y031252D01*
X042869Y031228D01*
Y030668D01*
X043361D01*
X043389Y030618D01*
X043375Y030585D01*
Y030515D01*
X043388Y030485D01*
X043354Y030435D01*
X042653D01*
Y029841D01*
X043149D01*
Y028643D01*
X04313Y028596D01*
X042821Y028287D01*
X042672D01*
Y028425D01*
X041928D01*
Y027891D01*
X041755D01*
Y027353D01*
X041545D01*
Y027485D01*
X040755D01*
Y026798D01*
X040491D01*
X040468Y026842D01*
X040472Y026849D01*
X040492Y026947D01*
Y02705D01*
X040234D01*
X039977D01*
Y026947D01*
X039996Y026849D01*
X040001Y026842D01*
X039977Y026798D01*
X039645D01*
Y02705D01*
X03925D01*
Y0271D01*
X0392D01*
Y027505D01*
X038513D01*
Y0271D01*
X038463D01*
Y02705D01*
X038067D01*
Y026798D01*
X037735D01*
X037712Y026842D01*
X037716Y026849D01*
X037736Y026947D01*
Y02705D01*
X037478D01*
X037221D01*
Y026947D01*
X03724Y026849D01*
X037245Y026842D01*
X037222Y026798D01*
X034929D01*
X03491Y026844D01*
X034954Y026888D01*
X034987Y026937D01*
X034999Y026996D01*
Y027115D01*
X035162D01*
Y027885D01*
X034529D01*
Y027115D01*
X034693D01*
Y027059D01*
X034687Y027053D01*
X033113D01*
X033048Y027118D01*
X033067Y027165D01*
X033112D01*
Y027935D01*
X032949D01*
Y029754D01*
X032937Y029813D01*
X032904Y029862D01*
X02922Y033546D01*
X029198Y033599D01*
X029149Y033648D01*
X029085Y033675D01*
X029015D01*
X028951Y033648D01*
X028902Y033599D01*
X028875Y033535D01*
Y033465D01*
X028902Y033401D01*
X028951Y033352D01*
X029004Y03333D01*
X030772Y031562D01*
X030751Y031512D01*
X030637D01*
X030587Y031502D01*
X030544Y031473D01*
X030515Y03143D01*
X030505Y03138D01*
Y030918D01*
X030515Y030868D01*
X030544Y030825D01*
X030587Y030797D01*
X030637Y030787D01*
X030726D01*
X030971Y030542D01*
X030997Y030525D01*
Y029668D01*
X030924D01*
X030864Y029656D01*
X030822Y029628D01*
X030791Y029637D01*
X030772Y02965D01*
Y029673D01*
X03053D01*
X030508Y029723D01*
X030525Y029765D01*
Y029835D01*
X030503Y029888D01*
Y030008D01*
X03053Y030026D01*
X030559Y030069D01*
X030569Y030119D01*
Y030581D01*
X030559Y030631D01*
X03053Y030674D01*
X030487Y030702D01*
X030437Y030712D01*
X030263D01*
X030213Y030702D01*
X03017Y030674D01*
X030141Y030631D01*
X030131Y030581D01*
Y030119D01*
X030141Y030069D01*
X03017Y030026D01*
X030197Y030008D01*
Y029888D01*
X030175Y029835D01*
Y029765D01*
X030192Y029723D01*
X03017Y029673D01*
X030028D01*
Y029091D01*
X030772D01*
X030772Y029091D01*
X030817Y02908D01*
X030864Y029049D01*
X030924Y029037D01*
X031376D01*
X031436Y029049D01*
X031487Y029083D01*
X031521Y029133D01*
X031528Y029172D01*
X031578Y029167D01*
Y029041D01*
X032322D01*
X032347Y029002D01*
Y02893D01*
X032322Y028891D01*
X031578D01*
Y028833D01*
X031528Y028828D01*
X031521Y028867D01*
X031487Y028918D01*
X031436Y028951D01*
X031376Y028963D01*
X030924D01*
X030864Y028951D01*
X030822Y028923D01*
X030816Y028925D01*
X030772Y028941D01*
X030772Y028941D01*
X030772Y028941D01*
X030028D01*
Y028803D01*
X029922D01*
Y028941D01*
X029178D01*
Y028831D01*
X029128Y028826D01*
X029121Y028864D01*
X029087Y028915D01*
X029036Y028949D01*
X028976Y028961D01*
X028524D01*
X028464Y028949D01*
X028413Y028915D01*
X028379Y028864D01*
X028367Y028805D01*
Y028486D01*
X028379Y028426D01*
X028413Y028375D01*
X028464Y028342D01*
X028524Y02833D01*
X028976D01*
X029036Y028342D01*
X029087Y028375D01*
X029121Y028426D01*
X029128Y028465D01*
X029178Y02846D01*
Y028359D01*
X029922D01*
Y028497D01*
X030028D01*
Y028359D01*
X030772D01*
X030772Y028359D01*
X030822Y028372D01*
X030864Y028344D01*
X030924Y028332D01*
X030997D01*
Y0281D01*
X031009Y028041D01*
X031042Y027992D01*
X032497Y026537D01*
X032547Y026504D01*
X032605Y026492D01*
X040755D01*
Y02645D01*
X041545D01*
Y027047D01*
X041755D01*
Y026509D01*
X042929D01*
Y027891D01*
X042672D01*
Y027981D01*
X042884D01*
X042942Y027993D01*
X042992Y028026D01*
X043346Y02838D01*
X043399Y028402D01*
X043448Y028451D01*
X043475Y028515D01*
Y028585D01*
X043455Y028633D01*
Y029841D01*
X043584D01*
Y029679D01*
X043569Y029641D01*
Y029572D01*
X043595Y029507D01*
X043644Y029458D01*
X043709Y029432D01*
X043778D01*
X043843Y029458D01*
X043892Y029507D01*
X043918Y029572D01*
Y029641D01*
X043892Y029706D01*
X04389Y029708D01*
Y029841D01*
X044553D01*
Y030138D01*
X044653D01*
Y029841D01*
X047585D01*
Y030138D01*
Y030435D01*
X044697D01*
X044677Y030485D01*
X044699Y03054D01*
Y030609D01*
X044696Y030618D01*
X044729Y030668D01*
X048069D01*
X048069Y031252D01*
X048109Y031278D01*
X048109Y031287D01*
Y03175D01*
Y032223D01*
Y032695D01*
Y032883D01*
X047812D01*
X047515D01*
Y032695D01*
Y032223D01*
Y03175D01*
X047515Y031278D01*
X047472Y031261D01*
X043467D01*
X043424Y031278D01*
X043424Y031311D01*
Y03175D01*
Y032223D01*
Y032695D01*
Y033168D01*
Y03364D01*
Y034113D01*
X043424Y034588D01*
X043467Y034605D01*
X045892D01*
Y034902D01*
Y035198D01*
X043787D01*
X043772Y035248D01*
X043787Y035258D01*
X043845Y035317D01*
X043878Y035367D01*
X04389Y035425D01*
Y035431D01*
X04412D01*
Y035728D01*
Y036025D01*
X043457D01*
Y036107D01*
X043445Y036166D01*
X043412Y036215D01*
X043354Y036274D01*
X043304Y036307D01*
X043245Y036319D01*
X040182D01*
X040156Y036369D01*
X040175Y036415D01*
Y036485D01*
X040148Y036549D01*
X040099Y036598D01*
X040035Y036625D01*
X039965D01*
X039912Y036603D01*
X039416D01*
X039397Y036649D01*
X039398Y036651D01*
X039425Y036715D01*
Y036785D01*
X039398Y036849D01*
X039349Y036898D01*
X039296Y03692D01*
X039133Y037083D01*
X039084Y037116D01*
X039025Y037128D01*
D02*
G37*
G36*
X034439Y036948D02*
X033048D01*
Y036148D01*
X034439D01*
Y036948D01*
D02*
G37*
G36*
Y035948D02*
X033048D01*
Y035148D01*
X034439D01*
Y035948D01*
D02*
G37*
G36*
X047309Y035198D02*
X046937D01*
Y034902D01*
Y034605D01*
X047309D01*
Y034902D01*
Y035198D01*
D02*
G37*
G36*
X046837D02*
X046464D01*
Y034902D01*
Y034605D01*
X046837D01*
Y034902D01*
Y035198D01*
D02*
G37*
G36*
X046364D02*
X045992D01*
Y034902D01*
Y034605D01*
X046364D01*
Y034902D01*
Y035198D01*
D02*
G37*
G36*
X041019Y0344D02*
X0409D01*
Y034281D01*
X040949Y034302D01*
X040998Y034351D01*
X041019Y0344D01*
D02*
G37*
G36*
X047361Y03449D02*
X047173D01*
Y034243D01*
X047361D01*
Y03449D01*
D02*
G37*
G36*
X034439Y034948D02*
X033048D01*
Y034148D01*
X034439D01*
Y034948D01*
D02*
G37*
G36*
X048935Y035317D02*
X048342D01*
Y03488D01*
Y034447D01*
Y034014D01*
Y033581D01*
Y033416D01*
X048639D01*
X048935D01*
Y033581D01*
Y034079D01*
X049123D01*
X049151Y034052D01*
X049215Y034025D01*
X049285D01*
X049349Y034052D01*
X049398Y034101D01*
X049425Y034165D01*
Y034235D01*
X049398Y034299D01*
X049349Y034348D01*
X049285Y034375D01*
X049256D01*
X049204Y034385D01*
X048935D01*
Y03488D01*
Y035317D01*
D02*
G37*
G36*
X048069Y035198D02*
X047409D01*
Y034902D01*
Y034605D01*
X047472D01*
X047515Y034588D01*
X047515Y034555D01*
Y034113D01*
Y033928D01*
X047812D01*
X048109D01*
Y034113D01*
X048109Y034588D01*
X048069Y034614D01*
X048069Y034638D01*
Y035198D01*
D02*
G37*
G36*
X047361Y034143D02*
X047173D01*
Y033896D01*
X047361D01*
Y034143D01*
D02*
G37*
G36*
X048109Y033828D02*
X047812D01*
X047515D01*
Y03364D01*
Y033456D01*
X047812D01*
X048109D01*
Y03364D01*
Y033828D01*
D02*
G37*
G36*
X046534Y033643D02*
X046228D01*
Y033337D01*
X046534D01*
Y033643D01*
D02*
G37*
G36*
X047073Y03449D02*
X043578D01*
Y033896D01*
X044135D01*
Y03381D01*
X044125Y033785D01*
Y033715D01*
X044134Y033692D01*
X044101Y033643D01*
X043539D01*
Y033168D01*
Y032695D01*
Y032223D01*
X044098D01*
X044129Y032173D01*
X044113Y032135D01*
Y032065D01*
X044132Y03202D01*
X044112Y03197D01*
X043578D01*
Y031376D01*
X047073D01*
Y031673D01*
Y03197D01*
X044465D01*
X044444Y03202D01*
X044463Y032065D01*
Y032135D01*
X044447Y032173D01*
X044478Y032223D01*
X044711D01*
Y032529D01*
X044405D01*
Y032295D01*
X044355Y032262D01*
X044323Y032275D01*
X044253D01*
X044189Y032248D01*
X044182Y032242D01*
X044132Y032262D01*
Y032695D01*
Y033168D01*
Y0336D01*
X044182Y03362D01*
X044201Y033602D01*
X044265Y033575D01*
X044335D01*
X044355Y033583D01*
X044405Y03355D01*
Y033337D01*
X044711D01*
Y033643D01*
X044499D01*
X044466Y033693D01*
X044475Y033715D01*
Y033785D01*
X044448Y033849D01*
X044466Y033896D01*
X047073D01*
Y034193D01*
Y03449D01*
D02*
G37*
G36*
X046128Y033643D02*
X045519D01*
Y033287D01*
X045419D01*
Y033643D01*
X044811D01*
Y033287D01*
X044761D01*
Y033237D01*
X044405D01*
Y032931D01*
Y032629D01*
X044761D01*
Y032579D01*
X044811D01*
Y032223D01*
X045419D01*
Y032579D01*
X045519D01*
Y032223D01*
X046128D01*
Y032579D01*
X046178D01*
Y032629D01*
X046534D01*
Y032931D01*
Y033237D01*
X046178D01*
Y033287D01*
X046128D01*
Y033643D01*
D02*
G37*
G36*
X034439Y033948D02*
X033048D01*
Y033148D01*
X034439D01*
Y033948D01*
D02*
G37*
G36*
X048935Y033316D02*
X048639D01*
X048342D01*
Y033148D01*
Y032983D01*
X048639D01*
X048935D01*
Y033148D01*
Y033316D01*
D02*
G37*
G36*
X048109Y033356D02*
X047812D01*
X047515D01*
Y033168D01*
Y032983D01*
X047812D01*
X048109D01*
Y033168D01*
Y033356D01*
D02*
G37*
G36*
X021702Y033495D02*
X021598D01*
X021497Y033468D01*
X021407Y033416D01*
X021334Y033343D01*
X021282Y033253D01*
X021255Y033152D01*
Y033048D01*
X021282Y032947D01*
X021334Y032857D01*
X021407Y032784D01*
X021497Y032732D01*
X021598Y032705D01*
X021702D01*
X021803Y032732D01*
X021893Y032784D01*
X021966Y032857D01*
X022018Y032947D01*
X022045Y033048D01*
Y033152D01*
X022018Y033253D01*
X021966Y033343D01*
X021893Y033416D01*
X021803Y033468D01*
X021702Y033495D01*
D02*
G37*
G36*
X023972Y032557D02*
X023228D01*
Y032385D01*
X023172D01*
Y032557D01*
X022428D01*
Y031975D01*
X023172D01*
Y032079D01*
X023228D01*
Y031975D01*
X023972D01*
Y032047D01*
X024058D01*
X024076Y03202D01*
X024119Y031991D01*
X024169Y031981D01*
X024631D01*
X024681Y031991D01*
X024724Y03202D01*
X024752Y032063D01*
X024762Y032113D01*
Y032287D01*
X024752Y032337D01*
X024724Y03238D01*
X024681Y032409D01*
X024631Y032419D01*
X024169D01*
X024119Y032409D01*
X024076Y03238D01*
X024058Y032353D01*
X023972D01*
Y032557D01*
D02*
G37*
G36*
X046534Y032529D02*
X046228D01*
Y032223D01*
X046534D01*
Y032529D01*
D02*
G37*
G36*
X021702Y032495D02*
X0217D01*
Y03215D01*
X022045D01*
Y032152D01*
X022018Y032253D01*
X021966Y032343D01*
X021893Y032416D01*
X021803Y032468D01*
X021702Y032495D01*
D02*
G37*
G36*
X0216D02*
X021598D01*
X021497Y032468D01*
X021407Y032416D01*
X021334Y032343D01*
X021282Y032253D01*
X021255Y032152D01*
Y03215D01*
X0216D01*
Y032495D01*
D02*
G37*
G36*
X048935Y032883D02*
X048639D01*
X048342D01*
Y032715D01*
Y032282D01*
Y031849D01*
Y031684D01*
X048639D01*
X048935D01*
Y031914D01*
X049153D01*
X049207Y031892D01*
X049276D01*
X049341Y031919D01*
X04939Y031968D01*
X049416Y032032D01*
Y032102D01*
X04939Y032166D01*
X049341Y032215D01*
X049295Y032234D01*
X049287Y032237D01*
X049297Y032287D01*
X049304Y032287D01*
X049337D01*
X049401Y032314D01*
X04945Y032363D01*
X049477Y032428D01*
Y032497D01*
X04945Y032561D01*
X049401Y032611D01*
X049337Y032637D01*
X049267D01*
X049259Y032634D01*
X048935D01*
Y032883D01*
D02*
G37*
G36*
X047361Y03197D02*
X047173D01*
Y031723D01*
X047361D01*
Y03197D01*
D02*
G37*
G36*
X022045Y03205D02*
X0217D01*
Y031705D01*
X021702D01*
X021803Y031732D01*
X021893Y031784D01*
X021966Y031857D01*
X022018Y031947D01*
X022045Y032048D01*
Y03205D01*
D02*
G37*
G36*
X0216D02*
X021255D01*
Y032048D01*
X021282Y031947D01*
X021334Y031857D01*
X021407Y031784D01*
X021497Y031732D01*
X021598Y031705D01*
X0216D01*
Y03205D01*
D02*
G37*
G36*
X023972Y031825D02*
X02365D01*
Y031584D01*
X023972D01*
Y031825D01*
D02*
G37*
G36*
X02355D02*
X023228D01*
Y031584D01*
X02355D01*
Y031825D01*
D02*
G37*
G36*
X024631Y031671D02*
X02445D01*
Y031502D01*
X024762D01*
Y031539D01*
X024752Y031589D01*
X024724Y031632D01*
X024681Y031661D01*
X024631Y031671D01*
D02*
G37*
G36*
X02435D02*
X024169D01*
X024119Y031661D01*
X024076Y031632D01*
X024048Y031589D01*
X024038Y031539D01*
Y031502D01*
X02435D01*
Y031671D01*
D02*
G37*
G36*
X023172Y031825D02*
X022428D01*
Y031603D01*
X022D01*
X021941Y031591D01*
X021892Y031558D01*
X021802Y031468D01*
X021702Y031495D01*
X021598D01*
X021497Y031468D01*
X021407Y031416D01*
X021334Y031343D01*
X021282Y031253D01*
X021255Y031152D01*
Y031048D01*
X021282Y030947D01*
X021334Y030857D01*
X021407Y030784D01*
X021497Y030732D01*
X021598Y030705D01*
X021702D01*
X021803Y030732D01*
X021893Y030784D01*
X021966Y030857D01*
X022018Y030947D01*
X022045Y031048D01*
Y031152D01*
X022018Y031252D01*
X022063Y031297D01*
X022428D01*
Y031243D01*
X023172D01*
Y031825D01*
D02*
G37*
G36*
X039054Y031651D02*
X03885D01*
Y031447D01*
X039054D01*
Y031651D01*
D02*
G37*
G36*
X047361Y031623D02*
X047173D01*
Y031376D01*
X047361D01*
Y031623D01*
D02*
G37*
G36*
X036835Y033775D02*
X036765D01*
X036701Y033748D01*
X036652Y033699D01*
X036625Y033635D01*
Y033565D01*
X036647Y033512D01*
Y031588D01*
X036625Y031535D01*
Y031465D01*
X036652Y031401D01*
X036701Y031352D01*
X036765Y031325D01*
X036835D01*
X036899Y031352D01*
X036948Y031401D01*
X036975Y031465D01*
Y031535D01*
X036953Y031588D01*
Y033512D01*
X036975Y033565D01*
Y033635D01*
X036948Y033699D01*
X036899Y033748D01*
X036835Y033775D01*
D02*
G37*
G36*
X048935Y031584D02*
X048639D01*
X048342D01*
Y031416D01*
Y031251D01*
X048639D01*
X048935D01*
Y031416D01*
Y031584D01*
D02*
G37*
G36*
X023972Y031484D02*
X02365D01*
Y031243D01*
X023972D01*
Y031484D01*
D02*
G37*
G36*
X02355D02*
X023228D01*
Y031243D01*
X02355D01*
Y031484D01*
D02*
G37*
G36*
X024762Y031402D02*
X02445D01*
Y031233D01*
X024631D01*
X024681Y031243D01*
X024724Y031272D01*
X024752Y031315D01*
X024762Y031365D01*
Y031402D01*
D02*
G37*
G36*
X02435D02*
X024038D01*
Y031365D01*
X024048Y031315D01*
X024076Y031272D01*
X024119Y031243D01*
X024169Y031233D01*
X02435D01*
Y031402D01*
D02*
G37*
G36*
X048935Y031151D02*
X048639D01*
X048342D01*
Y030983D01*
Y03055D01*
X048935D01*
Y030983D01*
Y031151D01*
D02*
G37*
G36*
X033713Y030862D02*
X033676D01*
Y03055D01*
X033845D01*
Y03073D01*
X033835Y030781D01*
X033806Y030823D01*
X033763Y030852D01*
X033713Y030862D01*
D02*
G37*
G36*
X033576D02*
X033539D01*
X033489Y030852D01*
X033446Y030823D01*
X033417Y030781D01*
X033407Y03073D01*
Y03055D01*
X033576D01*
Y030862D01*
D02*
G37*
G36*
X035345Y0305D02*
X035176D01*
Y030187D01*
X035213D01*
X035263Y030197D01*
X035306Y030226D01*
X035335Y030268D01*
X035345Y030319D01*
Y0305D01*
D02*
G37*
G36*
X035076D02*
X034907D01*
Y030319D01*
X034917Y030268D01*
X034946Y030226D01*
X034989Y030197D01*
X035039Y030187D01*
X035076D01*
Y0305D01*
D02*
G37*
G36*
X033845Y03045D02*
X033676D01*
Y030137D01*
X033713D01*
X033763Y030147D01*
X033806Y030176D01*
X033835Y030218D01*
X033845Y030269D01*
Y03045D01*
D02*
G37*
G36*
X033576D02*
X033407D01*
Y030269D01*
X033417Y030218D01*
X033446Y030176D01*
X033489Y030147D01*
X033539Y030137D01*
X033576D01*
Y03045D01*
D02*
G37*
G36*
X028737Y030612D02*
X028563D01*
X028513Y030602D01*
X02847Y030574D01*
X028441Y030531D01*
X028431Y030481D01*
Y030019D01*
X028441Y029969D01*
X02847Y029926D01*
X028513Y029898D01*
X028563Y029888D01*
X028737D01*
X028787Y029898D01*
X02883Y029926D01*
X028844Y029947D01*
X029012D01*
X029065Y029925D01*
X029135D01*
X029199Y029952D01*
X029248Y030001D01*
X029275Y030065D01*
Y030135D01*
X029248Y030199D01*
X029199Y030248D01*
X029135Y030275D01*
X029065D01*
X029012Y030253D01*
X028869D01*
Y030481D01*
X028859Y030531D01*
X02883Y030574D01*
X028787Y030602D01*
X028737Y030612D01*
D02*
G37*
G36*
X023981Y029767D02*
X0238D01*
Y029598D01*
X024112D01*
Y029635D01*
X024102Y029685D01*
X024074Y029728D01*
X024031Y029757D01*
X023981Y029767D01*
D02*
G37*
G36*
X0237D02*
X023519D01*
X023469Y029757D01*
X023426Y029728D01*
X023398Y029685D01*
X023388Y029635D01*
Y029598D01*
X0237D01*
Y029767D01*
D02*
G37*
G36*
X0246Y02965D02*
X024278D01*
Y029409D01*
X0246D01*
Y02965D01*
D02*
G37*
G36*
X024112Y029498D02*
X0238D01*
Y029329D01*
X023981D01*
X024031Y029339D01*
X024074Y029368D01*
X024102Y029411D01*
X024112Y029461D01*
Y029498D01*
D02*
G37*
G36*
X0237D02*
X023388D01*
Y029461D01*
X023398Y029411D01*
X023426Y029368D01*
X023469Y029339D01*
X023519Y029329D01*
X0237D01*
Y029498D01*
D02*
G37*
G36*
X049664Y029583D02*
X049555D01*
Y02925D01*
X04982D01*
Y029426D01*
X049808Y029486D01*
X049775Y029537D01*
X049724Y029571D01*
X049664Y029583D01*
D02*
G37*
G36*
X049455D02*
X049345D01*
X049286Y029571D01*
X049235Y029537D01*
X049201Y029486D01*
X049189Y029426D01*
Y02925D01*
X049455D01*
Y029583D01*
D02*
G37*
G36*
X021702Y030495D02*
X021598D01*
X021497Y030468D01*
X021407Y030416D01*
X021334Y030343D01*
X021282Y030253D01*
X021255Y030152D01*
Y030048D01*
X021282Y029947D01*
X021334Y029857D01*
X021407Y029784D01*
X021497Y029732D01*
X021598Y029705D01*
X021702D01*
X021803Y029732D01*
X021893Y029784D01*
X021966Y029857D01*
X022018Y029947D01*
X022378D01*
Y029677D01*
X022597D01*
Y029305D01*
X022588Y029261D01*
Y029087D01*
X022598Y029037D01*
X022627Y028994D01*
X02267Y028965D01*
X02272Y028955D01*
X023182D01*
X023232Y028965D01*
X023275Y028994D01*
X023303Y029037D01*
X023313Y029087D01*
Y029261D01*
X023303Y029311D01*
X023275Y029354D01*
X023232Y029383D01*
X023182Y029393D01*
X022903D01*
Y029677D01*
X023122D01*
Y030259D01*
X022378D01*
Y030253D01*
X022018D01*
X021966Y030343D01*
X021893Y030416D01*
X021803Y030468D01*
X021702Y030495D01*
D02*
G37*
G36*
X044722Y029173D02*
X0444D01*
Y028932D01*
X044722D01*
Y029173D01*
D02*
G37*
G36*
X0443D02*
X043978D01*
Y028932D01*
X0443D01*
Y029173D01*
D02*
G37*
G36*
X04982Y02915D02*
X049555D01*
Y028817D01*
X049664D01*
X049724Y028829D01*
X049775Y028863D01*
X049808Y028914D01*
X04982Y028974D01*
Y02915D01*
D02*
G37*
G36*
X049455D02*
X049189D01*
Y028974D01*
X049201Y028914D01*
X049235Y028863D01*
X049286Y028829D01*
X049345Y028817D01*
X049455D01*
Y02915D01*
D02*
G37*
G36*
X041545Y02915D02*
X0412D01*
Y028683D01*
X041545D01*
Y02915D01*
D02*
G37*
G36*
X0411D02*
X040755D01*
Y028683D01*
X0411D01*
Y02915D01*
D02*
G37*
G36*
X035587Y030113D02*
X035413D01*
X035363Y030103D01*
X03532Y030074D01*
X035291Y030032D01*
X035281Y029981D01*
Y029599D01*
X035259Y029565D01*
X035247Y029507D01*
Y029257D01*
X035028D01*
Y028675D01*
X035772D01*
Y029257D01*
X035553D01*
Y029388D01*
X035587D01*
X035637Y029398D01*
X03568Y029427D01*
X035709Y029469D01*
X035719Y02952D01*
Y029981D01*
X035709Y030032D01*
X03568Y030074D01*
X035637Y030103D01*
X035587Y030113D01*
D02*
G37*
G36*
X034087Y030063D02*
X033913D01*
X033863Y030053D01*
X03382Y030024D01*
X033791Y029982D01*
X033781Y029931D01*
Y02947D01*
X033791Y029419D01*
X03382Y029377D01*
X033847Y029358D01*
Y029241D01*
X033678D01*
Y028659D01*
X034422D01*
Y029241D01*
X034153D01*
Y029358D01*
X03418Y029377D01*
X034209Y029419D01*
X034219Y02947D01*
Y029931D01*
X034209Y029982D01*
X03418Y030024D01*
X034137Y030053D01*
X034087Y030063D01*
D02*
G37*
G36*
X044722Y028832D02*
X0444D01*
Y028591D01*
X044722D01*
Y028832D01*
D02*
G37*
G36*
X0443D02*
X043978D01*
Y028591D01*
X0443D01*
Y028832D01*
D02*
G37*
G36*
X039909Y028452D02*
X039891D01*
Y028213D01*
X040192D01*
X040189Y028238D01*
X04016Y028308D01*
X040114Y028368D01*
X040054Y028414D01*
X039984Y028443D01*
X039909Y028452D01*
D02*
G37*
G36*
X037822D02*
X037803D01*
X037728Y028443D01*
X037658Y028414D01*
X037598Y028368D01*
X037552Y028308D01*
X037524Y028238D01*
X03752Y028213D01*
X037822D01*
Y028452D01*
D02*
G37*
G36*
X041545Y028583D02*
X0412D01*
Y028115D01*
X041545D01*
Y028583D01*
D02*
G37*
G36*
X0411D02*
X040755D01*
Y028115D01*
X0411D01*
Y028583D01*
D02*
G37*
G36*
X040192Y028113D02*
X039891D01*
Y027874D01*
X039909D01*
X039984Y027883D01*
X040054Y027912D01*
X040114Y027958D01*
X04016Y028018D01*
X040189Y028088D01*
X040192Y028113D01*
D02*
G37*
G36*
X039547Y028519D02*
X039418D01*
Y028153D01*
Y027787D01*
X039547D01*
Y027911D01*
X039597Y027935D01*
X039627Y027912D01*
X039697Y027883D01*
X039772Y027874D01*
X039791D01*
Y028163D01*
Y028452D01*
X039772D01*
X039697Y028443D01*
X039627Y028414D01*
X039597Y028391D01*
X039547Y028415D01*
Y028519D01*
D02*
G37*
G36*
X037822Y028113D02*
X03752D01*
X037524Y028088D01*
X037552Y028018D01*
X037598Y027958D01*
X037658Y027912D01*
X037728Y027883D01*
X037803Y027874D01*
X037822D01*
Y028113D01*
D02*
G37*
G36*
X034422Y028509D02*
X033678D01*
Y028371D01*
X033576D01*
X033518Y028359D01*
X033468Y028326D01*
X033396Y028254D01*
X033363Y028204D01*
X033351Y028146D01*
Y027935D01*
X033188D01*
Y027165D01*
X033821D01*
Y027927D01*
X034422D01*
Y028509D01*
D02*
G37*
G36*
X040284Y0275D02*
Y02715D01*
X040492D01*
Y027253D01*
X040472Y027351D01*
X040416Y027435D01*
X040333Y02749D01*
X040284Y0275D01*
D02*
G37*
G36*
X037528D02*
Y02715D01*
X037736D01*
Y027253D01*
X037716Y027351D01*
X03766Y027435D01*
X037577Y02749D01*
X037528Y0275D01*
D02*
G37*
G36*
X039645Y027505D02*
X0393D01*
Y02715D01*
X039645D01*
Y027505D01*
D02*
G37*
G36*
X038413D02*
X038067D01*
Y02715D01*
X038413D01*
Y027505D01*
D02*
G37*
G36*
X040184Y0275D02*
X040136Y02749D01*
X040052Y027435D01*
X039996Y027351D01*
X039977Y027253D01*
Y02715D01*
X040184D01*
Y0275D01*
D02*
G37*
G36*
X037428D02*
X03738Y02749D01*
X037296Y027435D01*
X03724Y027351D01*
X037221Y027253D01*
Y02715D01*
X037428D01*
Y0275D01*
D02*
G37*
G36*
X035772Y028525D02*
X035028D01*
Y027943D01*
X035401D01*
Y027885D01*
X035238D01*
Y027115D01*
X035871D01*
Y027885D01*
X035707D01*
Y027943D01*
X035772D01*
Y028525D01*
D02*
G37*
G36*
X022595Y027245D02*
X02225D01*
Y0269D01*
X022595D01*
Y027245D01*
D02*
G37*
G36*
X02215D02*
X021805D01*
Y0269D01*
X02215D01*
Y027245D01*
D02*
G37*
G36*
X047Y027113D02*
X046824D01*
X046764Y027101D01*
X046713Y027067D01*
X046679Y027017D01*
X046667Y026957D01*
Y026848D01*
X047D01*
Y027113D01*
D02*
G37*
G36*
X021203Y02705D02*
X0212D01*
Y0267D01*
X02155D01*
Y026703D01*
X021523Y026804D01*
X02147Y026896D01*
X021396Y02697D01*
X021304Y027023D01*
X021203Y02705D01*
D02*
G37*
G36*
X04955Y027D02*
X049547D01*
X049446Y026973D01*
X049354Y02692D01*
X04928Y026846D01*
X049227Y026754D01*
X0492Y026653D01*
Y02665D01*
X04955D01*
Y027D01*
D02*
G37*
G36*
X044722Y028441D02*
X043978D01*
Y027891D01*
X043871D01*
Y026509D01*
X045045D01*
Y027891D01*
X044722D01*
Y028441D01*
D02*
G37*
G36*
X047Y026748D02*
X046667D01*
Y026638D01*
X046679Y026578D01*
X046713Y026528D01*
X046764Y026494D01*
X046824Y026482D01*
X047D01*
Y026748D01*
D02*
G37*
G36*
X027252Y027245D02*
X027148D01*
X027047Y027218D01*
X026957Y027166D01*
X026884Y027093D01*
X026832Y027003D01*
X026805Y026902D01*
Y026798D01*
X026832Y026697D01*
X026884Y026607D01*
X026957Y026534D01*
X027047Y026482D01*
X027148Y026455D01*
X027252D01*
X027353Y026482D01*
X027443Y026534D01*
X027516Y026607D01*
X027568Y026697D01*
X027595Y026798D01*
Y026902D01*
X027568Y027003D01*
X027516Y027093D01*
X027443Y027166D01*
X027353Y027218D01*
X027252Y027245D01*
D02*
G37*
G36*
X026252D02*
X026148D01*
X026047Y027218D01*
X025957Y027166D01*
X025884Y027093D01*
X025832Y027003D01*
X025805Y026902D01*
Y026798D01*
X025832Y026697D01*
X025884Y026607D01*
X025957Y026534D01*
X026047Y026482D01*
X026148Y026455D01*
X026252D01*
X026353Y026482D01*
X026443Y026534D01*
X026516Y026607D01*
X026568Y026697D01*
X026595Y026798D01*
Y026902D01*
X026568Y027003D01*
X026516Y027093D01*
X026443Y027166D01*
X026353Y027218D01*
X026252Y027245D01*
D02*
G37*
G36*
X025252D02*
X025148D01*
X025047Y027218D01*
X024957Y027166D01*
X024884Y027093D01*
X024832Y027003D01*
X024805Y026902D01*
Y026798D01*
X024832Y026697D01*
X024884Y026607D01*
X024957Y026534D01*
X025047Y026482D01*
X025148Y026455D01*
X025252D01*
X025353Y026482D01*
X025443Y026534D01*
X025516Y026607D01*
X025568Y026697D01*
X025595Y026798D01*
Y026902D01*
X025568Y027003D01*
X025516Y027093D01*
X025443Y027166D01*
X025353Y027218D01*
X025252Y027245D01*
D02*
G37*
G36*
X024252D02*
X024148D01*
X024047Y027218D01*
X023957Y027166D01*
X023884Y027093D01*
X023832Y027003D01*
X023805Y026902D01*
Y026798D01*
X023832Y026697D01*
X023884Y026607D01*
X023957Y026534D01*
X024047Y026482D01*
X024148Y026455D01*
X024252D01*
X024353Y026482D01*
X024443Y026534D01*
X024516Y026607D01*
X024568Y026697D01*
X024595Y026798D01*
Y026902D01*
X024568Y027003D01*
X024516Y027093D01*
X024443Y027166D01*
X024353Y027218D01*
X024252Y027245D01*
D02*
G37*
G36*
X023252D02*
X023148D01*
X023047Y027218D01*
X022957Y027166D01*
X022884Y027093D01*
X022832Y027003D01*
X022805Y026902D01*
Y026798D01*
X022832Y026697D01*
X022884Y026607D01*
X022957Y026534D01*
X023047Y026482D01*
X023148Y026455D01*
X023252D01*
X023353Y026482D01*
X023443Y026534D01*
X023516Y026607D01*
X023568Y026697D01*
X023595Y026798D01*
Y026902D01*
X023568Y027003D01*
X023516Y027093D01*
X023443Y027166D01*
X023353Y027218D01*
X023252Y027245D01*
D02*
G37*
G36*
X022595Y0268D02*
X02225D01*
Y026455D01*
X022595D01*
Y0268D01*
D02*
G37*
G36*
X02215D02*
X021805D01*
Y026455D01*
X02215D01*
Y0268D01*
D02*
G37*
%LPD*%
D13*
X032709Y040548D02*
X033744D01*
X03265Y040489D02*
X032709Y040548D01*
X033744D02*
X033841Y04045D01*
X0274Y033491D02*
X027456Y033548D01*
X02065Y02615D02*
X0501D01*
X02065Y04185D02*
X0501D01*
Y02615D02*
Y04185D01*
X02065Y02615D02*
Y04185D01*
X048917Y04085D02*
Y041191D01*
Y040117D02*
Y04085D01*
X0488Y04D02*
X0496D01*
X023894Y0288D02*
X024061Y028968D01*
X02465D01*
X02375Y0288D02*
X023894D01*
X025384Y028968D02*
X0254Y028984D01*
X02465Y028968D02*
X025384D01*
X047727Y04125D02*
X048858D01*
X048917Y041191D01*
X02555Y0373D02*
X025752Y037098D01*
X028114D01*
X028116Y0371D01*
X02905D01*
X0368Y0315D02*
Y0336D01*
X02905Y0335D02*
X032796Y029754D01*
Y02755D02*
Y029754D01*
X03185Y03035D02*
X0325Y0297D01*
Y028659D02*
Y0297D01*
X03195Y0286D02*
X032441D01*
X0325Y028659D01*
X047395Y04085D02*
X04765D01*
X047666D02*
X047941D01*
X04765Y040866D02*
X047666Y04085D01*
X04765Y040866D02*
Y041173D01*
X047727Y04125D01*
X0488Y04D02*
X048917Y040117D01*
X048Y040452D02*
Y040791D01*
X047941Y04085D02*
X048Y040791D01*
Y040452D02*
X048028Y040424D01*
X047336Y040488D02*
Y040791D01*
X047395Y04085D01*
X047272Y040424D02*
X047336Y040488D01*
X0367Y039748D02*
X0367Y039748D01*
X0376D01*
X0376Y039748D01*
X03535Y038717D02*
Y038839D01*
X034642Y039548D02*
X03535Y038839D01*
X033744Y039548D02*
X034642D01*
X036591Y039638D02*
X0367Y039748D01*
X036149Y039638D02*
X036591D01*
X03535Y038839D02*
X036149Y039638D01*
X0376Y039748D02*
X037601Y039746D01*
X038499D01*
X0385Y039745D01*
X0394D01*
X0403D01*
X02845Y032675D02*
X029976Y031149D01*
X02845Y032675D02*
Y0342D01*
X029976Y031035D02*
Y031149D01*
X028143Y034507D02*
X02845Y0342D01*
X027497Y034507D02*
X028143D01*
X027454Y03455D02*
X027497Y034507D01*
X0253Y031892D02*
Y0349D01*
X026698Y036298D02*
X027206D01*
X0253Y0349D02*
X026698Y036298D01*
X027206D02*
X027456Y036548D01*
X02595Y02985D02*
Y0347D01*
X027428Y035519D02*
X027456Y035548D01*
X026769Y035519D02*
X027428D01*
X02595Y0347D02*
X026769Y035519D01*
X0264Y03455D02*
X027454D01*
X02615Y02905D02*
Y0343D01*
X0264Y03455D01*
X02645Y029637D02*
Y0335D01*
Y029637D02*
X027419Y028668D01*
X02565Y0305D02*
Y0335D01*
X0253Y03015D02*
X02565Y0305D01*
X024242Y03015D02*
X0253D01*
X024184Y030209D02*
Y0307D01*
Y030209D02*
X024242Y03015D01*
X0255Y0284D02*
X02615Y02905D01*
X025816Y029716D02*
X02595Y02985D01*
X025199Y031826D02*
X025234D01*
X0253Y031892D01*
X0275Y0294D02*
X0276Y0293D01*
X02795D01*
X028147Y028159D02*
Y029103D01*
X02795Y0293D02*
X028147Y029103D01*
X027601Y031049D02*
X028276D01*
X0275Y03115D02*
X027601Y031049D01*
X0275Y0294D02*
Y03115D01*
Y033504D01*
X028388Y029462D02*
X028638D01*
X027937Y029913D02*
X028388Y029462D01*
X027902Y03025D02*
X027937Y030215D01*
Y029913D02*
Y030215D01*
X028638Y029462D02*
X02875Y02935D01*
X029518D01*
X02865Y030166D02*
Y03025D01*
Y030166D02*
X028716Y0301D01*
X0291D01*
X028088Y0281D02*
X028147Y028159D01*
X027419Y028668D02*
X0275D01*
X02991Y030968D02*
X029976Y031035D01*
X027456Y033548D02*
X0275Y033504D01*
X03115Y0281D02*
X032605Y026645D01*
X03115Y0281D02*
Y028648D01*
X032605Y026645D02*
X040905D01*
X04115Y02689D01*
Y026967D01*
X032796Y027154D02*
Y02755D01*
Y027154D02*
X03305Y0269D01*
X03475D01*
X034846Y026996D02*
Y0275D01*
X03475Y0269D02*
X034846Y026996D01*
X035554Y0275D02*
Y028093D01*
X035413Y028234D02*
X035554Y028093D01*
X0354Y028234D02*
X035413D01*
X033576Y028218D02*
X03405D01*
X033504Y028146D02*
X033576Y028218D01*
X033504Y02755D02*
Y028146D01*
X029518Y02935D02*
X02955Y029382D01*
X043245Y036166D02*
X043304Y036107D01*
Y035728D02*
Y036107D01*
X038516Y036166D02*
X043245D01*
X036041Y033691D02*
X038516Y036166D01*
X038709Y036391D02*
X038723D01*
X038782Y03645D01*
X04D01*
X037152Y036498D02*
X038498D01*
X03875Y03675D01*
X043744Y029606D02*
X04375Y0296D01*
X043737Y029613D02*
X043744Y029606D01*
X038651Y0321D02*
X0395D01*
X04135Y03025D01*
X037101Y03055D02*
X038651Y0321D01*
X03975Y0297D02*
Y0315D01*
X041575Y029591D02*
X042078Y029088D01*
X041575Y029591D02*
Y032441D01*
X041634Y0325D01*
X0423D01*
X043737Y029613D02*
Y030138D01*
X035874Y03055D02*
X037101D01*
X034433Y03105D02*
X037318D01*
X040067Y033799D01*
X034374Y030991D02*
X034433Y03105D01*
X03035Y029432D02*
X0304Y029382D01*
X03035Y029432D02*
Y0298D01*
X04075Y033D02*
X042233D01*
X0423Y032933D01*
X03035Y0298D02*
Y03035D01*
X042292Y033358D02*
X0423Y033366D01*
X041558Y033358D02*
X042292D01*
X04155Y03335D02*
X041558Y033358D01*
X034374Y0305D02*
Y030991D01*
X048639Y032067D02*
X049241D01*
X0378Y02965D02*
Y03045D01*
X039174Y030799D02*
X039175Y0308D01*
X039692D02*
X039721Y030828D01*
X039175Y0308D02*
X039692D01*
X039485Y029435D02*
X03975Y0297D01*
X0378Y03045D02*
X038053Y030703D01*
X03833D01*
X038426Y030799D01*
X0275Y028668D02*
X027581D01*
X02165Y0281D02*
X028088D01*
X0254Y029716D02*
X025816D01*
X02275Y0284D02*
X0255D01*
X031902Y028648D02*
X03195Y0286D01*
X03115Y028648D02*
X031902D01*
X0304Y02865D02*
X030402Y028648D01*
X03115D01*
X02955Y02865D02*
X0304D01*
X03115Y029352D02*
Y030591D01*
X031091Y03065D02*
X03115Y030591D01*
X03108Y03065D02*
X031091D01*
X030724Y031005D02*
Y031149D01*
Y031005D02*
X03108Y03065D01*
X02875Y028645D02*
X029545D01*
X02955Y02865D01*
X0433Y02855D02*
Y02855D01*
X042884Y028134D02*
X0433Y02855D01*
X0423Y028134D02*
X042884D01*
X0433Y02855D02*
X043302Y028552D01*
Y030136D01*
X043304Y030138D01*
X041383Y0272D02*
X042342D01*
X04405Y03055D02*
X044051Y030551D01*
Y030964D01*
X04115Y026967D02*
X041383Y0272D01*
X044051Y030964D02*
X044052Y030965D01*
X03745Y02965D02*
X038345Y028756D01*
Y028153D02*
Y028756D01*
X04355Y03055D02*
Y030861D01*
X04358Y03089D01*
Y030965D01*
X038431Y02975D02*
Y030231D01*
X0378Y02965D02*
X03805Y0294D01*
X038245D02*
X038251Y029406D01*
X038402D02*
X038431Y029435D01*
X038251Y029406D02*
X038402D01*
X03805Y0294D02*
X038245D01*
X0391Y029435D02*
X039485D01*
X0392Y029752D02*
Y03025D01*
X044524Y030574D02*
Y030965D01*
X0391Y02975D02*
X039198D01*
X0392Y029752D01*
X044288Y031673D02*
Y0321D01*
X022095Y029055D02*
X02275Y0284D01*
X038856Y028153D02*
X038883Y02818D01*
X04435Y028882D02*
X044898D01*
X046983Y026798D01*
X04705D01*
X048428Y027323D02*
X049505Y0284D01*
Y0292D01*
X048428Y027126D02*
Y027323D01*
X04705Y026798D02*
X047541D01*
X047672Y026929D01*
Y027028D01*
X048364Y026865D02*
X048428Y026929D01*
X048183Y026865D02*
X048364D01*
X048428Y026929D02*
Y027126D01*
X04805Y026732D02*
X048183Y026865D01*
X047672Y026929D02*
X047736Y026865D01*
X047917D01*
X04805Y026732D01*
X042219Y028866D02*
X0423D01*
X042078Y029007D02*
X042219Y028866D01*
X042078Y029007D02*
Y029088D01*
X0423Y027242D02*
X042342Y0272D01*
X0423Y027242D02*
Y028134D01*
X04435Y027308D02*
X044458Y0272D01*
X04435Y027308D02*
Y02815D01*
X0236Y0315D02*
X023648Y031452D01*
X0244D01*
X0228Y032266D02*
X022834Y032232D01*
X0236D01*
X023632Y0322D01*
X0244D01*
X02165Y0281D02*
X021895Y027855D01*
X02275Y0307D02*
X024184D01*
X024916D02*
Y030781D01*
X025199Y031064D02*
Y031826D01*
X024916Y030781D02*
X025199Y031064D01*
X0395Y03355D02*
X041317Y035367D01*
X043678D01*
X036Y033666D02*
X036014D01*
X036039Y033691D02*
X036041D01*
X03775Y033666D02*
X039812Y035728D01*
X036014Y033666D02*
X036039Y033691D01*
X040067Y033799D02*
X0423D01*
X021695Y029055D02*
X022095D01*
X02165Y0291D02*
X021695Y029055D01*
X02165Y0311D02*
X022Y03145D01*
X022934D01*
X022766Y0323D02*
X0228Y032266D01*
X02275Y02925D02*
Y029968D01*
X02165Y0301D02*
X022618D01*
X02275Y029968D01*
X034Y029D02*
Y0297D01*
X03405Y028218D02*
X0341Y028168D01*
X034Y029D02*
X03405Y02895D01*
X0355Y029607D02*
Y02975D01*
X03535Y028184D02*
X0354Y028234D01*
Y028966D02*
Y029507D01*
X0355Y029607D01*
X03115Y029352D02*
X032036D01*
X03205Y029366D01*
X048639Y034232D02*
X049204D01*
X049236Y0342D02*
X04925D01*
X049204Y034232D02*
X049236Y0342D01*
X048639Y033799D02*
Y034232D01*
X043795Y040472D02*
Y04135D01*
Y040472D02*
X043818Y04045D01*
X049283Y032481D02*
X049302Y032462D01*
X043737Y035425D02*
Y035728D01*
X044288Y033762D02*
Y034193D01*
X048657Y032481D02*
X049283D01*
X044288Y033762D02*
X0443Y03375D01*
X043678Y035367D02*
X043737Y035425D01*
X048639Y0325D02*
X048657Y032481D01*
X04175Y03465D02*
X041765Y034665D01*
X0423D01*
X039812Y035728D02*
X042871D01*
X04835Y040717D02*
X048396Y040762D01*
X047784Y03675D02*
X049541D01*
X048396Y040772D02*
X048474Y04085D01*
X048396Y040762D02*
Y040772D01*
X048474Y04085D02*
X048483D01*
X049541Y03675D02*
X0496Y036809D01*
Y039295D01*
X047635Y035728D02*
Y036869D01*
X045469Y035728D02*
Y037547D01*
X048291Y039651D02*
X04835Y03971D01*
X04765Y039651D02*
X048291D01*
X04835Y03971D02*
Y040717D01*
X046002Y039252D02*
X04765D01*
Y039651D01*
Y04005D01*
X046Y03925D02*
Y040391D01*
X045466Y03755D02*
X045469Y037547D01*
X046Y038833D02*
Y03925D01*
X046002Y039252D01*
X04455Y04045D02*
X045341D01*
X046Y040391D02*
X046009Y0404D01*
X045341Y04045D02*
X045391Y0404D01*
X04765Y037616D02*
Y038548D01*
Y036884D02*
X047784Y03675D01*
X047635Y036869D02*
X04765Y036884D01*
X048641Y03855D02*
X0487Y038609D01*
X047652Y03855D02*
X048641D01*
X0487Y038609D02*
Y039295D01*
X04765Y038548D02*
X047652Y03855D01*
X039025Y036975D02*
X03925Y03675D01*
X038152Y036798D02*
X038152D01*
X038329Y036975D01*
X039025D01*
X0469Y027652D02*
X04705Y027502D01*
X0469Y027652D02*
Y029133D01*
X046959Y029191D01*
X047348Y0283D02*
Y02917D01*
X04805Y028298D02*
X048052Y0283D01*
X047318Y029191D02*
X047326D01*
X047348Y02917D01*
X04805Y0292D02*
X048068Y029218D01*
X046959Y029191D02*
X047318D01*
X048068Y029218D02*
Y030138D01*
X04805Y0292D02*
X0488D01*
X04805Y0275D02*
Y028298D01*
D14*
X038861Y029161D02*
X0391Y0294D01*
X038431D02*
X0386Y02923D01*
Y028153D02*
Y02923D01*
X038861Y0284D02*
Y029161D01*
D15*
X035554Y0275D02*
D03*
X034846D02*
D03*
X032796Y02755D02*
D03*
X033504D02*
D03*
D16*
X027456Y040548D02*
D03*
Y039548D02*
D03*
Y038548D02*
D03*
Y037548D02*
D03*
Y036548D02*
D03*
Y035548D02*
D03*
Y034548D02*
D03*
Y033548D02*
D03*
X033744Y040548D02*
D03*
Y039548D02*
D03*
Y038548D02*
D03*
Y037548D02*
D03*
Y036548D02*
D03*
Y035548D02*
D03*
Y034548D02*
D03*
Y033548D02*
D03*
D17*
X0228Y031534D02*
D03*
Y032266D02*
D03*
X02275Y029968D02*
D03*
Y0307D02*
D03*
X0236Y031534D02*
D03*
Y032266D02*
D03*
X0254Y028984D02*
D03*
Y029716D02*
D03*
X02465Y0297D02*
D03*
Y028968D02*
D03*
X0354Y028966D02*
D03*
Y028234D02*
D03*
X03405Y02895D02*
D03*
Y028218D02*
D03*
X0275Y0294D02*
D03*
Y028668D02*
D03*
X0304Y02865D02*
D03*
Y029382D02*
D03*
X02955Y02865D02*
D03*
Y029382D02*
D03*
X03195Y0286D02*
D03*
Y029332D02*
D03*
X0423Y028866D02*
D03*
Y028134D02*
D03*
X04765Y036884D02*
D03*
Y037616D02*
D03*
X04435Y028882D02*
D03*
Y02815D02*
D03*
D18*
X0391Y029435D02*
D03*
X038431D02*
D03*
Y02975D02*
D03*
X0391D02*
D03*
D19*
X024916Y0307D02*
D03*
X024184D02*
D03*
X04805Y0292D02*
D03*
X047318D02*
D03*
X04455Y04045D02*
D03*
X043818D02*
D03*
X044734Y03755D02*
D03*
X045466D02*
D03*
D20*
X0244Y0322D02*
D03*
Y031452D02*
D03*
X025199Y031826D02*
D03*
X02375Y0288D02*
D03*
Y029548D02*
D03*
X022951Y029174D02*
D03*
D21*
X028276Y031049D02*
D03*
X02865Y03025D02*
D03*
X027902D02*
D03*
X030724Y031149D02*
D03*
X029976D02*
D03*
X03035Y03035D02*
D03*
X0355Y02975D02*
D03*
X035126Y03055D02*
D03*
X035874D02*
D03*
X034374Y0305D02*
D03*
X033626D02*
D03*
X034Y0297D02*
D03*
D22*
X02875Y028645D02*
D03*
Y02935D02*
D03*
X03115Y028648D02*
D03*
Y029352D02*
D03*
X04705Y026798D02*
D03*
Y027502D02*
D03*
X0385Y039745D02*
D03*
Y04045D02*
D03*
X0376Y039748D02*
D03*
Y040452D02*
D03*
X0394Y039745D02*
D03*
Y04045D02*
D03*
X04765Y038548D02*
D03*
Y039252D02*
D03*
X0488Y039295D02*
D03*
Y04D02*
D03*
X0496Y039295D02*
D03*
Y04D02*
D03*
X0403Y039745D02*
D03*
Y04045D02*
D03*
X0367Y039748D02*
D03*
Y040452D02*
D03*
D23*
X0388Y031701D02*
D03*
X039174Y030799D02*
D03*
X038426D02*
D03*
D24*
X042342Y0272D02*
D03*
X044458D02*
D03*
D25*
X04805Y026732D02*
D03*
X04765Y040818D02*
D03*
D26*
X04805Y0275D02*
D03*
X04765Y04005D02*
D03*
D27*
X047672Y027126D02*
D03*
X048428D02*
D03*
X048028Y040424D02*
D03*
X047272D02*
D03*
D29*
X03925Y0271D02*
D03*
X038463D02*
D03*
D30*
X039368Y028153D02*
D03*
X039112D02*
D03*
X038856D02*
D03*
X0386D02*
D03*
X038345D02*
D03*
D31*
X03535Y038717D02*
D03*
Y040383D02*
D03*
X04115Y028633D02*
D03*
Y026967D02*
D03*
D32*
X049505Y0292D02*
D03*
X0488D02*
D03*
X047348Y0283D02*
D03*
X048052D02*
D03*
X0445Y04135D02*
D03*
X043795D02*
D03*
D33*
X046009Y0404D02*
D03*
X045391D02*
D03*
D34*
X048483Y04085D02*
D03*
X048917D02*
D03*
D66*
X040234Y0271D02*
D03*
X037478D02*
D03*
D67*
X048068Y035728D02*
D03*
X047635D02*
D03*
X047202D02*
D03*
X046768D02*
D03*
X046335D02*
D03*
X045902D02*
D03*
X045469D02*
D03*
X045036D02*
D03*
X044603D02*
D03*
X04417D02*
D03*
X043737D02*
D03*
X043304D02*
D03*
X042871D02*
D03*
Y030138D02*
D03*
X043304D02*
D03*
X043737D02*
D03*
X04417D02*
D03*
X044603D02*
D03*
X045036D02*
D03*
X045469D02*
D03*
X045902D02*
D03*
X046335D02*
D03*
X046768D02*
D03*
X047202D02*
D03*
X047635D02*
D03*
X048068D02*
D03*
D68*
X0423Y034665D02*
D03*
Y034232D02*
D03*
Y033799D02*
D03*
Y033366D02*
D03*
Y032933D02*
D03*
Y0325D02*
D03*
Y032067D02*
D03*
Y031634D02*
D03*
Y031201D02*
D03*
Y035098D02*
D03*
Y030768D02*
D03*
X048639Y031201D02*
D03*
Y031634D02*
D03*
Y032067D02*
D03*
Y0325D02*
D03*
Y032933D02*
D03*
Y033366D02*
D03*
Y034665D02*
D03*
Y030768D02*
D03*
Y035098D02*
D03*
Y033799D02*
D03*
Y034232D02*
D03*
D69*
X047832Y034902D02*
D03*
X047359D02*
D03*
X046887D02*
D03*
X046414D02*
D03*
X045942D02*
D03*
X045469D02*
D03*
X044997D02*
D03*
X044524D02*
D03*
X044052D02*
D03*
X04358D02*
D03*
X043107D02*
D03*
X04358Y030965D02*
D03*
X044052D02*
D03*
X044524D02*
D03*
X044997D02*
D03*
X045469D02*
D03*
X045942D02*
D03*
X046414D02*
D03*
X046887D02*
D03*
X047359D02*
D03*
X043107D02*
D03*
X047832D02*
D03*
X047123Y034193D02*
D03*
X04665D02*
D03*
X046178D02*
D03*
X045706D02*
D03*
X045233D02*
D03*
X044761D02*
D03*
X044288D02*
D03*
X043816D02*
D03*
Y031673D02*
D03*
X044288D02*
D03*
X044761D02*
D03*
X045233D02*
D03*
X045706D02*
D03*
X046178D02*
D03*
X04665D02*
D03*
X047123D02*
D03*
D70*
X043127Y03435D02*
D03*
Y033878D02*
D03*
Y033406D02*
D03*
Y032933D02*
D03*
Y032461D02*
D03*
Y031988D02*
D03*
Y031516D02*
D03*
X047812Y031988D02*
D03*
Y032461D02*
D03*
Y032933D02*
D03*
Y033406D02*
D03*
Y033878D02*
D03*
Y031516D02*
D03*
Y03435D02*
D03*
X043835Y033406D02*
D03*
Y032933D02*
D03*
Y032461D02*
D03*
D71*
X046178Y033287D02*
D03*
X045469D02*
D03*
X044761D02*
D03*
Y032579D02*
D03*
X045469D02*
D03*
X046178D02*
D03*
D72*
X033841Y04045D02*
X0385D01*
X033627Y0416D02*
X033744Y041483D01*
Y040548D02*
Y041483D01*
X03205Y0416D02*
X033627D01*
X0394Y04045D02*
X0403D01*
X0385D02*
X0394D01*
X0403D02*
X043818D01*
D73*
X0392Y03025D02*
D03*
X044524Y030574D02*
D03*
X04355Y03055D02*
D03*
X038431Y030231D02*
D03*
X02565Y0335D02*
D03*
X049302Y032462D02*
D03*
X03205Y0416D02*
D03*
X04145Y03445D02*
D03*
X04085D02*
D03*
X02555Y0373D02*
D03*
X02905Y0371D02*
D03*
X03185Y03035D02*
D03*
X0368Y0336D02*
D03*
Y0315D02*
D03*
X02905Y0335D02*
D03*
X02645D02*
D03*
X0291Y0301D02*
D03*
X038709Y036391D02*
D03*
X04135Y03025D02*
D03*
X03975Y0315D02*
D03*
X043744Y029606D02*
D03*
X03035Y0298D02*
D03*
X04075Y033D02*
D03*
X04155Y03335D02*
D03*
X049241Y032067D02*
D03*
X0378Y03045D02*
D03*
X0433Y02855D02*
D03*
X04405Y03055D02*
D03*
X03745Y02965D02*
D03*
X044288Y0321D02*
D03*
X0395Y03355D02*
D03*
X036Y033666D02*
D03*
X03775D02*
D03*
X04925Y0342D02*
D03*
X0443Y03375D02*
D03*
X04175Y03465D02*
D03*
X03875Y03675D02*
D03*
X03925D02*
D03*
X038152Y036798D02*
D03*
X037152Y036498D02*
D03*
X04Y03645D02*
D03*
D74*
X046Y0385D02*
D03*
D75*
X04965Y04135D02*
D03*
X0496Y0266D02*
D03*
X02115Y02665D02*
D03*
Y0413D02*
D03*
D76*
X02165Y0281D02*
D03*
D77*
Y0291D02*
D03*
Y0301D02*
D03*
Y0311D02*
D03*
Y0321D02*
D03*
Y0331D02*
D03*
X0232Y02685D02*
D03*
X0242D02*
D03*
X0252D02*
D03*
X0262D02*
D03*
X0272D02*
D03*
D78*
X0222D02*
D03*
D79*
X039841Y028163D02*
D03*
X037872D02*
D03*
M02*
