G04*
G04 #@! TF.GenerationSoftware,Altium Limited,Altium Designer,21.3.2 (30)*
G04*
G04 Layer_Color=32768*
%FSTAX24Y24*%
%MOIN*%
G70*
G04*
G04 #@! TF.SameCoordinates,FA99FE0D-6524-457D-92B3-06535D0E1D10*
G04*
G04*
G04 #@! TF.FilePolarity,Positive*
G04*
G01*
G75*
%ADD11C,0.0039*%
%ADD12C,0.0050*%
%ADD106C,0.0020*%
D11*
X037831Y030252D02*
Y032248D01*
Y030252D02*
X039769D01*
Y032248D01*
X037831D02*
X039769D01*
D12*
X038175Y029278D02*
X039356D01*
Y029907D01*
X038175D02*
X039356D01*
X038175Y029278D02*
Y029907D01*
D106*
X034531Y027106D02*
X035869D01*
X034531Y027894D02*
X035869D01*
Y027106D02*
Y027894D01*
X034531Y027106D02*
Y027894D01*
X026762Y041729D02*
X034438D01*
Y032083D02*
Y041729D01*
X026762Y032083D02*
X034438D01*
X026762D02*
Y041729D01*
X024983Y037617D02*
X027917D01*
Y039783D01*
X024983D02*
X027917D01*
X024983Y037617D02*
Y039783D01*
X023087Y034778D02*
X024413D01*
X023087Y034022D02*
X024413D01*
X023087D02*
Y034778D01*
X024413Y034022D02*
Y034778D01*
X023087Y033878D02*
X024413D01*
X023087Y033122D02*
X024413D01*
X023087D02*
Y033878D01*
X024413Y033122D02*
Y033878D01*
X02243Y031244D02*
X02317D01*
X02243Y032556D02*
X02317D01*
Y031244D02*
Y032556D01*
X02243Y031244D02*
Y032556D01*
X049642Y034425D02*
Y041709D01*
X042358Y034425D02*
X049642D01*
X042358D02*
Y041709D01*
X049642D01*
X022544Y03942D02*
X023856D01*
X022544Y03868D02*
X023856D01*
X022544D02*
Y03942D01*
X023856Y03868D02*
Y03942D01*
X023894Y03107D02*
X025206D01*
X023894Y03033D02*
X025206D01*
Y03107D01*
X023894Y03033D02*
Y03107D01*
X02312Y029678D02*
Y030989D01*
X02238Y029678D02*
Y030989D01*
Y029678D02*
X02312D01*
X02238Y030989D02*
X02312D01*
X02397Y031244D02*
Y032556D01*
X02323Y031244D02*
Y032556D01*
Y031244D02*
X02397D01*
X02323Y032556D02*
X02397D01*
X02577Y028694D02*
Y030006D01*
X02503Y028694D02*
Y030006D01*
Y028694D02*
X02577D01*
X02503Y030006D02*
X02577D01*
X02428Y028678D02*
Y029989D01*
X02502Y028678D02*
Y029989D01*
X02428D02*
X02502D01*
X02428Y028678D02*
X02502D01*
X024042Y031153D02*
Y032499D01*
Y031153D02*
X025557D01*
Y032499D01*
X024042D02*
X025557D01*
X024108Y028501D02*
Y029847D01*
X022593D02*
X024108D01*
X022593Y028501D02*
Y029847D01*
Y028501D02*
X024108D01*
X03503Y027944D02*
Y029256D01*
X03577Y027944D02*
Y029256D01*
X03503D02*
X03577D01*
X03503Y027944D02*
X03577D01*
X032481Y027156D02*
X033819D01*
X032481Y027944D02*
X033819D01*
Y027156D02*
Y027944D01*
X032481Y027156D02*
Y027944D01*
X03368Y027928D02*
Y029239D01*
X03442Y027928D02*
Y029239D01*
X03368D02*
X03442D01*
X03368Y027928D02*
X03442D01*
X02713Y028378D02*
X02787D01*
X02713Y029689D02*
X02787D01*
Y028378D02*
Y029689D01*
X02713Y028378D02*
Y029689D01*
X03003Y028361D02*
X03077D01*
X03003Y029672D02*
X03077D01*
Y028361D02*
Y029672D01*
X03003Y028361D02*
Y029672D01*
X02918Y028361D02*
X02992D01*
X02918Y029672D02*
X02992D01*
Y028361D02*
Y029672D01*
X02918Y028361D02*
Y029672D01*
X03158Y028311D02*
X03232D01*
X03158Y029622D02*
X03232D01*
Y028311D02*
Y029622D01*
X03158Y028311D02*
Y029622D01*
X027603Y029892D02*
Y031407D01*
X028949D01*
Y029892D02*
Y031407D01*
X027603Y029892D02*
X028949D01*
X029677Y031507D02*
X031023D01*
X029677Y029992D02*
Y031507D01*
Y029992D02*
X031023D01*
Y031507D01*
X028372Y028334D02*
X029128D01*
X028372Y029661D02*
X029128D01*
Y028334D02*
Y029661D01*
X028372Y028334D02*
Y029661D01*
X030772Y028337D02*
X031528D01*
X030772Y029663D02*
X031528D01*
Y028337D02*
Y029663D01*
X030772Y028337D02*
Y029663D01*
X036173Y029392D02*
Y030908D01*
X034827Y029392D02*
X036173D01*
X034827D02*
Y030908D01*
X036173D01*
X033327Y030858D02*
X034673D01*
X033327Y029342D02*
Y030858D01*
Y029342D02*
X034673D01*
Y030858D01*
X041756Y026511D02*
X045044D01*
X041756D02*
Y027889D01*
X045044D01*
Y026511D02*
Y027889D01*
X046672Y026487D02*
X047428D01*
X046672Y027813D02*
X047428D01*
Y026487D02*
Y027813D01*
X046672Y026487D02*
Y027813D01*
X047459Y026535D02*
X048641D01*
X047459D02*
Y027717D01*
X048641D01*
Y026535D02*
Y027717D01*
X040804Y037224D02*
X050135D01*
X040804Y028642D02*
Y037224D01*
Y028642D02*
X050135D01*
Y037224D01*
X037173Y028517D02*
X040539D01*
Y025946D02*
Y028517D01*
X037173Y025946D02*
X040539D01*
X037173D02*
Y028517D01*
X032876Y036455D02*
Y038345D01*
X029324Y036455D02*
X032876D01*
X029324D02*
Y038345D01*
X032876D01*
X029661Y038561D02*
X032339D01*
Y039113D01*
X032673D01*
Y040687D01*
X032339D02*
X032673D01*
X032339D02*
Y041239D01*
X029661D02*
X032339D01*
X029661Y040687D02*
Y041239D01*
X029327Y040687D02*
X029661D01*
X029327Y039113D02*
Y040687D01*
Y039113D02*
X029661D01*
Y038561D02*
Y039113D01*
X02813Y039894D02*
X02887D01*
X02813Y041206D02*
X02887D01*
X02813Y039894D02*
Y041206D01*
X02887Y039894D02*
Y041206D01*
X025237Y036978D02*
X026563D01*
X025237Y036222D02*
X026563D01*
X025237D02*
Y036978D01*
X026563Y036222D02*
Y036978D01*
X02423Y039961D02*
X02497D01*
X02423Y041272D02*
X02497D01*
X02423Y039961D02*
Y041272D01*
X02497Y039961D02*
Y041272D01*
X02523Y041256D02*
X02597D01*
X02523Y039944D02*
X02597D01*
Y041256D01*
X02523Y039944D02*
Y041256D01*
X02713Y041255D02*
X02787D01*
X02713Y039944D02*
X02787D01*
Y041255D01*
X02713Y039944D02*
Y041255D01*
X026222Y039934D02*
X026978D01*
X026222Y041261D02*
X026978D01*
X026222Y039934D02*
Y041261D01*
X026978Y039934D02*
Y041261D01*
X025863Y034022D02*
Y034778D01*
X024537Y034022D02*
Y034778D01*
Y034022D02*
X025863D01*
X024537Y034778D02*
X025863D01*
X026898Y03606D02*
X030702D01*
X026898Y03354D02*
Y03606D01*
Y03354D02*
X030702D01*
Y03606D01*
X020838Y03825D02*
X022462D01*
X020838D02*
Y04105D01*
X022462D01*
Y03825D02*
Y04105D01*
X021077Y0337D02*
X022073D01*
X021077D02*
Y035798D01*
X022073D01*
Y0337D02*
Y035798D01*
X021147Y035984D02*
Y037843D01*
Y035984D02*
X022053D01*
Y037843D01*
X021147D02*
X022053D01*
X022561Y03943D02*
Y04017D01*
X023872Y03943D02*
Y04017D01*
X022561D02*
X023872D01*
X022561Y03943D02*
X023872D01*
X034743Y035501D02*
X040057D01*
Y041367D01*
X034743D02*
X040057D01*
X034743Y035501D02*
Y041367D01*
X023137Y038148D02*
Y038463D01*
Y035037D02*
Y035352D01*
Y035037D02*
X023963D01*
Y035352D01*
Y038148D02*
Y038463D01*
X023137D02*
X023963D01*
X022595Y038148D02*
X023137D01*
X022152Y037705D02*
X022595Y038148D01*
X022152Y035352D02*
Y037705D01*
Y035352D02*
X023137D01*
X023963D02*
X024948D01*
Y037705D01*
X024505Y038148D02*
X024948Y037705D01*
X023963Y038148D02*
X024505D01*
X03563Y035106D02*
X03637D01*
X03563Y033794D02*
X03637D01*
Y035106D01*
X03563Y033794D02*
Y035106D01*
X03913Y035122D02*
X03987D01*
X03913Y033811D02*
X03987D01*
Y035122D01*
X03913Y033811D02*
Y035122D01*
X03823D02*
X03897D01*
X03823Y033811D02*
X03897D01*
Y035122D01*
X03823Y033811D02*
Y035122D01*
X041316Y037883D02*
X041627D01*
X041316D02*
Y037982D01*
X040584D02*
X041316D01*
X040584Y037883D02*
Y037982D01*
X040273Y037883D02*
X040584D01*
X040273Y037017D02*
Y037883D01*
Y037017D02*
X040584D01*
Y036918D02*
Y037017D01*
Y036918D02*
X041316D01*
Y037017D01*
X041627D01*
Y037883D01*
X040187Y034472D02*
Y035228D01*
X041513Y034472D02*
Y035228D01*
X040187D02*
X041513D01*
X040187Y034472D02*
X041513D01*
X040187Y036072D02*
Y036828D01*
X041513Y036072D02*
Y036828D01*
X040187D02*
X041513D01*
X040187Y036072D02*
X041513D01*
X040187Y035272D02*
Y036028D01*
X041513Y035272D02*
Y036028D01*
X040187D02*
X041513D01*
X040187Y035272D02*
X041513D01*
X040187Y033672D02*
Y034428D01*
X041513Y033672D02*
Y034428D01*
X040187D02*
X041513D01*
X040187Y033672D02*
X041513D01*
X03648Y035122D02*
X03722D01*
X03648Y033811D02*
X03722D01*
Y035122D01*
X03648Y033811D02*
Y035122D01*
X03738D02*
X03812D01*
X03738Y033811D02*
X03812D01*
Y035122D01*
X03738Y033811D02*
Y035122D01*
X035952Y038202D02*
Y040898D01*
X034748Y038202D02*
X035952D01*
X034748D02*
Y040898D01*
X035952D01*
X040548Y026452D02*
Y029148D01*
X041752D01*
Y026452D02*
Y029148D01*
X040548Y026452D02*
X041752D01*
X038122Y040761D02*
X038878D01*
X038122Y039434D02*
X038878D01*
X038122D02*
Y040761D01*
X038878Y039434D02*
Y040761D01*
X037222Y040763D02*
X037978D01*
X037222Y039437D02*
X037978D01*
X037222D02*
Y040763D01*
X037978Y039437D02*
Y040763D01*
X039022Y040761D02*
X039778D01*
X039022Y039434D02*
X039778D01*
X039022D02*
Y040761D01*
X039778Y039434D02*
Y040761D01*
X048339Y02883D02*
Y02957D01*
X047028Y02883D02*
Y02957D01*
X048339D01*
X047028Y02883D02*
X048339D01*
X049816Y028822D02*
Y029578D01*
X048489Y028822D02*
Y029578D01*
X049816D01*
X048489Y028822D02*
X049816D01*
X04193Y029156D02*
X04267D01*
X04193Y027844D02*
X04267D01*
X04193D02*
Y029156D01*
X04267Y027844D02*
Y029156D01*
X047037Y027922D02*
Y028678D01*
X048363Y027922D02*
Y028678D01*
X047037Y027922D02*
X048363D01*
X047037Y028678D02*
X048363D01*
X045115Y040689D02*
X046285D01*
X045115Y040111D02*
X046285D01*
Y040689D01*
X045115Y040111D02*
Y040689D01*
X047059Y041015D02*
X048241D01*
Y039833D02*
Y041015D01*
X047059Y039833D02*
X048241D01*
X047059D02*
Y041015D01*
X043528Y04008D02*
Y04082D01*
X044839Y04008D02*
Y04082D01*
X043528Y04008D02*
X044839D01*
X043528Y04082D02*
X044839D01*
X044444Y03718D02*
Y03792D01*
X045756Y03718D02*
Y03792D01*
X044444Y03718D02*
X045756D01*
X044444Y03792D02*
X045756D01*
X044811Y040972D02*
Y041728D01*
X043484Y040972D02*
Y041728D01*
X044811D01*
X043484Y040972D02*
X044811D01*
X047272Y038237D02*
X048028D01*
X047272Y039563D02*
X048028D01*
Y038237D02*
Y039563D01*
X047272Y038237D02*
Y039563D01*
X04728Y036594D02*
X04802D01*
X04728Y037906D02*
X04802D01*
Y036594D02*
Y037906D01*
X04728Y036594D02*
Y037906D01*
X048422Y038984D02*
X049178D01*
X048422Y040311D02*
X049178D01*
Y038984D02*
Y040311D01*
X048422Y038984D02*
Y040311D01*
X049222Y038984D02*
X049978D01*
X049222Y040311D02*
X049978D01*
Y038984D02*
Y040311D01*
X049222Y038984D02*
Y040311D01*
X039922Y040761D02*
X040678D01*
X039922Y039434D02*
X040678D01*
X039922D02*
Y040761D01*
X040678Y039434D02*
Y040761D01*
X04398Y029172D02*
X04472D01*
X04398Y027861D02*
X04472D01*
X04398D02*
Y029172D01*
X04472Y027861D02*
Y029172D01*
X036322Y040763D02*
X037078D01*
X036322Y039437D02*
X037078D01*
X036322D02*
Y040763D01*
X037078Y039437D02*
Y040763D01*
M02*
