G04*
G04 #@! TF.GenerationSoftware,Altium Limited,Altium Designer,21.3.2 (30)*
G04*
G04 Layer_Physical_Order=2*
G04 Layer_Color=16711680*
%FSTAX24Y24*%
%MOIN*%
G70*
G04*
G04 #@! TF.SameCoordinates,FA99FE0D-6524-457D-92B3-06535D0E1D10*
G04*
G04*
G04 #@! TF.FilePolarity,Positive*
G04*
G01*
G75*
%ADD13C,0.0100*%
%ADD17R,0.0543X0.0382*%
%ADD19R,0.0382X0.0543*%
G04:AMPARAMS|DCode=22|XSize=42.5mil|YSize=55.9mil|CornerRadius=5.3mil|HoleSize=0mil|Usage=FLASHONLY|Rotation=270.000|XOffset=0mil|YOffset=0mil|HoleType=Round|Shape=RoundedRectangle|*
%AMROUNDEDRECTD22*
21,1,0.0425,0.0453,0,0,270.0*
21,1,0.0319,0.0559,0,0,270.0*
1,1,0.0106,-0.0226,-0.0159*
1,1,0.0106,-0.0226,0.0159*
1,1,0.0106,0.0226,0.0159*
1,1,0.0106,0.0226,-0.0159*
%
%ADD22ROUNDEDRECTD22*%
G04:AMPARAMS|DCode=32|XSize=42.5mil|YSize=55.9mil|CornerRadius=5.3mil|HoleSize=0mil|Usage=FLASHONLY|Rotation=0.000|XOffset=0mil|YOffset=0mil|HoleType=Round|Shape=RoundedRectangle|*
%AMROUNDEDRECTD32*
21,1,0.0425,0.0453,0,0,0.0*
21,1,0.0319,0.0559,0,0,0.0*
1,1,0.0106,0.0159,-0.0226*
1,1,0.0106,-0.0159,-0.0226*
1,1,0.0106,-0.0159,0.0226*
1,1,0.0106,0.0159,0.0226*
%
%ADD32ROUNDEDRECTD32*%
%ADD66O,0.0305X0.0610*%
%ADD72C,0.0200*%
%ADD73C,0.0150*%
%ADD74C,0.0650*%
%ADD75C,0.0600*%
%ADD76R,0.0591X0.0591*%
%ADD77C,0.0591*%
%ADD78R,0.0591X0.0591*%
%ADD79O,0.0512X0.0374*%
%ADD80R,0.0600X0.0276*%
%ADD81R,0.1008X0.1358*%
%ADD82R,0.0906X0.0992*%
%ADD83R,0.1181X0.1378*%
%ADD84R,0.0886X0.1252*%
%ADD85R,0.0835X0.0898*%
%ADD86R,0.0799X0.0650*%
G04:AMPARAMS|DCode=87|XSize=48.8mil|YSize=48mil|CornerRadius=6mil|HoleSize=0mil|Usage=FLASHONLY|Rotation=270.000|XOffset=0mil|YOffset=0mil|HoleType=Round|Shape=RoundedRectangle|*
%AMROUNDEDRECTD87*
21,1,0.0488,0.0360,0,0,270.0*
21,1,0.0368,0.0480,0,0,270.0*
1,1,0.0120,-0.0180,-0.0184*
1,1,0.0120,-0.0180,0.0184*
1,1,0.0120,0.0180,0.0184*
1,1,0.0120,0.0180,-0.0184*
%
%ADD87ROUNDEDRECTD87*%
%ADD88R,0.0354X0.0472*%
%ADD89R,0.0512X0.0709*%
%ADD90R,0.0630X0.1260*%
G04:AMPARAMS|DCode=91|XSize=41.7mil|YSize=15.4mil|CornerRadius=3.8mil|HoleSize=0mil|Usage=FLASHONLY|Rotation=180.000|XOffset=0mil|YOffset=0mil|HoleType=Round|Shape=RoundedRectangle|*
%AMROUNDEDRECTD91*
21,1,0.0417,0.0077,0,0,180.0*
21,1,0.0341,0.0154,0,0,180.0*
1,1,0.0077,-0.0170,0.0038*
1,1,0.0077,0.0170,0.0038*
1,1,0.0077,0.0170,-0.0038*
1,1,0.0077,-0.0170,-0.0038*
%
%ADD91ROUNDEDRECTD91*%
G36*
X039347Y037904D02*
X039347D01*
Y0375D01*
X039703D01*
Y03745D01*
X039753D01*
Y036996D01*
X039814D01*
X039833Y036949D01*
X039787Y036903D01*
X039338D01*
X039285Y036925D01*
X039215D01*
X039151Y036898D01*
X039102Y036849D01*
X039075Y036785D01*
Y036715D01*
X039077Y03671D01*
X039035Y036681D01*
X03892Y036796D01*
X038903Y036838D01*
Y037947D01*
X03933D01*
X039347Y037904D01*
D02*
G37*
G36*
X041108Y037922D02*
X041099Y037892D01*
X041088Y037871D01*
X041048Y037844D01*
X041017Y037798D01*
X041007Y037744D01*
Y037668D01*
X041017Y037614D01*
X041041Y037578D01*
X041017Y037542D01*
X041009Y0375D01*
X041318D01*
Y0374D01*
X041009D01*
X041017Y037358D01*
X041041Y037322D01*
X041017Y037286D01*
X041007Y037232D01*
Y037156D01*
X041017Y037102D01*
X041048Y037056D01*
X041094Y037025D01*
X041148Y037015D01*
X041344D01*
X041345Y037014D01*
X041413D01*
X041597Y036831D01*
Y034738D01*
X041575Y034685D01*
X041568Y034683D01*
X041518Y034722D01*
Y0348D01*
X041202D01*
X040887D01*
Y034626D01*
X040885Y034625D01*
X040815D01*
X040813Y034626D01*
Y035076D01*
X040801Y035136D01*
X040767Y035187D01*
X040717Y035221D01*
X040697Y035225D01*
Y035275D01*
X040717Y035279D01*
X040767Y035313D01*
X040801Y035364D01*
X040813Y035424D01*
Y035876D01*
X040801Y035936D01*
X040767Y035987D01*
X040717Y036021D01*
X040697Y036025D01*
Y036075D01*
X040717Y036079D01*
X040767Y036113D01*
X040801Y036164D01*
X040813Y036224D01*
Y036676D01*
X040801Y036736D01*
X040767Y036787D01*
X040717Y036821D01*
X040687Y036827D01*
Y037015D01*
X040752D01*
X040806Y037025D01*
X040852Y037056D01*
X040883Y037102D01*
X040893Y037156D01*
Y037232D01*
X040883Y037286D01*
X040859Y037322D01*
X040883Y037358D01*
X040893Y037412D01*
Y037488D01*
X040883Y037542D01*
X040859Y037578D01*
X040883Y037614D01*
X040893Y037668D01*
Y037744D01*
X040883Y037798D01*
X040852Y037844D01*
X040806Y037875D01*
X040752Y037885D01*
X040703D01*
Y038041D01*
X040691Y0381D01*
X04066Y038147D01*
X040664Y038169D01*
X040676Y038197D01*
X040833D01*
X041108Y037922D01*
D02*
G37*
G36*
X04485Y041785D02*
Y03575D01*
X04845D01*
Y0418D01*
X05005D01*
Y041557D01*
X05Y041544D01*
X04997Y041596D01*
X049896Y04167D01*
X049804Y041723D01*
X049703Y04175D01*
X0497D01*
Y04135D01*
Y04095D01*
X049703D01*
X049804Y040977D01*
X049896Y04103D01*
X04997Y041104D01*
X05Y041156D01*
X05005Y041143D01*
Y02615D01*
X0489D01*
Y0295D01*
X04735D01*
Y02615D01*
X020685D01*
X02065Y026185D01*
X0207Y0418D01*
X025608D01*
X025623Y04175D01*
X025614Y041744D01*
X025514Y041644D01*
X025491Y041609D01*
X025456Y041586D01*
X025412Y041519D01*
X025396Y041441D01*
Y041257D01*
X025228D01*
Y040753D01*
X024972D01*
Y040932D01*
X0246D01*
X024228D01*
Y040744D01*
X024213Y040741D01*
X024163Y040708D01*
X02407Y040615D01*
X024037Y040566D01*
X024025Y040507D01*
Y0395D01*
X024037Y039441D01*
X02407Y039392D01*
X02462Y038842D01*
X02467Y038809D01*
X024728Y038797D01*
X024947D01*
X024982Y038762D01*
X024982Y038712D01*
X024982Y038662D01*
Y038603D01*
X024513D01*
X023958Y039158D01*
X023909Y039191D01*
X023857Y039202D01*
Y039422D01*
X023873Y039428D01*
Y040172D01*
X023291D01*
Y039428D01*
X023275Y039422D01*
Y038678D01*
X023857D01*
Y038761D01*
X023903Y03878D01*
X024342Y038342D01*
X024391Y038309D01*
X02445Y038297D01*
X024947D01*
X024982Y038262D01*
X024982Y038212D01*
X024982Y038162D01*
Y037712D01*
X025397D01*
Y037388D01*
X025375Y037335D01*
Y037265D01*
X025397Y037212D01*
Y036983D01*
X025388D01*
X025328Y036971D01*
X025278Y036937D01*
X025252Y036898D01*
X025197Y036889D01*
X025194Y036894D01*
X02421Y037878D01*
X024144Y037923D01*
X024066Y037938D01*
X023965D01*
Y038464D01*
X023135D01*
Y037991D01*
X021804D01*
Y038249D01*
X022167D01*
Y038846D01*
X022543D01*
Y038678D01*
X023125D01*
Y039385D01*
X023141Y039428D01*
X023141Y039465D01*
Y03975D01*
X02285D01*
X022559D01*
Y039465D01*
X022543Y039422D01*
X022543Y039385D01*
Y039254D01*
X022167D01*
Y039346D01*
X021133D01*
Y038249D01*
X021396D01*
Y037842D01*
X021357Y037835D01*
X021305Y037799D01*
X021269Y037747D01*
X021257Y037684D01*
Y037316D01*
X021269Y037253D01*
X021305Y037201D01*
X021357Y037165D01*
X02142Y037153D01*
X02178D01*
X021843Y037165D01*
X021895Y037201D01*
X021931Y037253D01*
X021943Y037316D01*
Y037583D01*
X023135D01*
Y037004D01*
X023965D01*
Y037476D01*
X024015Y037497D01*
X024846Y036666D01*
Y036059D01*
X024862Y035981D01*
X024906Y035914D01*
X024941Y035891D01*
X024964Y035856D01*
X025031Y035812D01*
X025109Y035796D01*
X025348D01*
Y034774D01*
X025333Y034771D01*
X025282Y034737D01*
X025249Y034686D01*
X025237Y034626D01*
Y034174D01*
X025249Y034114D01*
X025282Y034063D01*
X025333Y034029D01*
X025393Y034017D01*
X025712D01*
X025772Y034029D01*
X025822Y034063D01*
X025856Y034114D01*
X025868Y034174D01*
Y034626D01*
X025856Y034686D01*
X025822Y034737D01*
X025772Y034771D01*
X025756Y034774D01*
Y035796D01*
X028241D01*
X028319Y035812D01*
X028386Y035856D01*
X02843Y035922D01*
X028445Y036D01*
Y038333D01*
X02843Y038411D01*
X028386Y038477D01*
X028386Y038477D01*
X028268Y038594D01*
X028202Y038638D01*
X028124Y038654D01*
X027952D01*
X027918Y038688D01*
X027918Y038738D01*
Y038797D01*
X02845D01*
X028509Y038809D01*
X028558Y038842D01*
X028608Y038892D01*
X028641Y038941D01*
X028653Y039D01*
Y039893D01*
X028872D01*
Y040475D01*
X028128D01*
Y039893D01*
X028347D01*
Y039103D01*
X027953D01*
X027918Y039138D01*
X027918Y039188D01*
X027918Y039238D01*
Y0394D01*
X027118D01*
Y039238D01*
X027118Y039212D01*
X027118Y039162D01*
Y038738D01*
X027118Y038712D01*
X027118Y038662D01*
Y038238D01*
X027118Y038212D01*
X027118Y038162D01*
Y037712D01*
X027265D01*
Y037661D01*
X026907Y037303D01*
X026309D01*
X02625Y037291D01*
X0262Y037258D01*
X026142Y0372D01*
X026109Y03715D01*
X026097Y037091D01*
Y036983D01*
X026093D01*
X026033Y036971D01*
X025982Y036937D01*
X025949Y036886D01*
X025937Y036826D01*
Y036374D01*
X025949Y036314D01*
X025982Y036263D01*
X025996Y036254D01*
X025981Y036204D01*
X025819D01*
X025804Y036254D01*
X025817Y036263D01*
X025851Y036314D01*
X025863Y036374D01*
Y036826D01*
X025851Y036886D01*
X025817Y036937D01*
X025767Y036971D01*
X025707Y036983D01*
X025703D01*
Y037212D01*
X025725Y037265D01*
Y037335D01*
X025703Y037388D01*
Y037712D01*
X025782D01*
Y038162D01*
X025782Y038188D01*
X025782Y038238D01*
Y038662D01*
X025782Y038688D01*
X025782Y038738D01*
Y039188D01*
X025782D01*
Y039212D01*
X025782D01*
Y039688D01*
X025535D01*
Y039943D01*
X025972D01*
Y040447D01*
X026115D01*
X026217Y040345D01*
Y040086D01*
X026229Y040026D01*
X026263Y039975D01*
X026314Y039942D01*
X026374Y03993D01*
X026826D01*
X026886Y039942D01*
X026937Y039975D01*
X026971Y040026D01*
X026983Y040086D01*
Y040405D01*
X026971Y040464D01*
X026937Y040515D01*
X026886Y040549D01*
X026826Y040561D01*
X026452D01*
X026434Y040584D01*
X026459Y040634D01*
X026826D01*
X026886Y040646D01*
X026937Y04068D01*
X026971Y040731D01*
X026983Y040791D01*
Y040797D01*
X027128D01*
Y040675D01*
X027872D01*
Y041257D01*
X027128D01*
Y041103D01*
X026983D01*
Y041109D01*
X026971Y041169D01*
X026937Y04122D01*
X026886Y041254D01*
X026826Y041266D01*
X026374D01*
X026314Y041254D01*
X026263Y04122D01*
X026229Y041169D01*
X026217Y041109D01*
Y040796D01*
X02621Y040779D01*
X026188Y040758D01*
X026174Y040753D01*
X025972D01*
Y041257D01*
X025804D01*
Y041357D01*
X025843Y041396D01*
X031846D01*
Y040689D01*
X031294D01*
Y039111D01*
X031896D01*
Y037996D01*
X031772D01*
Y036804D01*
X031946D01*
Y034884D01*
X030766Y033704D01*
X02645D01*
X02645Y033704D01*
X02645Y033704D01*
X024418D01*
Y033726D01*
X024406Y033786D01*
X024372Y033837D01*
X024322Y033871D01*
X024262Y033883D01*
X024255D01*
Y034017D01*
X024262D01*
X024322Y034029D01*
X024372Y034063D01*
X024406Y034114D01*
X024418Y034174D01*
Y034626D01*
X024406Y034686D01*
X024372Y034737D01*
X024322Y034771D01*
X024262Y034783D01*
X023943D01*
X023883Y034771D01*
X023832Y034737D01*
X023799Y034686D01*
X023787Y034626D01*
Y034174D01*
X023799Y034114D01*
X023832Y034063D01*
X023883Y034029D01*
X023943Y034017D01*
X023949D01*
Y033883D01*
X023943D01*
X023883Y033871D01*
X023832Y033837D01*
X023799Y033786D01*
X023787Y033726D01*
Y033274D01*
X023799Y033214D01*
X023832Y033163D01*
X023883Y033129D01*
X023943Y033117D01*
X024262D01*
X024322Y033129D01*
X024372Y033163D01*
X024406Y033214D01*
X024418Y033274D01*
Y033296D01*
X03085D01*
X030928Y033312D01*
X030994Y033356D01*
X032294Y034656D01*
X032294Y034656D01*
X032338Y034722D01*
X032354Y0348D01*
Y036804D01*
X032877D01*
Y037996D01*
X032304D01*
Y039111D01*
X032675D01*
Y040689D01*
X032254D01*
Y041396D01*
X034702D01*
X034741Y041369D01*
X034741Y041346D01*
Y04046D01*
X035453D01*
Y041346D01*
X035453Y041369D01*
X035491Y041396D01*
X037916D01*
X040762Y038549D01*
X040743Y038503D01*
X038609D01*
X03855Y038491D01*
X0385Y038458D01*
X038442Y0384D01*
X038409Y03835D01*
X038397Y038291D01*
Y037613D01*
X037542Y036758D01*
X037509Y036709D01*
X037497Y03665D01*
Y036172D01*
X037305D01*
Y03641D01*
X037327Y036463D01*
Y036533D01*
X0373Y036597D01*
X037251Y036646D01*
X037187Y036673D01*
X037117D01*
X037053Y036646D01*
X037004Y036597D01*
X036977Y036533D01*
Y036463D01*
X036999Y03641D01*
Y036172D01*
X036702D01*
Y035836D01*
X036602D01*
Y036172D01*
X035875D01*
Y035989D01*
X035609D01*
X03555Y035977D01*
X0355Y035944D01*
X035442Y035885D01*
X035409Y035836D01*
X035397Y035777D01*
Y033309D01*
X035409Y03325D01*
X035442Y0332D01*
X0355Y033142D01*
X03555Y033109D01*
X035609Y033097D01*
X038565D01*
X038585Y033051D01*
X037025Y031491D01*
X036975Y031512D01*
Y031535D01*
X036948Y031599D01*
X036899Y031648D01*
X036835Y031675D01*
X036765D01*
X036701Y031648D01*
X036652Y031599D01*
X03663Y031546D01*
X035587Y030503D01*
X031938D01*
X031885Y030525D01*
X031815D01*
X031751Y030498D01*
X031702Y030449D01*
X031675Y030385D01*
Y030315D01*
X031702Y030251D01*
X031725Y030228D01*
X031704Y030178D01*
X029257D01*
X029248Y030199D01*
X029199Y030248D01*
X029135Y030275D01*
X029065D01*
X029001Y030248D01*
X028952Y030199D01*
X028925Y030135D01*
Y030065D01*
X028952Y030001D01*
X029001Y029952D01*
X029065Y029925D01*
X029067D01*
X029075Y029917D01*
X029125Y029884D01*
X029184Y029872D01*
X03015D01*
X030175Y029835D01*
Y029765D01*
X030202Y029701D01*
X030251Y029652D01*
X030315Y029625D01*
X030385D01*
X030438Y029647D01*
X035681D01*
X0357Y029601D01*
X034202Y028103D01*
X02375D01*
X023691Y028091D01*
X023642Y028058D01*
X023092Y027508D01*
X023059Y027459D01*
X023047Y0274D01*
Y027218D01*
X022957Y027166D01*
X022884Y027093D01*
X022832Y027003D01*
X022805Y026902D01*
Y026798D01*
X022832Y026697D01*
X022884Y026607D01*
X022957Y026534D01*
X023047Y026482D01*
X023148Y026455D01*
X023252D01*
X023353Y026482D01*
X023443Y026534D01*
X023516Y026607D01*
X023568Y026697D01*
X023595Y026798D01*
Y026902D01*
X023568Y027003D01*
X023516Y027093D01*
X023443Y027166D01*
X023353Y027218D01*
Y027337D01*
X023813Y027797D01*
X024315D01*
X024335Y027751D01*
X024092Y027508D01*
X024059Y027459D01*
X024047Y0274D01*
Y027218D01*
X023957Y027166D01*
X023884Y027093D01*
X023832Y027003D01*
X023805Y026902D01*
Y026798D01*
X023832Y026697D01*
X023884Y026607D01*
X023957Y026534D01*
X024047Y026482D01*
X024148Y026455D01*
X024252D01*
X024353Y026482D01*
X024443Y026534D01*
X024516Y026607D01*
X024568Y026697D01*
X024595Y026798D01*
Y026902D01*
X024568Y027003D01*
X024516Y027093D01*
X024443Y027166D01*
X024353Y027218D01*
Y027337D01*
X024613Y027597D01*
X025665D01*
X025685Y027551D01*
X025352Y027218D01*
X025252Y027245D01*
X025148D01*
X025047Y027218D01*
X024957Y027166D01*
X024884Y027093D01*
X024832Y027003D01*
X024805Y026902D01*
Y026798D01*
X024832Y026697D01*
X024884Y026607D01*
X024957Y026534D01*
X025047Y026482D01*
X025148Y026455D01*
X025252D01*
X025353Y026482D01*
X025443Y026534D01*
X025516Y026607D01*
X025568Y026697D01*
X025595Y026798D01*
Y026902D01*
X025568Y027002D01*
X025963Y027397D01*
X026465D01*
X026485Y027351D01*
X026352Y027218D01*
X026252Y027245D01*
X026148D01*
X026047Y027218D01*
X025957Y027166D01*
X025884Y027093D01*
X025832Y027003D01*
X025805Y026902D01*
Y026798D01*
X025832Y026697D01*
X025884Y026607D01*
X025957Y026534D01*
X026047Y026482D01*
X026148Y026455D01*
X026252D01*
X026353Y026482D01*
X026443Y026534D01*
X026516Y026607D01*
X026568Y026697D01*
X026595Y026798D01*
Y026902D01*
X026568Y027002D01*
X026763Y027197D01*
X026917D01*
X026938Y027147D01*
X026884Y027093D01*
X026832Y027003D01*
X026805Y026902D01*
Y026798D01*
X026832Y026697D01*
X026884Y026607D01*
X026957Y026534D01*
X027047Y026482D01*
X027148Y026455D01*
X027252D01*
X027353Y026482D01*
X027443Y026534D01*
X027516Y026607D01*
X027568Y026697D01*
X03465D01*
X034709Y026709D01*
X034758Y026742D01*
X037496Y02948D01*
X037549Y029502D01*
X037598Y029551D01*
X03762Y029604D01*
X03821Y030193D01*
X038264Y030177D01*
X038282Y030132D01*
X038332Y030082D01*
X038396Y030056D01*
X038466D01*
X03853Y030082D01*
X038579Y030132D01*
X038601Y030185D01*
X039063Y030647D01*
X039315D01*
X039335Y030601D01*
X039154Y03042D01*
X039101Y030398D01*
X039052Y030349D01*
X039025Y030285D01*
Y030215D01*
X039052Y030151D01*
X039101Y030102D01*
X039165Y030075D01*
X039235D01*
X039299Y030102D01*
X039348Y030151D01*
X03937Y030204D01*
X039563Y030397D01*
X041184D01*
X041203Y030351D01*
X041202Y030349D01*
X041175Y030285D01*
Y030215D01*
X041202Y030151D01*
X041251Y030102D01*
X041304Y03008D01*
X041885Y029498D01*
X041935Y029465D01*
X041993Y029454D01*
X043655D01*
X043709Y029432D01*
X043778D01*
X043843Y029458D01*
X043892Y029507D01*
X043918Y029572D01*
Y029641D01*
X043892Y029706D01*
X043843Y029755D01*
X043778Y029781D01*
X043709D01*
X043655Y029759D01*
X042057D01*
X04152Y030296D01*
X041498Y030349D01*
X041497Y030351D01*
X041516Y030397D01*
X043462D01*
X043515Y030375D01*
X043585D01*
X043649Y030402D01*
X043698Y030451D01*
X043725Y030515D01*
Y030585D01*
X043723Y03059D01*
X043765Y030619D01*
X04388Y030504D01*
X043902Y030451D01*
X043951Y030402D01*
X044015Y030375D01*
X044085D01*
X044149Y030402D01*
X044198Y030451D01*
X044225Y030515D01*
Y030585D01*
X044224Y030588D01*
X044266Y030617D01*
X044354Y030529D01*
X044376Y030475D01*
X044425Y030426D01*
X04449Y030399D01*
X044559D01*
X044596Y030375D01*
Y030063D01*
X043254Y02872D01*
X043201Y028698D01*
X043152Y028649D01*
X043125Y028585D01*
Y028515D01*
X043152Y028451D01*
X043201Y028402D01*
X043265Y028375D01*
X043335D01*
X043399Y028402D01*
X043448Y028451D01*
X04347Y028504D01*
X044858Y029891D01*
X044891Y029941D01*
X044902Y029999D01*
Y031639D01*
X044891Y031697D01*
X044858Y031747D01*
X044482Y032122D01*
X044503Y032172D01*
X048912D01*
X049077Y032007D01*
X049093Y031968D01*
X049142Y031919D01*
X049207Y031892D01*
X049276D01*
X049341Y031919D01*
X04939Y031968D01*
X049416Y032032D01*
Y032102D01*
X04939Y032166D01*
X049341Y032215D01*
X049295Y032234D01*
X049298Y032284D01*
X0493Y032287D01*
X049337D01*
X049401Y032314D01*
X04945Y032363D01*
X049477Y032428D01*
Y032497D01*
X04945Y032561D01*
X049401Y032611D01*
X049389Y032616D01*
X049385Y032622D01*
X049326Y03268D01*
X049277Y032714D01*
X049218Y032725D01*
X041207D01*
X041188Y032771D01*
X041596Y03318D01*
X041649Y033202D01*
X041698Y033251D01*
X041725Y033315D01*
Y033385D01*
X041698Y033449D01*
X041649Y033498D01*
X041622Y03351D01*
X04161Y033569D01*
X041808Y033766D01*
X041841Y033816D01*
X041853Y033875D01*
Y034505D01*
X041898Y034551D01*
X041925Y034615D01*
Y034685D01*
X041903Y034738D01*
Y035865D01*
X041949Y035885D01*
X04413Y033704D01*
X044152Y033651D01*
X044201Y033602D01*
X044265Y033575D01*
X044335D01*
X044399Y033602D01*
X044448Y033651D01*
X044475Y033715D01*
Y033785D01*
X044448Y033849D01*
X044399Y033898D01*
X044346Y03392D01*
X042103Y036163D01*
Y037143D01*
X042149Y037162D01*
X045256Y034056D01*
X045322Y034012D01*
X0454Y033996D01*
X04925D01*
X049328Y034012D01*
X049394Y034056D01*
X049438Y034122D01*
X049454Y0342D01*
X049438Y034278D01*
X049394Y034344D01*
X049328Y034388D01*
X04925Y034404D01*
X045484D01*
X039474Y040414D01*
X039493Y04046D01*
X039653D01*
Y040865D01*
X039347D01*
Y040606D01*
X039301Y040587D01*
X038144Y041744D01*
X038135Y04175D01*
X038151Y0418D01*
X0448D01*
X044804Y041804D01*
X04485Y041785D01*
D02*
G37*
%LPC*%
G36*
X039653Y0374D02*
X039347D01*
Y036996D01*
X039653D01*
Y0374D01*
D02*
G37*
G36*
X041362Y036833D02*
X041252D01*
Y0365D01*
X041518D01*
Y036676D01*
X041506Y036736D01*
X041472Y036787D01*
X041422Y036821D01*
X041362Y036833D01*
D02*
G37*
G36*
X041152D02*
X041043D01*
X040983Y036821D01*
X040932Y036787D01*
X040899Y036736D01*
X040887Y036676D01*
Y0365D01*
X041152D01*
Y036833D01*
D02*
G37*
G36*
X041518Y0364D02*
X041202D01*
X040887D01*
Y036224D01*
X040899Y036164D01*
X040932Y036113D01*
X040983Y036079D01*
X041003Y036075D01*
Y036025D01*
X040983Y036021D01*
X040932Y035987D01*
X040899Y035936D01*
X040887Y035876D01*
Y0357D01*
X041202D01*
X041518D01*
Y035876D01*
X041506Y035936D01*
X041472Y035987D01*
X041422Y036021D01*
X041402Y036025D01*
Y036075D01*
X041422Y036079D01*
X041472Y036113D01*
X041506Y036164D01*
X041518Y036224D01*
Y0364D01*
D02*
G37*
G36*
Y0356D02*
X041202D01*
X040887D01*
Y035424D01*
X040899Y035364D01*
X040932Y035313D01*
X040983Y035279D01*
X041003Y035275D01*
Y035225D01*
X040983Y035221D01*
X040932Y035187D01*
X040899Y035136D01*
X040887Y035076D01*
Y0349D01*
X041202D01*
X041518D01*
Y035076D01*
X041506Y035136D01*
X041472Y035187D01*
X041422Y035221D01*
X041402Y035225D01*
Y035275D01*
X041422Y035279D01*
X041472Y035313D01*
X041506Y035364D01*
X041518Y035424D01*
Y0356D01*
D02*
G37*
G36*
X0496Y04175D02*
X049597D01*
X049496Y041723D01*
X049404Y04167D01*
X04933Y041596D01*
X049277Y041504D01*
X04925Y041403D01*
Y0414D01*
X0496D01*
Y04175D01*
D02*
G37*
G36*
X021203Y0417D02*
X0212D01*
Y04135D01*
X02155D01*
Y041353D01*
X021523Y041454D01*
X02147Y041546D01*
X021396Y04162D01*
X021304Y041673D01*
X021203Y0417D01*
D02*
G37*
G36*
X0211D02*
X021097D01*
X020996Y041673D01*
X020904Y04162D01*
X02083Y041546D01*
X020777Y041454D01*
X02075Y041353D01*
Y04135D01*
X0211D01*
Y0417D01*
D02*
G37*
G36*
X024972Y041273D02*
X02465D01*
Y041032D01*
X024972D01*
Y041273D01*
D02*
G37*
G36*
X02455D02*
X024228D01*
Y041032D01*
X02455D01*
Y041273D01*
D02*
G37*
G36*
X028872Y041207D02*
X02855D01*
Y040966D01*
X028872D01*
Y041207D01*
D02*
G37*
G36*
X02845D02*
X028128D01*
Y040966D01*
X02845D01*
Y041207D01*
D02*
G37*
G36*
X040059Y041369D02*
X039753D01*
Y040965D01*
X040059D01*
Y041369D01*
D02*
G37*
G36*
X039653D02*
X039347D01*
Y040965D01*
X039653D01*
Y041369D01*
D02*
G37*
G36*
X0496Y0413D02*
X04925D01*
Y041297D01*
X049277Y041196D01*
X04933Y041104D01*
X049404Y04103D01*
X049496Y040977D01*
X049597Y04095D01*
X0496D01*
Y0413D01*
D02*
G37*
G36*
X028872Y040866D02*
X02855D01*
Y040625D01*
X028872D01*
Y040866D01*
D02*
G37*
G36*
X02845D02*
X028128D01*
Y040625D01*
X02845D01*
Y040866D01*
D02*
G37*
G36*
X022167Y041051D02*
X0217D01*
Y040552D01*
X022167D01*
Y041051D01*
D02*
G37*
G36*
X02155Y04125D02*
X02075D01*
Y041247D01*
X020777Y041146D01*
X02083Y041054D01*
X020904Y04098D01*
X020996Y040927D01*
X021097Y0409D01*
X021133D01*
Y040552D01*
X0216D01*
Y041051D01*
X021526D01*
X021497Y041101D01*
X021523Y041146D01*
X02155Y041247D01*
Y04125D01*
D02*
G37*
G36*
X040059Y040865D02*
X039753D01*
Y04046D01*
X040059D01*
Y040865D01*
D02*
G37*
G36*
X027872Y040525D02*
X02755D01*
Y040284D01*
X027872D01*
Y040525D01*
D02*
G37*
G36*
X02745D02*
X027128D01*
Y040284D01*
X02745D01*
Y040525D01*
D02*
G37*
G36*
X022167Y040452D02*
X0217D01*
Y039954D01*
X022167D01*
Y040452D01*
D02*
G37*
G36*
X0216D02*
X021133D01*
Y039954D01*
X0216D01*
Y040452D01*
D02*
G37*
G36*
X027872Y040184D02*
X02755D01*
Y039943D01*
X027872D01*
Y040184D01*
D02*
G37*
G36*
X02745D02*
X027128D01*
Y039943D01*
X02745D01*
Y040184D01*
D02*
G37*
G36*
X023141Y040172D02*
X0229D01*
Y03985D01*
X023141D01*
Y040172D01*
D02*
G37*
G36*
X0228D02*
X022559D01*
Y03985D01*
X0228D01*
Y040172D01*
D02*
G37*
G36*
X027918Y039688D02*
X027568D01*
Y0395D01*
X027918D01*
Y039688D01*
D02*
G37*
G36*
X027468D02*
X027118D01*
Y0395D01*
X027468D01*
Y039688D01*
D02*
G37*
G36*
X030706Y040689D02*
X029325D01*
Y039853D01*
X029109D01*
X02905Y039841D01*
X029Y039808D01*
X028942Y03975D01*
X028909Y0397D01*
X028897Y039641D01*
Y037188D01*
X028875Y037135D01*
Y037065D01*
X028897Y037012D01*
Y03525D01*
X028909Y035191D01*
X028942Y035142D01*
X029392Y034692D01*
X029441Y034659D01*
X0295Y034647D01*
X029617D01*
Y034074D01*
X030703D01*
Y035526D01*
X029617D01*
Y034953D01*
X029563D01*
X029203Y035313D01*
Y037012D01*
X029225Y037065D01*
Y037135D01*
X029203Y037188D01*
Y039547D01*
X029325D01*
Y039111D01*
X030706D01*
Y040689D01*
D02*
G37*
G36*
X027054Y039479D02*
X0265D01*
Y03875D01*
X027054D01*
Y039479D01*
D02*
G37*
G36*
X0264D02*
X025846D01*
Y03875D01*
X0264D01*
Y039479D01*
D02*
G37*
G36*
X027054Y03865D02*
X0265D01*
Y037921D01*
X027054D01*
Y03865D01*
D02*
G37*
G36*
X0264D02*
X025846D01*
Y037921D01*
X0264D01*
Y03865D01*
D02*
G37*
G36*
X035453Y037904D02*
X035147D01*
Y0375D01*
X035453D01*
Y037904D01*
D02*
G37*
G36*
X035047D02*
X034741D01*
Y0375D01*
X035047D01*
Y037904D01*
D02*
G37*
G36*
X030428Y037996D02*
X029926D01*
Y03745D01*
X030428D01*
Y037996D01*
D02*
G37*
G36*
X029826D02*
X029323D01*
Y03745D01*
X029826D01*
Y037996D01*
D02*
G37*
G36*
X035453Y0374D02*
X035147D01*
Y036996D01*
X035453D01*
Y0374D01*
D02*
G37*
G36*
X035047D02*
X034741D01*
Y036996D01*
X035047D01*
Y0374D01*
D02*
G37*
G36*
X030428Y03735D02*
X029926D01*
Y036804D01*
X030428D01*
Y03735D01*
D02*
G37*
G36*
X029826D02*
X029323D01*
Y036804D01*
X029826D01*
Y03735D01*
D02*
G37*
G36*
X023965Y036496D02*
X0236D01*
Y035816D01*
X023965D01*
Y036496D01*
D02*
G37*
G36*
X0235D02*
X023135D01*
Y035816D01*
X0235D01*
Y036496D01*
D02*
G37*
G36*
X023965Y035716D02*
X0236D01*
Y035036D01*
X023965D01*
Y035716D01*
D02*
G37*
G36*
X0235D02*
X023135D01*
Y035036D01*
X0235D01*
Y035716D01*
D02*
G37*
G36*
X02178Y036674D02*
X02142D01*
X021357Y036662D01*
X021305Y036626D01*
X021269Y036573D01*
X021257Y036511D01*
Y036143D01*
X021269Y03608D01*
X021305Y036027D01*
X021357Y035992D01*
X021396Y035984D01*
Y0358D01*
X021075D01*
Y03495D01*
X022075D01*
Y0358D01*
X021804D01*
Y035984D01*
X021843Y035992D01*
X021895Y036027D01*
X021931Y03608D01*
X021943Y036143D01*
Y036511D01*
X021931Y036573D01*
X021895Y036626D01*
X021843Y036662D01*
X02178Y036674D01*
D02*
G37*
G36*
X027983Y035526D02*
X02749D01*
Y03485D01*
X027983D01*
Y035526D01*
D02*
G37*
G36*
X02739D02*
X026897D01*
Y03485D01*
X02739D01*
Y035526D01*
D02*
G37*
G36*
X025007Y034783D02*
X024898D01*
Y03445D01*
X025163D01*
Y034626D01*
X025151Y034686D01*
X025117Y034737D01*
X025067Y034771D01*
X025007Y034783D01*
D02*
G37*
G36*
X024798D02*
X024688D01*
X024628Y034771D01*
X024578Y034737D01*
X024544Y034686D01*
X024532Y034626D01*
Y03445D01*
X024798D01*
Y034783D01*
D02*
G37*
G36*
X023557D02*
X023448D01*
Y03445D01*
X023713D01*
Y034626D01*
X023701Y034686D01*
X023668Y034737D01*
X023617Y034771D01*
X023557Y034783D01*
D02*
G37*
G36*
X023348D02*
X023238D01*
X023178Y034771D01*
X023128Y034737D01*
X023094Y034686D01*
X023082Y034626D01*
Y03445D01*
X023348D01*
Y034783D01*
D02*
G37*
G36*
X027983Y03475D02*
X02749D01*
Y034074D01*
X027983D01*
Y03475D01*
D02*
G37*
G36*
X02739D02*
X026897D01*
Y034074D01*
X02739D01*
Y03475D01*
D02*
G37*
G36*
X025163Y03435D02*
X024898D01*
Y034017D01*
X025007D01*
X025067Y034029D01*
X025117Y034063D01*
X025151Y034114D01*
X025163Y034174D01*
Y03435D01*
D02*
G37*
G36*
X024798D02*
X024532D01*
Y034174D01*
X024544Y034114D01*
X024578Y034063D01*
X024628Y034029D01*
X024688Y034017D01*
X024798D01*
Y03435D01*
D02*
G37*
G36*
X023713D02*
X023448D01*
Y034017D01*
X023557D01*
X023617Y034029D01*
X023668Y034063D01*
X023701Y034114D01*
X023713Y034174D01*
Y03435D01*
D02*
G37*
G36*
X023348D02*
X023082D01*
Y034174D01*
X023094Y034114D01*
X023128Y034063D01*
X023178Y034029D01*
X023238Y034017D01*
X023348D01*
Y03435D01*
D02*
G37*
G36*
X023557Y033883D02*
X023448D01*
Y03355D01*
X023713D01*
Y033726D01*
X023701Y033786D01*
X023668Y033837D01*
X023617Y033871D01*
X023557Y033883D01*
D02*
G37*
G36*
X023348D02*
X023238D01*
X023178Y033871D01*
X023128Y033837D01*
X023094Y033786D01*
X023082Y033726D01*
Y03355D01*
X023348D01*
Y033883D01*
D02*
G37*
G36*
X023713Y03345D02*
X023448D01*
Y033117D01*
X023557D01*
X023617Y033129D01*
X023668Y033163D01*
X023701Y033214D01*
X023713Y033274D01*
Y03345D01*
D02*
G37*
G36*
X023348D02*
X023082D01*
Y033274D01*
X023094Y033214D01*
X023128Y033163D01*
X023178Y033129D01*
X023238Y033117D01*
X023348D01*
Y03345D01*
D02*
G37*
G36*
X022075Y034548D02*
X021075D01*
Y033698D01*
X021446D01*
Y033439D01*
X021407Y033416D01*
X021334Y033343D01*
X021282Y033253D01*
X021255Y033152D01*
Y033048D01*
X021282Y032947D01*
X021334Y032857D01*
X021407Y032784D01*
X021497Y032732D01*
X021598Y032705D01*
X021702D01*
X021803Y032732D01*
X021893Y032784D01*
X021966Y032857D01*
X022018Y032947D01*
X022045Y033048D01*
Y033152D01*
X022018Y033253D01*
X021966Y033343D01*
X021893Y033416D01*
X021854Y033439D01*
Y033698D01*
X022075D01*
Y034548D01*
D02*
G37*
G36*
X021702Y032495D02*
X0217D01*
Y03215D01*
X022045D01*
Y032152D01*
X022018Y032253D01*
X021966Y032343D01*
X021893Y032416D01*
X021803Y032468D01*
X021702Y032495D01*
D02*
G37*
G36*
X0216D02*
X021598D01*
X021497Y032468D01*
X021407Y032416D01*
X021334Y032343D01*
X021282Y032253D01*
X021255Y032152D01*
Y03215D01*
X0216D01*
Y032495D01*
D02*
G37*
G36*
X022045Y03205D02*
X0217D01*
Y031705D01*
X021702D01*
X021803Y031732D01*
X021893Y031784D01*
X021966Y031857D01*
X022018Y031947D01*
X022045Y032048D01*
Y03205D01*
D02*
G37*
G36*
X0216D02*
X021255D01*
Y032048D01*
X021282Y031947D01*
X021334Y031857D01*
X021407Y031784D01*
X021497Y031732D01*
X021598Y031705D01*
X0216D01*
Y03205D01*
D02*
G37*
G36*
X021702Y031495D02*
X021598D01*
X021497Y031468D01*
X021407Y031416D01*
X021334Y031343D01*
X021282Y031253D01*
X021255Y031152D01*
Y031048D01*
X021282Y030947D01*
X021334Y030857D01*
X021407Y030784D01*
X021497Y030732D01*
X021598Y030705D01*
X021702D01*
X021803Y030732D01*
X021893Y030784D01*
X021966Y030857D01*
X022018Y030947D01*
X022045Y031048D01*
Y031152D01*
X022018Y031253D01*
X021966Y031343D01*
X021893Y031416D01*
X021803Y031468D01*
X021702Y031495D01*
D02*
G37*
G36*
Y030495D02*
X021598D01*
X021497Y030468D01*
X021407Y030416D01*
X021334Y030343D01*
X021282Y030253D01*
X021255Y030152D01*
Y030048D01*
X021282Y029947D01*
X021334Y029857D01*
X021407Y029784D01*
X021497Y029732D01*
X021598Y029705D01*
X021702D01*
X021803Y029732D01*
X021893Y029784D01*
X021966Y029857D01*
X022018Y029947D01*
X022045Y030048D01*
Y030152D01*
X022018Y030253D01*
X021966Y030343D01*
X021893Y030416D01*
X021803Y030468D01*
X021702Y030495D01*
D02*
G37*
G36*
Y029495D02*
X021598D01*
X021497Y029468D01*
X021407Y029416D01*
X021334Y029343D01*
X021282Y029253D01*
X021255Y029152D01*
Y029048D01*
X021282Y028947D01*
X021334Y028857D01*
X021407Y028784D01*
X021497Y028732D01*
X021598Y028705D01*
X021702D01*
X021803Y028732D01*
X021893Y028784D01*
X021966Y028857D01*
X022018Y028947D01*
X022045Y029048D01*
Y029152D01*
X022018Y029253D01*
X021966Y029343D01*
X021893Y029416D01*
X021803Y029468D01*
X021702Y029495D01*
D02*
G37*
G36*
X039909Y028452D02*
X039891D01*
Y028213D01*
X040192D01*
X040189Y028238D01*
X04016Y028308D01*
X040114Y028368D01*
X040054Y028414D01*
X039984Y028443D01*
X039909Y028452D01*
D02*
G37*
G36*
X039791D02*
X039772D01*
X039697Y028443D01*
X039627Y028414D01*
X039567Y028368D01*
X039521Y028308D01*
X039492Y028238D01*
X039489Y028213D01*
X039791D01*
Y028452D01*
D02*
G37*
G36*
X037941D02*
X037922D01*
Y028213D01*
X038224D01*
X038221Y028238D01*
X038192Y028308D01*
X038146Y028368D01*
X038086Y028414D01*
X038016Y028443D01*
X037941Y028452D01*
D02*
G37*
G36*
X037822D02*
X037803D01*
X037728Y028443D01*
X037658Y028414D01*
X037598Y028368D01*
X037552Y028308D01*
X037524Y028238D01*
X03752Y028213D01*
X037822D01*
Y028452D01*
D02*
G37*
G36*
X040192Y028113D02*
X039891D01*
Y027874D01*
X039909D01*
X039984Y027883D01*
X040054Y027912D01*
X040114Y027958D01*
X04016Y028018D01*
X040189Y028088D01*
X040192Y028113D01*
D02*
G37*
G36*
X039791D02*
X039489D01*
X039492Y028088D01*
X039521Y028018D01*
X039567Y027958D01*
X039627Y027912D01*
X039697Y027883D01*
X039772Y027874D01*
X039791D01*
Y028113D01*
D02*
G37*
G36*
X038224D02*
X037922D01*
Y027874D01*
X037941D01*
X038016Y027883D01*
X038086Y027912D01*
X038146Y027958D01*
X038192Y028018D01*
X038221Y028088D01*
X038224Y028113D01*
D02*
G37*
G36*
X037822D02*
X03752D01*
X037524Y028088D01*
X037552Y028018D01*
X037598Y027958D01*
X037658Y027912D01*
X037728Y027883D01*
X037803Y027874D01*
X037822D01*
Y028113D01*
D02*
G37*
G36*
X022045Y028495D02*
X021255D01*
Y027705D01*
X022045D01*
Y028495D01*
D02*
G37*
G36*
X040284Y0275D02*
Y02715D01*
X040492D01*
Y027253D01*
X040472Y027351D01*
X040416Y027435D01*
X040333Y02749D01*
X040284Y0275D01*
D02*
G37*
G36*
X037528D02*
Y02715D01*
X037736D01*
Y027253D01*
X037716Y027351D01*
X03766Y027435D01*
X037577Y02749D01*
X037528Y0275D01*
D02*
G37*
G36*
X040184D02*
X040136Y02749D01*
X040052Y027435D01*
X039996Y027351D01*
X039977Y027253D01*
Y02715D01*
X040184D01*
Y0275D01*
D02*
G37*
G36*
X037428D02*
X03738Y02749D01*
X037296Y027435D01*
X03724Y027351D01*
X037221Y027253D01*
Y02715D01*
X037428D01*
Y0275D01*
D02*
G37*
G36*
X022595Y027245D02*
X02225D01*
Y0269D01*
X022595D01*
Y027245D01*
D02*
G37*
G36*
X02215D02*
X021805D01*
Y0269D01*
X02215D01*
Y027245D01*
D02*
G37*
G36*
X021203Y02705D02*
X0212D01*
Y0267D01*
X02155D01*
Y026703D01*
X021523Y026804D01*
X02147Y026896D01*
X021396Y02697D01*
X021304Y027023D01*
X021203Y02705D01*
D02*
G37*
G36*
X0211D02*
X021097D01*
X020996Y027023D01*
X020904Y02697D01*
X02083Y026896D01*
X020777Y026804D01*
X02075Y026703D01*
Y0267D01*
X0211D01*
Y02705D01*
D02*
G37*
G36*
X040492D02*
X040284D01*
Y0267D01*
X040333Y02671D01*
X040416Y026765D01*
X040472Y026849D01*
X040492Y026947D01*
Y02705D01*
D02*
G37*
G36*
X037736D02*
X037528D01*
Y0267D01*
X037577Y02671D01*
X03766Y026765D01*
X037716Y026849D01*
X037736Y026947D01*
Y02705D01*
D02*
G37*
G36*
X040184D02*
X039977D01*
Y026947D01*
X039996Y026849D01*
X040052Y026765D01*
X040136Y02671D01*
X040184Y0267D01*
Y02705D01*
D02*
G37*
G36*
X037428D02*
X037221D01*
Y026947D01*
X03724Y026849D01*
X037296Y026765D01*
X03738Y02671D01*
X037428Y0267D01*
Y02705D01*
D02*
G37*
G36*
X049653Y027D02*
X04965D01*
Y02665D01*
X05D01*
Y026653D01*
X049973Y026754D01*
X04992Y026846D01*
X049846Y02692D01*
X049754Y026973D01*
X049653Y027D01*
D02*
G37*
G36*
X04955D02*
X049547D01*
X049446Y026973D01*
X049354Y02692D01*
X04928Y026846D01*
X049227Y026754D01*
X0492Y026653D01*
Y02665D01*
X04955D01*
Y027D01*
D02*
G37*
G36*
X022595Y0268D02*
X02225D01*
Y026455D01*
X022595D01*
Y0268D01*
D02*
G37*
G36*
X02215D02*
X021805D01*
Y026455D01*
X02215D01*
Y0268D01*
D02*
G37*
G36*
X02155Y0266D02*
X0212D01*
Y02625D01*
X021203D01*
X021304Y026277D01*
X021396Y02633D01*
X02147Y026404D01*
X021523Y026496D01*
X02155Y026597D01*
Y0266D01*
D02*
G37*
G36*
X0211D02*
X02075D01*
Y026597D01*
X020777Y026496D01*
X02083Y026404D01*
X020904Y02633D01*
X020996Y026277D01*
X021097Y02625D01*
X0211D01*
Y0266D01*
D02*
G37*
G36*
X05Y02655D02*
X04965D01*
Y0262D01*
X049653D01*
X049754Y026227D01*
X049846Y02628D01*
X04992Y026354D01*
X049973Y026446D01*
X05Y026547D01*
Y02655D01*
D02*
G37*
G36*
X04955D02*
X0492D01*
Y026547D01*
X049227Y026446D01*
X04928Y026354D01*
X049354Y02628D01*
X049446Y026227D01*
X049547Y0262D01*
X04955D01*
Y02655D01*
D02*
G37*
%LPD*%
D13*
X041202Y03445D02*
Y03485D01*
Y03405D02*
Y03445D01*
X04145D01*
X0417Y033875D02*
Y034586D01*
X04175Y034636D01*
X041425Y0336D02*
X0417Y033875D01*
X04175Y034636D02*
Y036894D01*
X02555Y036602D02*
Y037862D01*
X025548Y0366D02*
X02555Y036602D01*
X025382Y03795D02*
X025462D01*
X02555Y037862D01*
X02905Y03525D02*
Y039641D01*
X029109Y0397D01*
X029816D01*
X02905Y03525D02*
X0295Y0348D01*
X03016D01*
X029816Y0397D02*
X030016Y0399D01*
X027439Y039529D02*
X0275Y039468D01*
Y040234D01*
Y039468D02*
X027518Y03945D01*
X02845Y03895D02*
X0285Y039D01*
X027518Y03895D02*
X02845D01*
X026949Y039529D02*
X027439D01*
X026878Y0396D02*
X026949Y039529D01*
X02655Y0396D02*
X026878D01*
X02645Y0395D02*
X02655Y0396D01*
X02645Y0387D02*
Y0395D01*
X027505Y03795D02*
X027518D01*
X027418Y037862D02*
X027505Y03795D01*
X0246Y04025D02*
X025539D01*
X025382Y03945D02*
Y040093D01*
X025539Y04025D01*
X025584D01*
X023566Y03905D02*
Y039784D01*
X023582Y0398D01*
X023566Y03905D02*
X02385D01*
X02445Y03845D01*
X025382D01*
X024178Y0395D02*
Y040507D01*
X024728Y03895D02*
X025382D01*
X024178Y0395D02*
X024728Y03895D01*
X023566Y039966D02*
X0236Y04D01*
X027418Y037598D02*
Y037862D01*
X02697Y03715D02*
X027418Y037598D01*
X021575Y034123D02*
X02165Y034048D01*
X0285Y039D02*
Y040184D01*
X041318Y037706D02*
Y037928D01*
X038609Y03835D02*
X040896D01*
X041318Y037928D01*
X023398Y0344D02*
X023398Y0344D01*
X023398Y0335D02*
Y0344D01*
X023398Y0335D02*
X023398Y0335D01*
X023398Y035613D02*
X02355Y035766D01*
X023398Y0344D02*
Y035613D01*
X024848Y0344D02*
Y034467D01*
X024129Y035186D02*
X024848Y034467D01*
X023815Y035186D02*
X024129D01*
X02355Y035451D02*
X023815Y035186D01*
X02355Y035451D02*
Y035766D01*
X023124Y040982D02*
X0246D01*
X022741Y0406D02*
X023124Y040982D01*
X0228Y03985D02*
Y040541D01*
X02165Y040602D02*
X021652Y0406D01*
X022741D01*
X0228Y040541D01*
Y03985D02*
X02285Y0398D01*
X0275Y040234D02*
X027581D01*
X028122Y040775D01*
X028359D01*
X0285Y040916D01*
X03565Y03035D02*
X0368Y0315D01*
X03185Y03035D02*
X03565D01*
X0368Y0336D02*
Y03405D01*
Y03355D02*
Y0336D01*
X029184Y030025D02*
X035775D01*
X03035Y0298D02*
X035833D01*
X035775Y030025D02*
X03875Y033D01*
X0291Y0301D02*
X029109D01*
X029184Y030025D01*
X035833Y0298D02*
X038808Y032775D01*
X0368Y03405D02*
X03685Y0341D01*
X032435Y037511D02*
X032546Y0374D01*
X0321Y037846D02*
X032435Y037511D01*
X0272Y02685D02*
X03465D01*
X03745Y02965D01*
X0388Y031D01*
X041993Y029606D02*
X043744D01*
X04135Y03025D02*
X041993Y029606D01*
X03875Y03675D02*
X0401Y0354D01*
Y034909D02*
Y0354D01*
X040135Y03565D02*
X040498D01*
X03924Y036545D02*
X040135Y03565D01*
X03924Y036545D02*
Y03674D01*
X03925Y03675D01*
X038652Y03632D02*
X038709Y036377D01*
Y036391D01*
X038652Y035836D02*
Y03632D01*
X0401Y034909D02*
X040159Y03485D01*
X03965Y0314D02*
X03975Y0315D01*
X03835Y0314D02*
X03965D01*
X02375Y02795D02*
X034266D01*
X038888Y032572D02*
X049218D01*
X038808Y032775D02*
X040975D01*
X03875Y033D02*
X04075D01*
X034266Y02795D02*
X038888Y032572D01*
X049302Y032462D02*
Y032476D01*
X049277Y032501D02*
X049302Y032476D01*
X049218Y032572D02*
X049277Y032514D01*
Y032501D02*
Y032514D01*
X040975Y032775D02*
X04155Y03335D01*
X048975Y032325D02*
X049233Y032067D01*
X038975Y032325D02*
X048975D01*
X0344Y02775D02*
X038975Y032325D01*
X03555Y033309D02*
X035609Y03325D01*
X03555Y033309D02*
Y035777D01*
X035609Y03325D02*
X0387D01*
Y034D01*
Y03325D02*
X040076D01*
X040426Y0336D01*
X0345Y02755D02*
X03835Y0314D01*
X049233Y032067D02*
X049241D01*
X0232Y0274D02*
X02375Y02795D01*
X0232Y02685D02*
Y0274D01*
X0252Y02685D02*
X0259Y02755D01*
X0242Y0274D02*
X02455Y02775D01*
X0344D01*
X0259Y02755D02*
X0345D01*
X0242Y02685D02*
Y0274D01*
X0267Y02735D02*
X0347D01*
X0262Y02685D02*
X0267Y02735D01*
X0347D02*
X0378Y03045D01*
X0388Y031D02*
X044099D01*
X044524Y030574D01*
X0392Y03025D02*
X0395Y03055D01*
X04355D01*
X038431Y030231D02*
X039Y0308D01*
X0438D01*
X044288Y0321D02*
X044749Y031639D01*
Y029999D02*
Y031639D01*
X0433Y02855D02*
X044749Y029999D01*
X0438Y0308D02*
X04405Y03055D01*
X0395Y03355D02*
Y0341D01*
X036Y033666D02*
Y034084D01*
X03775Y033666D02*
Y0341D01*
X03215Y037226D02*
X032324Y0374D01*
X031984Y0399D02*
X0321Y039784D01*
X024102Y0344D02*
X024102Y0344D01*
X0256Y041441D02*
X025659Y0415D01*
X024102Y0335D02*
X024102Y0335D01*
Y0344D01*
X02625Y036652D02*
Y037091D01*
Y036652D02*
X026252Y03665D01*
X02625Y037091D02*
X026309Y03715D01*
X02505Y036059D02*
X025109Y036D01*
X02555D02*
X025552Y035998D01*
X024178Y040507D02*
X024271Y0406D01*
X026178D01*
X026533Y040245D02*
X0266D01*
X026178Y0406D02*
X026533Y040245D01*
X027484Y04095D02*
X0275Y040966D01*
X0266Y04095D02*
X027484D01*
X026309Y03715D02*
X02697D01*
X02165Y03915D02*
X02175Y03905D01*
X0216Y0391D02*
X02165Y03915D01*
X04195Y0361D02*
X0443Y03375D01*
X035609Y035836D02*
X036152D01*
X03555Y035777D02*
X035609Y035836D01*
X021525Y035425D02*
X021575Y035375D01*
X040159Y03485D02*
X040498D01*
X04Y03645D02*
X040498D01*
X0386Y034832D02*
X0395D01*
X0386Y0341D02*
X0387Y034D01*
X04055Y037733D02*
Y038041D01*
X041318Y037194D02*
X041345Y037167D01*
X040577Y037706D02*
X040582D01*
X041345Y037679D02*
X041564D01*
X041345Y037167D02*
X041477D01*
X041318Y037706D02*
X041345Y037679D01*
X04055Y037733D02*
X040577Y037706D01*
X041564Y037679D02*
X04195Y037293D01*
X04015Y03705D02*
Y03735D01*
X03875Y036741D02*
Y038041D01*
X03855Y03755D02*
Y038291D01*
X03985Y03675D02*
X04015Y03705D01*
X03925Y03675D02*
X03985D01*
X037141Y035825D02*
X037152Y035836D01*
X037141Y0354D02*
Y035825D01*
X037152Y035836D02*
Y036498D01*
X036Y0352D02*
X0362Y0354D01*
X03715Y0365D02*
X037152Y036498D01*
X0362Y0354D02*
X037141D01*
X036909Y0352D02*
X037491D01*
X040534Y036487D02*
Y037167D01*
X04195Y0361D02*
Y037293D01*
X041477Y037167D02*
X04175Y036894D01*
X040498Y03645D02*
X040534Y036487D01*
X040426Y0336D02*
X041425D01*
X040498Y033672D02*
Y03405D01*
X040426Y0336D02*
X040498Y033672D01*
X038152Y035836D02*
Y036798D01*
X03765Y03665D02*
X03855Y03755D01*
X03815Y0368D02*
X038152Y036798D01*
X03765Y035836D02*
Y03665D01*
X0386Y035784D02*
X038652Y035836D01*
X0386Y034832D02*
Y035784D01*
X03685Y035141D02*
X036909Y0352D01*
X03685Y034832D02*
Y035141D01*
X036Y034816D02*
Y0352D01*
X040561Y037194D02*
X040582D01*
X040223Y037423D02*
X040555D01*
X040534Y037167D02*
X040561Y037194D01*
X040555Y037423D02*
X040582Y03745D01*
X040491Y0381D02*
X04055Y038041D01*
X03855Y038291D02*
X038609Y03835D01*
X03875Y038041D02*
X038809Y0381D01*
X040491D01*
X04015Y03735D02*
X040223Y037423D01*
X03785Y034932D02*
Y0352D01*
X038152Y035502D01*
Y035836D01*
X037491Y0352D02*
X03765Y035359D01*
Y035836D01*
X03775Y034832D02*
X03785Y034932D01*
D17*
X0285Y040184D02*
D03*
Y040916D02*
D03*
X0246Y04025D02*
D03*
Y040982D02*
D03*
X0256Y040234D02*
D03*
Y040966D02*
D03*
X0275Y040966D02*
D03*
Y040234D02*
D03*
X036Y034816D02*
D03*
Y034084D02*
D03*
X0395Y034832D02*
D03*
Y0341D02*
D03*
X0386Y034832D02*
D03*
Y0341D02*
D03*
X03685Y034832D02*
D03*
Y0341D02*
D03*
X03775Y034832D02*
D03*
Y0341D02*
D03*
D19*
X022834Y03905D02*
D03*
X023566D02*
D03*
X02285Y0398D02*
D03*
X023582D02*
D03*
D22*
X0266Y040245D02*
D03*
Y04095D02*
D03*
D32*
X024102Y0344D02*
D03*
X023398D02*
D03*
X024102Y0335D02*
D03*
X023398D02*
D03*
X025548Y0366D02*
D03*
X026252D02*
D03*
X025552Y0344D02*
D03*
X024848D02*
D03*
X040498Y03485D02*
D03*
X041202D02*
D03*
X040498Y03645D02*
D03*
X041202D02*
D03*
X040498Y03565D02*
D03*
X041202D02*
D03*
X040498Y03405D02*
D03*
X041202D02*
D03*
D66*
X040234Y0271D02*
D03*
X037478D02*
D03*
D72*
X028124Y03845D02*
X028241Y038333D01*
Y036D02*
Y038333D01*
X027518Y03845D02*
X028124D01*
X02165Y0331D02*
Y034048D01*
X0454Y0342D02*
X04925D01*
X038Y0416D02*
X0454Y0342D01*
X03205Y0416D02*
X038D01*
X024102Y0335D02*
X02645D01*
X02645D02*
X03085D01*
X02645D02*
X02645Y0335D01*
X02645Y0335D01*
X03085D02*
X03215Y0348D01*
Y037226D01*
X031984Y0399D02*
X03205Y039966D01*
X0321Y037846D02*
Y039784D01*
X0256Y040966D02*
Y041441D01*
X025659Y0415D02*
X025759Y0416D01*
X03205D01*
Y039966D02*
Y0416D01*
X032324Y0374D02*
X032546D01*
X02505Y036059D02*
Y03675D01*
X025109Y036D02*
X02555D01*
X025552Y0344D02*
Y035998D01*
X02555Y036D02*
X028241D01*
X0216Y037787D02*
Y0391D01*
Y03555D02*
Y036327D01*
Y037787D02*
X023498D01*
X02175Y03905D02*
X022834D01*
X02355Y037734D02*
X024066D01*
X02505Y03675D01*
D73*
X0392Y03025D02*
D03*
X044524Y030574D02*
D03*
X04355Y03055D02*
D03*
X038431Y030231D02*
D03*
X02565Y0335D02*
D03*
X049302Y032462D02*
D03*
X03205Y0416D02*
D03*
X04145Y03445D02*
D03*
X04085D02*
D03*
X02555Y0373D02*
D03*
X02905Y0371D02*
D03*
X03185Y03035D02*
D03*
X0368Y0336D02*
D03*
Y0315D02*
D03*
X02905Y0335D02*
D03*
X02645D02*
D03*
X0291Y0301D02*
D03*
X038709Y036391D02*
D03*
X04135Y03025D02*
D03*
X03975Y0315D02*
D03*
X043744Y029606D02*
D03*
X03035Y0298D02*
D03*
X04075Y033D02*
D03*
X04155Y03335D02*
D03*
X049241Y032067D02*
D03*
X0378Y03045D02*
D03*
X0433Y02855D02*
D03*
X04405Y03055D02*
D03*
X03745Y02965D02*
D03*
X044288Y0321D02*
D03*
X0395Y03355D02*
D03*
X036Y033666D02*
D03*
X03775D02*
D03*
X04925Y0342D02*
D03*
X0443Y03375D02*
D03*
X04175Y03465D02*
D03*
X03875Y03675D02*
D03*
X03925D02*
D03*
X038152Y036798D02*
D03*
X037152Y036498D02*
D03*
X04Y03645D02*
D03*
D74*
X046Y0385D02*
D03*
D75*
X04965Y04135D02*
D03*
X0496Y0266D02*
D03*
X02115Y02665D02*
D03*
Y0413D02*
D03*
D76*
X02165Y0281D02*
D03*
D77*
Y0291D02*
D03*
Y0301D02*
D03*
Y0311D02*
D03*
Y0321D02*
D03*
Y0331D02*
D03*
X0232Y02685D02*
D03*
X0242D02*
D03*
X0252D02*
D03*
X0262D02*
D03*
X0272D02*
D03*
D78*
X0222D02*
D03*
D79*
X039841Y028163D02*
D03*
X037872D02*
D03*
D80*
X025382Y03795D02*
D03*
Y03845D02*
D03*
Y03895D02*
D03*
Y03945D02*
D03*
X027518D02*
D03*
Y03895D02*
D03*
Y03845D02*
D03*
Y03795D02*
D03*
D81*
X02645Y0387D02*
D03*
D82*
X029876Y0374D02*
D03*
X032324D02*
D03*
D83*
X030016Y0399D02*
D03*
X031984D02*
D03*
D84*
X02744Y0348D02*
D03*
X03016D02*
D03*
D85*
X02165Y038798D02*
D03*
Y040502D02*
D03*
D86*
X021575Y034123D02*
D03*
Y035375D02*
D03*
D87*
X0216Y0375D02*
D03*
Y036327D02*
D03*
D88*
X038652Y035836D02*
D03*
X038152D02*
D03*
X037652D02*
D03*
X037152D02*
D03*
X036652D02*
D03*
X036152D02*
D03*
D89*
X039703Y040915D02*
D03*
X035097D02*
D03*
Y03745D02*
D03*
X039703D02*
D03*
D90*
X02355Y037734D02*
D03*
Y035766D02*
D03*
D91*
X041318Y037706D02*
D03*
Y03745D02*
D03*
Y037194D02*
D03*
X040582D02*
D03*
Y03745D02*
D03*
Y037706D02*
D03*
M02*
