G04*
G04 #@! TF.GenerationSoftware,Altium Limited,Altium Designer,21.3.2 (30)*
G04*
G04 Layer_Color=16711935*
%FSTAX24Y24*%
%MOIN*%
G70*
G04*
G04 #@! TF.SameCoordinates,FA99FE0D-6524-457D-92B3-06535D0E1D10*
G04*
G04*
G04 #@! TF.FilePolarity,Negative*
G04*
G01*
G75*
%ADD37R,0.0623X0.0462*%
%ADD39R,0.0462X0.0623*%
G04:AMPARAMS|DCode=42|XSize=50.5mil|YSize=63.9mil|CornerRadius=9.3mil|HoleSize=0mil|Usage=FLASHONLY|Rotation=270.000|XOffset=0mil|YOffset=0mil|HoleType=Round|Shape=RoundedRectangle|*
%AMROUNDEDRECTD42*
21,1,0.0505,0.0453,0,0,270.0*
21,1,0.0319,0.0639,0,0,270.0*
1,1,0.0186,-0.0226,-0.0159*
1,1,0.0186,-0.0226,0.0159*
1,1,0.0186,0.0226,0.0159*
1,1,0.0186,0.0226,-0.0159*
%
%ADD42ROUNDEDRECTD42*%
G04:AMPARAMS|DCode=56|XSize=50.5mil|YSize=63.9mil|CornerRadius=9.3mil|HoleSize=0mil|Usage=FLASHONLY|Rotation=0.000|XOffset=0mil|YOffset=0mil|HoleType=Round|Shape=RoundedRectangle|*
%AMROUNDEDRECTD56*
21,1,0.0505,0.0453,0,0,0.0*
21,1,0.0319,0.0639,0,0,0.0*
1,1,0.0186,0.0159,-0.0226*
1,1,0.0186,-0.0159,-0.0226*
1,1,0.0186,-0.0159,0.0226*
1,1,0.0186,0.0159,0.0226*
%
%ADD56ROUNDEDRECTD56*%
%ADD59C,0.0230*%
%ADD60C,0.0730*%
%ADD61C,0.0680*%
%ADD62R,0.0671X0.0671*%
%ADD63C,0.0671*%
%ADD64R,0.0671X0.0671*%
%ADD65O,0.0592X0.0454*%
%ADD66O,0.0305X0.0610*%
%ADD92R,0.0680X0.0356*%
%ADD93R,0.1088X0.1438*%
%ADD94R,0.0986X0.1072*%
%ADD95R,0.1261X0.1458*%
%ADD96R,0.0966X0.1332*%
%ADD97R,0.0915X0.0978*%
%ADD98R,0.0879X0.0730*%
G04:AMPARAMS|DCode=99|XSize=56.8mil|YSize=56mil|CornerRadius=10mil|HoleSize=0mil|Usage=FLASHONLY|Rotation=270.000|XOffset=0mil|YOffset=0mil|HoleType=Round|Shape=RoundedRectangle|*
%AMROUNDEDRECTD99*
21,1,0.0568,0.0360,0,0,270.0*
21,1,0.0368,0.0560,0,0,270.0*
1,1,0.0200,-0.0180,-0.0184*
1,1,0.0200,-0.0180,0.0184*
1,1,0.0200,0.0180,0.0184*
1,1,0.0200,0.0180,-0.0184*
%
%ADD99ROUNDEDRECTD99*%
%ADD100R,0.0434X0.0552*%
%ADD101R,0.0592X0.0789*%
%ADD102R,0.0710X0.1340*%
G04:AMPARAMS|DCode=103|XSize=49.7mil|YSize=23.4mil|CornerRadius=7.8mil|HoleSize=0mil|Usage=FLASHONLY|Rotation=180.000|XOffset=0mil|YOffset=0mil|HoleType=Round|Shape=RoundedRectangle|*
%AMROUNDEDRECTD103*
21,1,0.0497,0.0077,0,0,180.0*
21,1,0.0341,0.0234,0,0,180.0*
1,1,0.0157,-0.0170,0.0038*
1,1,0.0157,0.0170,0.0038*
1,1,0.0157,0.0170,-0.0038*
1,1,0.0157,-0.0170,-0.0038*
%
%ADD103ROUNDEDRECTD103*%
D37*
X0285Y040184D02*
D03*
Y040916D02*
D03*
X0246Y04025D02*
D03*
Y040982D02*
D03*
X0256Y040234D02*
D03*
Y040966D02*
D03*
X0275Y040966D02*
D03*
Y040234D02*
D03*
X036Y034816D02*
D03*
Y034084D02*
D03*
X0395Y034832D02*
D03*
Y0341D02*
D03*
X0386Y034832D02*
D03*
Y0341D02*
D03*
X03685Y034832D02*
D03*
Y0341D02*
D03*
X03775Y034832D02*
D03*
Y0341D02*
D03*
D39*
X022834Y03905D02*
D03*
X023566D02*
D03*
X02285Y0398D02*
D03*
X023582D02*
D03*
D42*
X0266Y040245D02*
D03*
Y04095D02*
D03*
D56*
X024102Y0344D02*
D03*
X023398D02*
D03*
X024102Y0335D02*
D03*
X023398D02*
D03*
X025548Y0366D02*
D03*
X026252D02*
D03*
X025552Y0344D02*
D03*
X024848D02*
D03*
X040498Y03485D02*
D03*
X041202D02*
D03*
X040498Y03645D02*
D03*
X041202D02*
D03*
X040498Y03565D02*
D03*
X041202D02*
D03*
X040498Y03405D02*
D03*
X041202D02*
D03*
D59*
X0392Y03025D02*
D03*
X044524Y030574D02*
D03*
X04355Y03055D02*
D03*
X038431Y030231D02*
D03*
X02565Y0335D02*
D03*
X049302Y032462D02*
D03*
X03205Y0416D02*
D03*
X04145Y03445D02*
D03*
X04085D02*
D03*
X02555Y0373D02*
D03*
X02905Y0371D02*
D03*
X03185Y03035D02*
D03*
X0368Y0336D02*
D03*
Y0315D02*
D03*
X02905Y0335D02*
D03*
X02645D02*
D03*
X0291Y0301D02*
D03*
X038709Y036391D02*
D03*
X04135Y03025D02*
D03*
X03975Y0315D02*
D03*
X043744Y029606D02*
D03*
X03035Y0298D02*
D03*
X04075Y033D02*
D03*
X04155Y03335D02*
D03*
X049241Y032067D02*
D03*
X0378Y03045D02*
D03*
X0433Y02855D02*
D03*
X04405Y03055D02*
D03*
X03745Y02965D02*
D03*
X044288Y0321D02*
D03*
X0395Y03355D02*
D03*
X036Y033666D02*
D03*
X03775D02*
D03*
X04925Y0342D02*
D03*
X0443Y03375D02*
D03*
X04175Y03465D02*
D03*
X03875Y03675D02*
D03*
X03925D02*
D03*
X038152Y036798D02*
D03*
X037152Y036498D02*
D03*
X04Y03645D02*
D03*
D60*
X046Y0385D02*
D03*
D61*
X04965Y04135D02*
D03*
X0496Y0266D02*
D03*
X02115Y02665D02*
D03*
Y0413D02*
D03*
D62*
X02165Y0281D02*
D03*
D63*
Y0291D02*
D03*
Y0301D02*
D03*
Y0311D02*
D03*
Y0321D02*
D03*
Y0331D02*
D03*
X0232Y02685D02*
D03*
X0242D02*
D03*
X0252D02*
D03*
X0262D02*
D03*
X0272D02*
D03*
D64*
X0222D02*
D03*
D65*
X039841Y028163D02*
D03*
X037872D02*
D03*
D66*
X040234Y0271D02*
D03*
X037478D02*
D03*
D92*
X025382Y03795D02*
D03*
Y03845D02*
D03*
Y03895D02*
D03*
Y03945D02*
D03*
X027518D02*
D03*
Y03895D02*
D03*
Y03845D02*
D03*
Y03795D02*
D03*
D93*
X02645Y0387D02*
D03*
D94*
X029876Y0374D02*
D03*
X032324D02*
D03*
D95*
X030016Y0399D02*
D03*
X031984D02*
D03*
D96*
X02744Y0348D02*
D03*
X03016D02*
D03*
D97*
X02165Y038798D02*
D03*
Y040502D02*
D03*
D98*
X021575Y034123D02*
D03*
Y035375D02*
D03*
D99*
X0216Y0375D02*
D03*
Y036327D02*
D03*
D100*
X038652Y035836D02*
D03*
X038152D02*
D03*
X037652D02*
D03*
X037152D02*
D03*
X036652D02*
D03*
X036152D02*
D03*
D101*
X039703Y040915D02*
D03*
X035097D02*
D03*
Y03745D02*
D03*
X039703D02*
D03*
D102*
X02355Y037734D02*
D03*
Y035766D02*
D03*
D103*
X041318Y037706D02*
D03*
Y03745D02*
D03*
Y037194D02*
D03*
X040582D02*
D03*
Y03745D02*
D03*
Y037706D02*
D03*
M02*
