G04*
G04 #@! TF.GenerationSoftware,Altium Limited,Altium Designer,21.3.2 (30)*
G04*
G04 Layer_Color=128*
%FSTAX24Y24*%
%MOIN*%
G70*
G04*
G04 #@! TF.SameCoordinates,D5EA5D85-668F-4FC8-B525-117309F3FCBF*
G04*
G04*
G04 #@! TF.FilePolarity,Positive*
G04*
G01*
G75*
%ADD107C,0.0020*%
D107*
X03738Y0271D02*
X037577D01*
X037478Y027002D02*
Y027198D01*
X040136Y0271D02*
X040333D01*
X040234Y027002D02*
Y027198D01*
X037764Y028163D02*
X03798D01*
X037872Y028055D02*
Y028271D01*
X039732Y028163D02*
X039949D01*
X039841Y028055D02*
Y028271D01*
X045983Y037783D02*
X046417D01*
X0462Y037567D02*
Y038D01*
X04945Y04135D02*
X04985D01*
X04965Y04115D02*
Y04155D01*
X0494Y0266D02*
X0498D01*
X0496Y0264D02*
Y0268D01*
X021Y02665D02*
X0213D01*
X02115Y0265D02*
Y0268D01*
X021Y0414D02*
X0213D01*
X02115Y04125D02*
Y04155D01*
X021473Y0281D02*
X021827D01*
X02165Y027923D02*
Y028277D01*
X021473Y0291D02*
X021827D01*
X02165Y028923D02*
Y029277D01*
X021473Y0301D02*
X021827D01*
X02165Y029923D02*
Y030277D01*
X021473Y0311D02*
X021827D01*
X02165Y030923D02*
Y031277D01*
X021473Y0321D02*
X021827D01*
X02165Y031923D02*
Y032277D01*
X021473Y0331D02*
X021827D01*
X02165Y032923D02*
Y033277D01*
X022023Y02685D02*
X022377D01*
X0222Y026673D02*
Y027027D01*
X023023Y02685D02*
X023377D01*
X0232Y026673D02*
Y027027D01*
X024023Y02685D02*
X024377D01*
X0242Y026673D02*
Y027027D01*
X025023Y02685D02*
X025377D01*
X0252Y026673D02*
Y027027D01*
X026023Y02685D02*
X026377D01*
X0262Y026673D02*
Y027027D01*
X027023Y02685D02*
X027377D01*
X0272Y026673D02*
Y027027D01*
X03929Y037D02*
X03941D01*
X03935Y03694D02*
Y03706D01*
X04084Y0369D02*
X04096D01*
X0409Y03684D02*
Y03696D01*
X03749Y03357D02*
X03761D01*
X03755Y03351D02*
Y03363D01*
X03674Y03357D02*
X03686D01*
X0368Y03351D02*
Y03363D01*
X03934Y03357D02*
X03946D01*
X0394Y03351D02*
Y03363D01*
X04074Y03303D02*
X04086D01*
X0408Y03297D02*
Y03309D01*
X041494Y033346D02*
X041614D01*
X041554Y033286D02*
Y033406D01*
X03739Y02965D02*
X03751D01*
X03745Y02959D02*
Y02971D01*
X03169Y03055D02*
X03181D01*
X03175Y03049D02*
Y03061D01*
X03029Y0298D02*
X03041D01*
X03035Y02974D02*
Y02986D01*
X02559Y0335D02*
X02571D01*
X02565Y03344D02*
Y03356D01*
X03199Y04158D02*
X03211D01*
X03205Y04152D02*
Y04164D01*
X03869Y0374D02*
X03881D01*
X03875Y03734D02*
Y03746D01*
X03824Y0377D02*
X03836D01*
X0383Y03764D02*
Y03776D01*
X03839Y03665D02*
X03851D01*
X03845Y03659D02*
Y03671D01*
X03709Y03635D02*
X03721D01*
X03715Y03629D02*
Y03641D01*
X03899Y03775D02*
X03911D01*
X03905Y03769D02*
Y03781D01*
X03994Y03665D02*
X04006D01*
X04Y03659D02*
Y03671D01*
X03584Y03365D02*
X03596D01*
X0359Y03359D02*
Y03371D01*
X03969Y03145D02*
X03981D01*
X03975Y03139D02*
Y03151D01*
X03914Y03025D02*
X03926D01*
X0392Y03019D02*
Y03031D01*
X038371Y030231D02*
X038491D01*
X038431Y030171D02*
Y030291D01*
X04114Y03035D02*
X04126D01*
X0412Y03029D02*
Y03041D01*
X049173Y032067D02*
X049293D01*
X049233Y032007D02*
Y032127D01*
X049217Y032514D02*
X049337D01*
X049277Y032454D02*
Y032574D01*
X044228Y03208D02*
X044348D01*
X044288Y03202D02*
Y03214D01*
X043984Y030555D02*
X044104D01*
X044044Y030495D02*
Y030615D01*
X04349Y03055D02*
X04361D01*
X04355Y03049D02*
Y03061D01*
X044464Y030574D02*
X044584D01*
X044524Y030514D02*
Y030634D01*
X02549Y0373D02*
X02561D01*
X02555Y03724D02*
Y03736D01*
X02899Y0371D02*
X02911D01*
X02905Y03704D02*
Y03716D01*
X03674Y0315D02*
X03686D01*
X0368Y03144D02*
Y03156D01*
X02899Y0335D02*
X02911D01*
X02905Y03344D02*
Y03356D01*
X02639Y0335D02*
X02651D01*
X02645Y03344D02*
Y03356D01*
X02904Y0301D02*
X02916D01*
X0291Y03004D02*
Y03016D01*
X043684Y029606D02*
X043804D01*
X043744Y029546D02*
Y029667D01*
X03774Y03045D02*
X03786D01*
X0378Y03039D02*
Y03051D01*
X04324Y02855D02*
X04336D01*
X0433Y02849D02*
Y02861D01*
X04919Y0342D02*
X04931D01*
X04925Y03414D02*
Y03426D01*
X04424Y03375D02*
X04436D01*
X0443Y03369D02*
Y03381D01*
X04169Y03465D02*
X04181D01*
X04175Y03459D02*
Y03471D01*
M02*
