G04*
G04 #@! TF.GenerationSoftware,Altium Limited,Altium Designer,21.3.2 (30)*
G04*
G04 Layer_Color=128*
%FSTAX24Y24*%
%MOIN*%
G70*
G04*
G04 #@! TF.SameCoordinates,FA99FE0D-6524-457D-92B3-06535D0E1D10*
G04*
G04*
G04 #@! TF.FilePolarity,Positive*
G04*
G01*
G75*
%ADD17R,0.0543X0.0382*%
%ADD19R,0.0382X0.0543*%
G04:AMPARAMS|DCode=22|XSize=42.5mil|YSize=55.9mil|CornerRadius=5.3mil|HoleSize=0mil|Usage=FLASHONLY|Rotation=270.000|XOffset=0mil|YOffset=0mil|HoleType=Round|Shape=RoundedRectangle|*
%AMROUNDEDRECTD22*
21,1,0.0425,0.0453,0,0,270.0*
21,1,0.0319,0.0559,0,0,270.0*
1,1,0.0106,-0.0226,-0.0159*
1,1,0.0106,-0.0226,0.0159*
1,1,0.0106,0.0226,0.0159*
1,1,0.0106,0.0226,-0.0159*
%
%ADD22ROUNDEDRECTD22*%
G04:AMPARAMS|DCode=32|XSize=42.5mil|YSize=55.9mil|CornerRadius=5.3mil|HoleSize=0mil|Usage=FLASHONLY|Rotation=0.000|XOffset=0mil|YOffset=0mil|HoleType=Round|Shape=RoundedRectangle|*
%AMROUNDEDRECTD32*
21,1,0.0425,0.0453,0,0,0.0*
21,1,0.0319,0.0559,0,0,0.0*
1,1,0.0106,0.0159,-0.0226*
1,1,0.0106,-0.0159,-0.0226*
1,1,0.0106,-0.0159,0.0226*
1,1,0.0106,0.0159,0.0226*
%
%ADD32ROUNDEDRECTD32*%
%ADD80R,0.0600X0.0276*%
%ADD81R,0.1008X0.1358*%
%ADD82R,0.0906X0.0992*%
%ADD83R,0.1181X0.1378*%
%ADD84R,0.0886X0.1252*%
%ADD85R,0.0835X0.0898*%
%ADD86R,0.0799X0.0650*%
G04:AMPARAMS|DCode=87|XSize=48.8mil|YSize=48mil|CornerRadius=6mil|HoleSize=0mil|Usage=FLASHONLY|Rotation=270.000|XOffset=0mil|YOffset=0mil|HoleType=Round|Shape=RoundedRectangle|*
%AMROUNDEDRECTD87*
21,1,0.0488,0.0360,0,0,270.0*
21,1,0.0368,0.0480,0,0,270.0*
1,1,0.0120,-0.0180,-0.0184*
1,1,0.0120,-0.0180,0.0184*
1,1,0.0120,0.0180,0.0184*
1,1,0.0120,0.0180,-0.0184*
%
%ADD87ROUNDEDRECTD87*%
%ADD88R,0.0354X0.0472*%
%ADD89R,0.0512X0.0709*%
%ADD90R,0.0630X0.1260*%
G04:AMPARAMS|DCode=91|XSize=41.7mil|YSize=15.4mil|CornerRadius=3.8mil|HoleSize=0mil|Usage=FLASHONLY|Rotation=180.000|XOffset=0mil|YOffset=0mil|HoleType=Round|Shape=RoundedRectangle|*
%AMROUNDEDRECTD91*
21,1,0.0417,0.0077,0,0,180.0*
21,1,0.0341,0.0154,0,0,180.0*
1,1,0.0077,-0.0170,0.0038*
1,1,0.0077,0.0170,0.0038*
1,1,0.0077,0.0170,-0.0038*
1,1,0.0077,-0.0170,-0.0038*
%
%ADD91ROUNDEDRECTD91*%
D17*
X0285Y040184D02*
D03*
Y040916D02*
D03*
X0246Y04025D02*
D03*
Y040982D02*
D03*
X0256Y040234D02*
D03*
Y040966D02*
D03*
X0275Y040966D02*
D03*
Y040234D02*
D03*
X036Y034816D02*
D03*
Y034084D02*
D03*
X0395Y034832D02*
D03*
Y0341D02*
D03*
X0386Y034832D02*
D03*
Y0341D02*
D03*
X03685Y034832D02*
D03*
Y0341D02*
D03*
X03775Y034832D02*
D03*
Y0341D02*
D03*
D19*
X022834Y03905D02*
D03*
X023566D02*
D03*
X02285Y0398D02*
D03*
X023582D02*
D03*
D22*
X0266Y040245D02*
D03*
Y04095D02*
D03*
D32*
X024102Y0344D02*
D03*
X023398D02*
D03*
X024102Y0335D02*
D03*
X023398D02*
D03*
X025548Y0366D02*
D03*
X026252D02*
D03*
X025552Y0344D02*
D03*
X024848D02*
D03*
X040498Y03485D02*
D03*
X041202D02*
D03*
X040498Y03645D02*
D03*
X041202D02*
D03*
X040498Y03565D02*
D03*
X041202D02*
D03*
X040498Y03405D02*
D03*
X041202D02*
D03*
D80*
X025382Y03795D02*
D03*
Y03845D02*
D03*
Y03895D02*
D03*
Y03945D02*
D03*
X027518D02*
D03*
Y03895D02*
D03*
Y03845D02*
D03*
Y03795D02*
D03*
D81*
X02645Y0387D02*
D03*
D82*
X029876Y0374D02*
D03*
X032324D02*
D03*
D83*
X030016Y0399D02*
D03*
X031984D02*
D03*
D84*
X02744Y0348D02*
D03*
X03016D02*
D03*
D85*
X02165Y038798D02*
D03*
Y040502D02*
D03*
D86*
X021575Y034123D02*
D03*
Y035375D02*
D03*
D87*
X0216Y0375D02*
D03*
Y036327D02*
D03*
D88*
X038652Y035836D02*
D03*
X038152D02*
D03*
X037652D02*
D03*
X037152D02*
D03*
X036652D02*
D03*
X036152D02*
D03*
D89*
X039703Y040915D02*
D03*
X035097D02*
D03*
Y03745D02*
D03*
X039703D02*
D03*
D90*
X02355Y037734D02*
D03*
Y035766D02*
D03*
D91*
X041318Y037706D02*
D03*
Y03745D02*
D03*
Y037194D02*
D03*
X040582D02*
D03*
Y03745D02*
D03*
Y037706D02*
D03*
M02*
