G04*
G04 #@! TF.GenerationSoftware,Altium Limited,Altium Designer,21.3.2 (30)*
G04*
G04 Layer_Color=2752767*
%FSTAX24Y24*%
%MOIN*%
G70*
G04*
G04 #@! TF.SameCoordinates,FA99FE0D-6524-457D-92B3-06535D0E1D10*
G04*
G04*
G04 #@! TF.FilePolarity,Positive*
G04*
G01*
G75*
%ADD107C,0.0020*%
%ADD108C,0.0027*%
D107*
X03912Y03017D02*
Y03033D01*
X03928D01*
Y03017D01*
X03912D01*
X044444Y030494D02*
Y030654D01*
X044604D01*
Y030494D01*
X044444D01*
X04347Y03047D02*
Y03063D01*
X04363D01*
Y03047D01*
X04347D01*
X038351Y030151D02*
Y030311D01*
X038511D01*
Y030151D01*
X038351D01*
X02557Y03342D02*
Y03358D01*
X02573D01*
Y03342D01*
X02557D01*
X04965Y04127D02*
X04957Y04143D01*
X04973D01*
X04965Y04127D01*
X0496Y02652D02*
X04952Y02668D01*
X04968D01*
X0496Y02652D01*
X02115Y02657D02*
X02107Y02673D01*
X02123D01*
X02115Y02657D01*
Y04122D02*
X02107Y04138D01*
X02123D01*
X02115Y04122D01*
X02165Y02802D02*
X02169Y02806D01*
X02173D01*
X02169Y0281D01*
X02173Y02814D01*
X02169D01*
X02165Y02818D01*
X02161Y02814D01*
X02157D01*
X02161Y0281D01*
X02157Y02806D01*
X02161D01*
X02165Y02802D01*
Y02902D02*
X02169Y02906D01*
X02173D01*
X02169Y0291D01*
X02173Y02914D01*
X02169D01*
X02165Y02918D01*
X02161Y02914D01*
X02157D01*
X02161Y0291D01*
X02157Y02906D01*
X02161D01*
X02165Y02902D01*
Y03002D02*
X02169Y03006D01*
X02173D01*
X02169Y0301D01*
X02173Y03014D01*
X02169D01*
X02165Y03018D01*
X02161Y03014D01*
X02157D01*
X02161Y0301D01*
X02157Y03006D01*
X02161D01*
X02165Y03002D01*
Y03102D02*
X02169Y03106D01*
X02173D01*
X02169Y0311D01*
X02173Y03114D01*
X02169D01*
X02165Y03118D01*
X02161Y03114D01*
X02157D01*
X02161Y0311D01*
X02157Y03106D01*
X02161D01*
X02165Y03102D01*
Y03202D02*
X02169Y03206D01*
X02173D01*
X02169Y0321D01*
X02173Y03214D01*
X02169D01*
X02165Y03218D01*
X02161Y03214D01*
X02157D01*
X02161Y0321D01*
X02157Y03206D01*
X02161D01*
X02165Y03202D01*
Y03302D02*
X02169Y03306D01*
X02173D01*
X02169Y0331D01*
X02173Y03314D01*
X02169D01*
X02165Y03318D01*
X02161Y03314D01*
X02157D01*
X02161Y0331D01*
X02157Y03306D01*
X02161D01*
X02165Y03302D01*
X0222Y02677D02*
X02224Y02681D01*
X02228D01*
X02224Y02685D01*
X02228Y02689D01*
X02224D01*
X0222Y02693D01*
X02216Y02689D01*
X02212D01*
X02216Y02685D01*
X02212Y02681D01*
X02216D01*
X0222Y02677D01*
X0232D02*
X02324Y02681D01*
X02328D01*
X02324Y02685D01*
X02328Y02689D01*
X02324D01*
X0232Y02693D01*
X02316Y02689D01*
X02312D01*
X02316Y02685D01*
X02312Y02681D01*
X02316D01*
X0232Y02677D01*
X0242D02*
X02424Y02681D01*
X02428D01*
X02424Y02685D01*
X02428Y02689D01*
X02424D01*
X0242Y02693D01*
X02416Y02689D01*
X02412D01*
X02416Y02685D01*
X02412Y02681D01*
X02416D01*
X0242Y02677D01*
X0252D02*
X02524Y02681D01*
X02528D01*
X02524Y02685D01*
X02528Y02689D01*
X02524D01*
X0252Y02693D01*
X02516Y02689D01*
X02512D01*
X02516Y02685D01*
X02512Y02681D01*
X02516D01*
X0252Y02677D01*
X0262D02*
X02624Y02681D01*
X02628D01*
X02624Y02685D01*
X02628Y02689D01*
X02624D01*
X0262Y02693D01*
X02616Y02689D01*
X02612D01*
X02616Y02685D01*
X02612Y02681D01*
X02616D01*
X0262Y02677D01*
X0272D02*
X02724Y02681D01*
X02728D01*
X02724Y02685D01*
X02728Y02689D01*
X02724D01*
X0272Y02693D01*
X02716Y02689D01*
X02712D01*
X02716Y02685D01*
X02712Y02681D01*
X02716D01*
X0272Y02677D01*
X049222Y032382D02*
Y032542D01*
X049382D01*
Y032382D01*
X049222D01*
X039761Y028083D02*
X039801Y028163D01*
X039761Y028243D01*
X039841Y028203D01*
X039921Y028243D01*
X039881Y028163D01*
X039921Y028083D01*
X039841Y028123D01*
X039761Y028083D01*
X037792D02*
X037832Y028163D01*
X037792Y028243D01*
X037872Y028203D01*
X037952Y028243D01*
X037912Y028163D01*
X037952Y028083D01*
X037872Y028123D01*
X037792Y028083D01*
X040194Y02706D02*
Y02702D01*
X040274D01*
Y02706D01*
X040314D01*
Y02714D01*
X040274D01*
Y02718D01*
X040194D01*
Y02714D01*
X040154D01*
Y02706D01*
X040194D01*
X037438D02*
Y02702D01*
X037518D01*
Y02706D01*
X037558D01*
Y02714D01*
X037518D01*
Y02718D01*
X037438D01*
Y02714D01*
X037398D01*
Y02706D01*
X037438D01*
X03197Y04152D02*
Y04168D01*
X03213D01*
Y04152D01*
X03197D01*
X04137Y03437D02*
Y03453D01*
X04153D01*
Y03437D01*
X04137D01*
X04077D02*
Y03453D01*
X04093D01*
Y03437D01*
X04077D01*
X02547Y03722D02*
Y03738D01*
X02563D01*
Y03722D01*
X02547D01*
X02897Y03702D02*
Y03718D01*
X02913D01*
Y03702D01*
X02897D01*
X03177Y03027D02*
Y03043D01*
X03193D01*
Y03027D01*
X03177D01*
X03672Y03352D02*
Y03368D01*
X03688D01*
Y03352D01*
X03672D01*
Y03142D02*
Y03158D01*
X03688D01*
Y03142D01*
X03672D01*
X02897Y03342D02*
Y03358D01*
X02913D01*
Y03342D01*
X02897D01*
X02637D02*
Y03358D01*
X02653D01*
Y03342D01*
X02637D01*
X02902Y03002D02*
Y03018D01*
X02918D01*
Y03002D01*
X02902D01*
X038629Y036311D02*
Y036471D01*
X038789D01*
Y036311D01*
X038629D01*
X04127Y03017D02*
Y03033D01*
X04143D01*
Y03017D01*
X04127D01*
X03967Y03142D02*
Y03158D01*
X03983D01*
Y03142D01*
X03967D01*
X043664Y029527D02*
Y029687D01*
X043823D01*
Y029527D01*
X043664D01*
X03027Y02972D02*
Y02988D01*
X03043D01*
Y02972D01*
X03027D01*
X04067Y03292D02*
Y03308D01*
X04083D01*
Y03292D01*
X04067D01*
X04147Y03327D02*
Y03343D01*
X04163D01*
Y03327D01*
X04147D01*
X049161Y031987D02*
Y032147D01*
X049321D01*
Y031987D01*
X049161D01*
X03772Y03037D02*
Y03053D01*
X03788D01*
Y03037D01*
X03772D01*
X04322Y02847D02*
Y02863D01*
X04338D01*
Y02847D01*
X04322D01*
X04397Y03047D02*
Y03063D01*
X04413D01*
Y03047D01*
X04397D01*
X03737Y02957D02*
Y02973D01*
X03753D01*
Y02957D01*
X03737D01*
X044208Y03202D02*
Y03218D01*
X044368D01*
Y03202D01*
X044208D01*
X03942Y03347D02*
Y03363D01*
X03958D01*
Y03347D01*
X03942D01*
X03592Y033586D02*
Y033746D01*
X03608D01*
Y033586D01*
X03592D01*
X03767D02*
Y033746D01*
X03783D01*
Y033586D01*
X03767D01*
X04917Y03412D02*
Y03428D01*
X04933D01*
Y03412D01*
X04917D01*
X04422Y03367D02*
Y03383D01*
X04438D01*
Y03367D01*
X04422D01*
X04167Y03457D02*
Y03473D01*
X04183D01*
Y03457D01*
X04167D01*
X03867Y03667D02*
Y03683D01*
X03883D01*
Y03667D01*
X03867D01*
X03917D02*
Y03683D01*
X03933D01*
Y03667D01*
X03917D01*
X038072Y036718D02*
Y036878D01*
X038232D01*
Y036718D01*
X038072D01*
X037072Y036418D02*
Y036578D01*
X037232D01*
Y036418D01*
X037072D01*
X03992Y03637D02*
Y03653D01*
X04008D01*
Y03637D01*
X03992D01*
D108*
X04608Y0385D02*
G03*
X04608Y0385I-00008J0D01*
G01*
M02*
