M48
;Layer_Color=9474304
;FILE_FORMAT=2:4
INCH,LZ
;TYPE=PLATED
T1F00S00C0.0120
T4F00S00C0.0300
T5F00S00C0.0354
T6F00S00C0.0400
T7F00S00C0.0433
%
T01
X03175Y03055
X0378Y03045
X038431Y030231
X0392Y03025
X0412Y03035
X04355Y03055
X044044Y030555
X044524Y030574
X043744Y029606
X0433Y02855
X03745Y02965
X03035Y0298
X0291Y0301
X02905Y0335
X02645
X02565
X02555Y0373
X02905Y0371
X03205Y04158
X0383Y0377
X03875Y0374
X03905Y03775
X03935Y037
X04Y03665
X0409Y0369
X03845Y03665
X03715Y03635
X0368Y03357
X03755
X0359Y03365
X0368Y0315
X03975Y03145
X0394Y03357
X0408Y03303
X041554Y033346
X04175Y03465
X0443Y03375
X044288Y03208
X049233Y032067
X049277Y032514
X04925Y0342
T04
X02115Y02665
Y0414
T05
X0222Y02685
X0232
X0242
X0252
X0262
X0272
X02165Y0281
Y0291
Y0301
Y0311
Y0321
Y0331
T06
X0496Y0266
X04965Y04135
T07
X0462Y037783
M30
