G04*
G04 #@! TF.GenerationSoftware,Altium Limited,Altium Designer,21.3.2 (30)*
G04*
G04 Layer_Color=32896*
%FSTAX24Y24*%
%MOIN*%
G70*
G04*
G04 #@! TF.SameCoordinates,FA99FE0D-6524-457D-92B3-06535D0E1D10*
G04*
G04*
G04 #@! TF.FilePolarity,Positive*
G04*
G01*
G75*
%ADD10C,0.0079*%
%ADD12C,0.0050*%
%ADD13C,0.0100*%
%ADD104C,0.0060*%
D10*
X033226Y037439D02*
G03*
X033226Y037439I-000039J0D01*
G01*
X030887Y0348D02*
G03*
X030887Y0348I-000039J0D01*
G01*
X021689Y038075D02*
G03*
X021689Y038075I-000039J0D01*
G01*
X021639Y037957D02*
G03*
X021639Y037957I-000039J0D01*
G01*
X03618Y035363D02*
G03*
X03618Y035363I-000039J0D01*
G01*
X023058Y038384D02*
G03*
X023058Y038384I-000039J0D01*
G01*
X025082Y037674D02*
X025682D01*
D12*
X049543Y040823D02*
G03*
X048756Y04161I-000787J0D01*
G01*
Y034524D02*
G03*
X049543Y035311I0J000787D01*
G01*
X043244Y04161D02*
G03*
X042457Y040823I0J-000787D01*
G01*
X049543Y035311D02*
Y040823D01*
X043244Y034524D02*
X048756D01*
X042457Y035311D02*
X043244Y034524D01*
X042457Y035311D02*
Y040823D01*
X043244Y04161D02*
X048756D01*
X023153Y038782D02*
X023247D01*
X023153Y039318D02*
X023247D01*
X032537Y038019D02*
Y038246D01*
X029663D02*
X032537D01*
X029663Y038019D02*
Y038246D01*
X032537Y036554D02*
Y036781D01*
X029663Y036554D02*
X032537D01*
X029663D02*
Y036781D01*
X02976Y03866D02*
Y039054D01*
Y03866D02*
X03224D01*
Y039054D01*
X02976Y040746D02*
Y04114D01*
X03224D01*
Y040746D02*
Y04114D01*
X028768Y040503D02*
Y040597D01*
X028232Y040503D02*
Y040597D01*
X024868Y040569D02*
Y040663D01*
X024332Y040569D02*
Y040663D01*
X025332Y040553D02*
Y040647D01*
X025868Y040553D02*
Y040647D01*
X027232Y040553D02*
Y040647D01*
X027768Y040553D02*
Y040647D01*
X027447Y033639D02*
X030153D01*
Y034048D01*
X027447Y033639D02*
Y034048D01*
Y035961D02*
X030153D01*
X027447Y035552D02*
Y035961D01*
X030153Y035552D02*
Y035961D01*
X022193Y038799D02*
X022364D01*
X020936D02*
X021107D01*
X022193Y040501D02*
X022364D01*
X020936D02*
X021107D01*
X020936Y038799D02*
Y040501D01*
X022364Y038799D02*
Y040501D01*
X021246Y036697D02*
Y03713D01*
X021954Y036697D02*
Y03713D01*
X023169Y039532D02*
X023263D01*
X023169Y040068D02*
X023263D01*
X035589Y041269D02*
X039211D01*
X039762Y038001D02*
Y040403D01*
X035038Y038001D02*
Y040403D01*
X039054Y035757D02*
X039762D01*
Y036899D01*
X035038Y035757D02*
X035746D01*
X035038D02*
Y036899D01*
X024456Y038049D02*
X024849Y037656D01*
Y035451D02*
Y037656D01*
X022251Y035451D02*
Y037656D01*
X022644Y038049D01*
X023109D01*
X023991D02*
X024456D01*
X022251Y035451D02*
X023109D01*
X023991D02*
X024849D01*
X035732Y034403D02*
Y034497D01*
X036268Y034403D02*
Y034497D01*
X039232Y034419D02*
Y034513D01*
X039768Y034419D02*
Y034513D01*
X038332Y034419D02*
Y034513D01*
X038868Y034419D02*
Y034513D01*
X036582Y034419D02*
Y034513D01*
X037118Y034419D02*
Y034513D01*
X037482Y034419D02*
Y034513D01*
X038018Y034419D02*
Y034513D01*
D13*
X0266Y02755D02*
X026D01*
Y02785D01*
X0261Y02795D01*
X0265D01*
X0266Y02785D01*
Y02755D01*
X0263Y02815D02*
Y02855D01*
X0255Y0276D02*
X0249D01*
Y0279D01*
X025Y028D01*
X0254D01*
X0255Y0279D01*
Y0276D01*
X0252Y0282D02*
Y0286D01*
X0254Y0284D02*
X025D01*
X02705Y02975D02*
X02745D01*
X02765Y02955D01*
X02745Y02935D01*
X02705D01*
Y02915D02*
X02765D01*
Y02885D01*
X02755Y02875D01*
X02745D01*
X02735Y02885D01*
Y02915D01*
Y02885D01*
X02725Y02875D01*
X02715D01*
X02705Y02885D01*
Y02915D01*
Y02855D02*
X02755D01*
X02765Y02845D01*
Y02825D01*
X02755Y028151D01*
X02705D01*
X02715Y027551D02*
X02705Y027651D01*
Y027851D01*
X02715Y027951D01*
X02725D01*
X02735Y027851D01*
Y027651D01*
X02745Y027551D01*
X02755D01*
X02765Y027651D01*
Y027851D01*
X02755Y027951D01*
X024Y02785D02*
Y02845D01*
X0237D01*
X0236Y02835D01*
Y02815D01*
X0237Y02805D01*
X024D01*
X0238D02*
X0236Y02785D01*
X0234Y02845D02*
X023Y02785D01*
Y02845D02*
X0234Y02785D01*
X0228Y02845D02*
Y02785D01*
X0225D01*
X022401Y02795D01*
Y02835D01*
X0225Y02845D01*
X0228D01*
X02395Y0294D02*
X02355D01*
X02375D01*
Y0288D01*
X02335Y0294D02*
X02295Y0288D01*
Y0294D02*
X02335Y0288D01*
X02275Y0294D02*
Y0288D01*
X02245D01*
X022351Y0289D01*
Y0293D01*
X02245Y0294D01*
X02275D01*
X02355Y03035D02*
X02375D01*
X02385Y03025D01*
Y02985D01*
X02375Y02975D01*
X02355D01*
X02345Y02985D01*
Y03025D01*
X02355Y03035D01*
X02325D02*
Y02985D01*
X02315Y02975D01*
X02295D01*
X02285Y02985D01*
Y03035D01*
X02265D02*
X022251D01*
X02245D01*
Y02975D01*
X02395Y03085D02*
Y03125D01*
X02375Y03145D01*
X02355Y03125D01*
Y03085D01*
Y03115D01*
X02395D01*
X02295Y03135D02*
X02305Y03145D01*
X02325D01*
X02335Y03135D01*
Y03095D01*
X02325Y03085D01*
X02305D01*
X02295Y03095D01*
X022351Y03135D02*
X02245Y03145D01*
X02265D01*
X02275Y03135D01*
Y03095D01*
X02265Y03085D01*
X02245D01*
X022351Y03095D01*
X0235Y03215D02*
X0236Y03225D01*
X0238D01*
X0239Y03215D01*
Y03175D01*
X0238Y03165D01*
X0236D01*
X0235Y03175D01*
Y03195D01*
X0237D01*
X0233Y03165D02*
Y03225D01*
X0229Y03165D01*
Y03225D01*
X0227D02*
Y03165D01*
X0224D01*
X022301Y03175D01*
Y03215D01*
X0224Y03225D01*
X0227D01*
X0239Y0331D02*
Y0327D01*
X0237Y0325D01*
X0235Y0327D01*
Y0331D01*
X0229Y033D02*
X023Y0331D01*
X0232D01*
X0233Y033D01*
Y0326D01*
X0232Y0325D01*
X023D01*
X0229Y0326D01*
X022301Y033D02*
X0224Y0331D01*
X0226D01*
X0227Y033D01*
Y0326D01*
X0226Y0325D01*
X0224D01*
X022301Y0326D01*
X0264Y0376D02*
X026333D01*
X026367D01*
Y0374D01*
X0264D01*
X026333D01*
X0261Y037567D02*
X026133Y0376D01*
X0262D01*
X026233Y037567D01*
Y037433D01*
X0262Y0374D01*
X026133D01*
X0261Y037433D01*
X026033Y037567D02*
X026Y0376D01*
X025933D01*
X0259Y037567D01*
Y037533D01*
X025967Y037467D01*
Y037433D02*
Y0374D01*
X0293Y0365D02*
Y0362D01*
X02915D01*
X0291Y03625D01*
Y03645D01*
X02915Y0365D01*
X0293D01*
X02885Y0362D02*
Y0365D01*
X029Y03635D01*
X0288D01*
X0341Y0404D02*
X0343D01*
X0342D01*
Y0399D01*
X0343Y0398D01*
X0344D01*
X0345Y0399D01*
X0339Y0398D02*
X0337D01*
X0338D01*
Y0404D01*
X0339Y0403D01*
X03255Y0387D02*
Y039D01*
X03275D01*
X03285D02*
X03295D01*
X0329D01*
Y0387D01*
X03285Y03875D01*
X04465Y03945D02*
X04505D01*
Y03885D01*
X04465D01*
X04505Y03915D02*
X04485D01*
X04445Y03885D02*
X04425D01*
X04435D01*
Y03945D01*
X04445Y03935D01*
X02235Y0351D02*
X02255D01*
Y03495D01*
X02245D01*
X02255D01*
Y0348D01*
X02225D02*
X02215D01*
X0222D01*
Y0351D01*
X02225Y03505D01*
X04154Y03859D02*
Y03834D01*
X04149Y03829D01*
X04139D01*
X04134Y03834D01*
Y03859D01*
X04124Y03854D02*
X04119Y03859D01*
X04109D01*
X04104Y03854D01*
Y03849D01*
X04109Y03844D01*
X04114D01*
X04109D01*
X04104Y03839D01*
Y03834D01*
X04109Y03829D01*
X04119D01*
X04124Y03834D01*
X03935Y032425D02*
X03965D01*
Y032575D01*
X0396Y032625D01*
X0395D01*
X03945Y032575D01*
Y032425D01*
Y032525D02*
X03935Y032625D01*
Y032725D02*
Y032825D01*
Y032775D01*
X03965D01*
X0396Y032725D01*
X03965Y033175D02*
Y032975D01*
X0395D01*
X03955Y033075D01*
Y033125D01*
X0395Y033175D01*
X0394D01*
X03935Y033125D01*
Y033025D01*
X0394Y032975D01*
X0376Y032525D02*
X0379D01*
Y032675D01*
X03785Y032725D01*
X03775D01*
X0377Y032675D01*
Y032525D01*
Y032625D02*
X0376Y032725D01*
Y032825D02*
Y032925D01*
Y032875D01*
X0379D01*
X03785Y032825D01*
X0376Y033225D02*
X0379D01*
X03775Y033075D01*
Y033275D01*
X0361Y033275D02*
X0358D01*
Y033125D01*
X03585Y033075D01*
X03595D01*
X036Y033125D01*
Y033275D01*
Y033175D02*
X0361Y033075D01*
Y032975D02*
Y032875D01*
Y032925D01*
X0358D01*
X03585Y032975D01*
Y032725D02*
X0358Y032675D01*
Y032575D01*
X03585Y032525D01*
X0359D01*
X03595Y032575D01*
Y032625D01*
Y032575D01*
X036Y032525D01*
X03605D01*
X0361Y032575D01*
Y032675D01*
X03605Y032725D01*
X03675Y032625D02*
X03705D01*
Y032775D01*
X037Y032825D01*
X0369D01*
X03685Y032775D01*
Y032625D01*
Y032725D02*
X03675Y032825D01*
Y032925D02*
Y033025D01*
Y032975D01*
X03705D01*
X037Y032925D01*
X03675Y033375D02*
Y033175D01*
X03695Y033375D01*
X037D01*
X03705Y033325D01*
Y033225D01*
X037Y033175D01*
X0388Y033275D02*
X0385D01*
Y033125D01*
X03855Y033075D01*
X03865D01*
X0387Y033125D01*
Y033275D01*
Y033175D02*
X0388Y033075D01*
Y032975D02*
Y032875D01*
Y032925D01*
X0385D01*
X03855Y032975D01*
X0388Y032725D02*
Y032625D01*
Y032675D01*
X0385D01*
X03855Y032725D01*
X02415Y041025D02*
X02385D01*
Y040875D01*
X0239Y040825D01*
X024D01*
X02405Y040875D01*
Y041025D01*
Y040925D02*
X02415Y040825D01*
Y040725D02*
Y040625D01*
Y040675D01*
X02385D01*
X0239Y040725D01*
Y040475D02*
X02385Y040425D01*
Y040325D01*
X0239Y040275D01*
X0241D01*
X02415Y040325D01*
Y040425D01*
X0241Y040475D01*
X0239D01*
X02675Y04135D02*
Y04165D01*
X0266D01*
X02655Y0416D01*
Y0415D01*
X0266Y04145D01*
X02675D01*
X02665D02*
X02655Y04135D01*
X02645Y0414D02*
X0264Y04135D01*
X0263D01*
X02625Y0414D01*
Y0416D01*
X0263Y04165D01*
X0264D01*
X02645Y0416D01*
Y04155D01*
X0264Y0415D01*
X02625D01*
X02825Y041334D02*
X02855D01*
Y041484D01*
X0285Y041534D01*
X0284D01*
X02835Y041484D01*
Y041334D01*
Y041434D02*
X02825Y041534D01*
X0285Y041634D02*
X02855Y041684D01*
Y041784D01*
X0285Y041834D01*
X02845D01*
X0284Y041784D01*
X02835Y041834D01*
X0283D01*
X02825Y041784D01*
Y041684D01*
X0283Y041634D01*
X02835D01*
X0284Y041684D01*
X02845Y041634D01*
X0285D01*
X0284Y041684D02*
Y041784D01*
X0257Y0413D02*
Y0416D01*
X02555D01*
X0255Y04155D01*
Y04145D01*
X02555Y0414D01*
X0257D01*
X0256D02*
X0255Y0413D01*
X0254Y0416D02*
X0252D01*
Y04155D01*
X0254Y04135D01*
Y0413D01*
X0244Y03955D02*
Y03985D01*
X02425D01*
X0242Y0398D01*
Y0397D01*
X02425Y03965D01*
X0244D01*
X0243D02*
X0242Y03955D01*
X0239D02*
X0241D01*
X0239Y03975D01*
Y0398D01*
X02395Y03985D01*
X02405D01*
X0241Y0398D01*
X02425Y0389D02*
Y0392D01*
X0241D01*
X02405Y03915D01*
Y03905D01*
X0241Y039D01*
X02425D01*
X02415D02*
X02405Y0389D01*
X02395D02*
X02385D01*
X0239D01*
Y0392D01*
X02395Y03915D01*
X02285Y04015D02*
X02255D01*
Y0403D01*
X0226Y04035D01*
X0228D01*
X02285Y0403D01*
Y04015D01*
X02255Y04065D02*
Y04045D01*
X02275Y04065D01*
X0228D01*
X02285Y0406D01*
Y0405D01*
X0228Y04045D01*
X02085Y036463D02*
X02115D01*
Y036313D01*
X0211Y036263D01*
X0209D01*
X02085Y036313D01*
Y036463D01*
X02115Y036163D02*
Y036063D01*
Y036113D01*
X02085D01*
X0209Y036163D01*
X042175Y0365D02*
X042225Y03655D01*
X042325D01*
X042375Y0365D01*
Y0363D01*
X042325Y03625D01*
X042225D01*
X042175Y0363D01*
X042075Y03625D02*
X041975D01*
X042025D01*
Y03655D01*
X042075Y0365D01*
X041825D02*
X041775Y03655D01*
X041675D01*
X041625Y0365D01*
Y03645D01*
X041675Y0364D01*
X041625Y03635D01*
Y0363D01*
X041675Y03625D01*
X041775D01*
X041825Y0363D01*
Y03635D01*
X041775Y0364D01*
X041825Y03645D01*
Y0365D01*
X041775Y0364D02*
X041675D01*
X042175Y0358D02*
X042225Y03585D01*
X042325D01*
X042375Y0358D01*
Y0356D01*
X042325Y03555D01*
X042225D01*
X042175Y0356D01*
X042075Y03555D02*
X041975D01*
X042025D01*
Y03585D01*
X042075Y0358D01*
X041825Y03585D02*
X041625D01*
Y0358D01*
X041825Y0356D01*
Y03555D01*
X041925Y0349D02*
X041875Y03485D01*
X041775D01*
X041725Y0349D01*
Y0351D01*
X041775Y03515D01*
X041875D01*
X041925Y0351D01*
X042025Y03515D02*
X042125D01*
X042075D01*
Y03485D01*
X042025Y0349D01*
X042475Y03485D02*
X042375Y0349D01*
X042275Y035D01*
Y0351D01*
X042325Y03515D01*
X042425D01*
X042475Y0351D01*
Y03505D01*
X042425Y035D01*
X042275D01*
X041875Y03405D02*
X041825Y034D01*
X041725D01*
X041675Y03405D01*
Y03425D01*
X041725Y0343D01*
X041825D01*
X041875Y03425D01*
X041975Y0343D02*
X042075D01*
X042025D01*
Y034D01*
X041975Y03405D01*
X042425Y034D02*
X042225D01*
Y03415D01*
X042325Y0341D01*
X042375D01*
X042425Y03415D01*
Y03425D01*
X042375Y0343D01*
X042275D01*
X042225Y03425D01*
X027575Y04155D02*
X027625Y0416D01*
X027725D01*
X027775Y04155D01*
Y04135D01*
X027725Y0413D01*
X027625D01*
X027575Y04135D01*
X027475Y0413D02*
X027375D01*
X027425D01*
Y0416D01*
X027475Y04155D01*
X027075Y0413D02*
Y0416D01*
X027225Y04145D01*
X027025D01*
X022575Y0342D02*
X022525Y03415D01*
X022425D01*
X022375Y0342D01*
Y0344D01*
X022425Y03445D01*
X022525D01*
X022575Y0344D01*
X022675Y03445D02*
X022775D01*
X022725D01*
Y03415D01*
X022675Y0342D01*
X022925D02*
X022975Y03415D01*
X023075D01*
X023125Y0342D01*
Y03425D01*
X023075Y0343D01*
X023025D01*
X023075D01*
X023125Y03435D01*
Y0344D01*
X023075Y03445D01*
X022975D01*
X022925Y0344D01*
X032175Y036D02*
X032125Y03595D01*
X032025D01*
X031975Y036D01*
Y0362D01*
X032025Y03625D01*
X032125D01*
X032175Y0362D01*
X032275Y03625D02*
X032375D01*
X032325D01*
Y03595D01*
X032275Y036D01*
X032725Y03625D02*
X032525D01*
X032725Y03605D01*
Y036D01*
X032675Y03595D01*
X032575D01*
X032525Y036D01*
X024975Y03345D02*
X025025Y0335D01*
X025125D01*
X025175Y03345D01*
Y03325D01*
X025125Y0332D01*
X025025D01*
X024975Y03325D01*
X024875Y0332D02*
X024775D01*
X024825D01*
Y0335D01*
X024875Y03345D01*
X024625Y0332D02*
X024525D01*
X024575D01*
Y0335D01*
X024625Y03345D01*
X0249Y034D02*
X02495Y03405D01*
X02505D01*
X0251Y034D01*
Y0338D01*
X02505Y03375D01*
X02495D01*
X0249Y0338D01*
X0246Y03405D02*
X0248D01*
Y0339D01*
X0247Y03395D01*
X02465D01*
X0246Y0339D01*
Y0338D01*
X02465Y03375D01*
X02475D01*
X0248Y0338D01*
X02255Y0385D02*
X0226Y03855D01*
X0227D01*
X02275Y0385D01*
Y0383D01*
X0227Y03825D01*
X0226D01*
X02255Y0383D01*
X0223Y03825D02*
Y03855D01*
X02245Y0384D01*
X02225D01*
X02585Y0362D02*
X0259Y03625D01*
X026D01*
X02605Y0362D01*
Y036D01*
X026Y03595D01*
X0259D01*
X02585Y036D01*
X02575Y03595D02*
X02565D01*
X0257D01*
Y03625D01*
X02575Y0362D01*
D104*
X040682Y037883D02*
X041218D01*
X040682Y037017D02*
X041218D01*
M02*
