M48
;Layer_Color=9474304
;FILE_FORMAT=2:4
INCH,LZ
;TYPE=PLATED
T1F00S00C0.0100
T2F00S00C0.0100
T5F00S00C0.0300
T6F00S00C0.0354
T7F00S00C0.0433
%
T01
X038431Y030231
X0392Y03025
X04355Y03055
X044524Y030574
T02
X03185Y03035
X0378Y03045
X03745Y02965
X04135Y03025
X04405Y03055
X043744Y029606
X0433Y02855
X03035Y0298
X0291Y0301
X02905Y0335
X02645
X02565
X02555Y0373
X02905Y0371
X03205Y0416
X037152Y036498
X038152Y036798
X03875Y03675
X038709Y036391
X03925Y03675
X04Y03645
X04085Y03445
X04145
X04175Y03465
X04155Y03335
X04075Y033
X0395Y03355
X03775Y033666
X0368Y0336
X036Y033666
X0368Y0315
X03975
X044288Y0321
X0443Y03375
X04925Y0342
X049302Y032462
X049241Y032067
T05
X0496Y0266
X02115Y02665
Y0413
X04965Y04135
T06
X0222Y02685
X0232
X0242
X0252
X0262
X0272
X02165Y0281
Y0291
Y0301
Y0311
Y0321
Y0331
T07
X046Y0385
M30
